<?xml version="1.0" standalone="no"?>
<!DOCTYPE svg PUBLIC "-//W3C//DTD SVG 1.1//EN" "http://www.w3.org/Graphics/SVG/1.1/DTD/svg11.dtd" >
<svg xmlns="http://www.w3.org/2000/svg" xmlns:xlink="http://www.w3.org/1999/xlink" version="1.1">
<metadata></metadata>
<defs>
<font id="pantonextralight_italic" horiz-adv-x="1114" >
<font-face units-per-em="2048" ascent="1516" descent="-532" />
<missing-glyph horiz-adv-x="516" />
<glyph horiz-adv-x="0" />
<glyph horiz-adv-x="682" />
<glyph unicode=" "  horiz-adv-x="516" />
<glyph unicode="&#x09;" horiz-adv-x="516" />
<glyph unicode="&#xa0;" horiz-adv-x="516" />
<glyph unicode="!" horiz-adv-x="362" d="M358 1516q14 0 11 -15l-219 -1200q-3 -9 -6.5 -11.5t-12.5 -2.5h-14q-8 0 -11 3t-2 11l203 1200q3 15 19 15h32zM94 82q23 0 30.5 -9t2.5 -32v-10q-4 -23 -14.5 -31t-34.5 -8h-10q-24 0 -29.5 7.5t-1.5 31.5v10q4 23 15 32t34 9h8z" />
<glyph unicode="&#x22;" horiz-adv-x="512" d="M252 1018q-2 -12 -19 -12h-14q-8 0 -9.5 2.5t-0.5 9.5l74 422q2 14 16 14h29q9 0 11.5 -2.5t2.5 -11.5zM432 1018q-2 -12 -18 -12h-15q-8 0 -9.5 2.5t-0.5 9.5l74 422q2 14 16 14h29q9 0 11.5 -2.5t2.5 -11.5z" />
<glyph unicode="#" horiz-adv-x="1349" d="M1313 946q15 0 10 -16l-12 -25q-7 -12 -23 -12h-256l-196 -412h256q15 0 10 -16l-15 -25q-5 -12 -20 -12h-256l-195 -414q-11 -14 -24 -14h-27q-16 0 -8 14l195 414h-383l-195 -414q-8 -14 -22 -14h-29q-16 0 -8 14l196 414h-252q-16 0 -8 14l12 25q6 14 23 14h250 l196 412h-251q-17 0 -9 14l11 25q8 14 24 14h250l168 354q9 17 25 17h26q16 0 8 -17l-168 -354h383l168 354q9 17 21 17h29q19 0 8 -17l-168 -354h256zM973 893h-383l-195 -412h383z" />
<glyph unicode="$" horiz-adv-x="1210" d="M788 1618q8 0 11 -3t2 -11l-29 -154q92 -4 159.5 -27.5t114 -68t76.5 -95t58 -124.5q3 -18 -15 -23l-20 -8q-19 -6 -23 6q-27 73 -55.5 120.5t-74 87.5t-113.5 58.5t-162 18.5q-195 0 -308 -87.5t-143 -254.5q-1 -38 -5.5 -68.5t7.5 -56t19.5 -45t29.5 -35.5t38.5 -27.5 t46 -20.5t52.5 -15t57.5 -11t60.5 -8t63 -7q7 -1 10 -1q86 -9 139.5 -18.5t121.5 -34.5t102.5 -62t52.5 -102t2 -154q-34 -189 -169 -283.5t-376 -97.5l-26 -156q-2 -14 -19 -14h-27q-8 0 -10 2.5t-2 11.5l29 154q-95 4 -166 31t-118.5 76.5t-77 111.5t-48.5 146 q-3 16 15 24l24 8q18 6 21 -10q21 -83 48.5 -140t72.5 -102.5t114 -67.5t164 -22q433 0 492 334q1 39 6.5 70.5t-6.5 58t-18 46.5t-28.5 37t-38 28.5t-45.5 21t-51.5 15.5t-56.5 11.5t-60.5 9t-62.5 7.5q-12 1 -18 2q-85 9 -138 18.5t-120.5 34t-102 60t-52.5 98.5t-3 148 q66 385 508 391l26 154q5 14 19 14h26z" />
<glyph unicode="%" horiz-adv-x="1644" d="M180 1190q25 141 117 218t242 77q151 0 218 -82t42 -223l-27 -152q-25 -141 -116 -217t-242 -76q-150 0 -217.5 81.5t-42.5 221.5zM1518 1454q19 0 4 -18l-1297 -1422q-9 -10 -15 -12t-22 -2h-20q-10 0 -12 5t6 13l1296 1422q12 14 33 14h27zM750 1184 q22 119 -34.5 185.5t-183.5 66.5q-125 0 -203 -66t-100 -186l-26 -150q-22 -118 34.5 -184t182.5 -66q125 0 204 66t101 184zM909 428q25 140 116.5 215.5t242.5 75.5t219 -82.5t43 -222.5l-27 -154q-25 -139 -118 -215t-244 -76q-150 0 -216.5 82.5t-41.5 224.5zM1479 418 q22 118 -34.5 185t-182.5 67q-124 0 -203 -66.5t-101 -185.5l-26 -150q-20 -118 35.5 -184t181.5 -66q125 0 205 66t100 184z" />
<glyph unicode="&#x26;" horiz-adv-x="1316" d="M319 1155q24 137 135.5 232.5t272.5 95.5q148 0 230.5 -101t58.5 -235q-11 -61 -35.5 -109.5t-58 -85.5t-88.5 -72t-112 -62t-144 -62l-21 -8l379 -437l182 148q13 10 23 0l16 -21q8 -8 -4 -20l-184 -148l225 -254q13 -16 -10 -16h-35q-18 0 -25 12l-196 224 q-142 -111 -246.5 -170.5t-173.5 -77t-152 -17.5q-154 0 -245 109t-62 266q12 71 42 130.5t66.5 100t92.5 78t103.5 60.5t115.5 51q-53 60 -86.5 110.5t-55.5 126.5t-8 152zM961 1151q21 112 -48 196.5t-196 84.5q-129 0 -226 -84.5t-118 -198.5q-4 -25 -4.5 -50t2 -46 t10 -44t14.5 -40t20.5 -39t23 -36.5t26.5 -36t27 -33.5t28 -33l39 14q165 67 220 98q124 72 165 183q11 30 17 65zM504 723q-68 -27 -115 -49t-99 -55.5t-85.5 -70.5t-60.5 -89.5t-38 -116.5q-23 -133 53 -225t208 -92q112 0 222.5 50t305.5 201z" />
<glyph unicode="'" horiz-adv-x="331" d="M252 1018q-2 -12 -19 -12h-14q-8 0 -9.5 2.5t-0.5 9.5l74 422q2 14 16 14h29q9 0 11.5 -2.5t2.5 -11.5z" />
<glyph unicode="(" horiz-adv-x="468" d="M242 1251q33 178 120 280.5t244 168.5q13 8 19 -8l6 -23q3 -13 -10 -20q-140 -60 -217.5 -151t-104.5 -247l-188 -1052q-21 -105 -2 -182.5t63 -126.5t123 -89q11 -8 4 -20l-16 -19q-9 -15 -21 -8q-133 66 -185 169t-22 280z" />
<glyph unicode=")" horiz-adv-x="468" d="M223 1692q9 15 23 8q52 -26 89.5 -55.5t67 -68t43 -85t17 -107t-11.5 -133.5l-187 -1048q-31 -178 -117.5 -281.5t-242.5 -169.5q-13 -7 -19 8l-8 25q-5 13 10 20q139 60 216.5 151t105.5 247l186 1052q27 159 -16.5 249t-165.5 149q-11 7 -6 20z" />
<glyph unicode="*" horiz-adv-x="800" d="M539 1378q14 0 8 -12l-51 -246l245 84q17 3 19 -6l2 -24q4 -14 -12 -17l-250 -63l118 -197q9 -9 -4 -18l-22 -15q-14 -9 -17 4l-102 207l-174 -205q-11 -13 -18 -6l-19 17q-12 9 2 16l189 197l-222 65q-18 3 -8 17l10 22q7 12 19 8l215 -86l35 246q3 12 14 12h23z" />
<glyph unicode="+" horiz-adv-x="1196" d="M1079 696q18 0 13 -16l-2 -21q-3 -16 -21 -16h-440l-76 -440q-6 -17 -21 -17h-20q-17 0 -14 17l77 440h-440q-15 0 -12 16l2 21q5 16 20 16h441l78 441q3 16 18 16h20q18 0 15 -16l-78 -441h440z" />
<glyph unicode="," horiz-adv-x="299" d="M-51 -233q-6 -15 -19 -15h-12q-9 0 -11.5 2t-0.5 10l131 310q4 13 10 16.5t19 3.5h22q27 0 16 -20z" />
<glyph unicode="-" horiz-adv-x="878" d="M721 571q17 0 12 -16l-2 -23q-3 -16 -18 -16h-578q-17 0 -14 16l2 23q5 16 20 16h578z" />
<glyph unicode="." horiz-adv-x="305" d="M78 82q23 0 29.5 -8.5t3.5 -32.5l-2 -10q-4 -23 -15 -31t-35 -8h-10q-24 0 -30.5 7.5t-0.5 31.5l2 10q4 23 15.5 32t34.5 9h8z" />
<glyph unicode="/" horiz-adv-x="794" d="M10 -109q-6 -14 -24 -14h-27q-15 0 -8 14l848 1549q6 14 22 14h27q17 0 10 -14z" />
<glyph unicode="0" horiz-adv-x="1265" d="M201 1028q39 214 190.5 334.5t390.5 120.5t352 -127t74 -340l-104 -592q-37 -214 -190 -333.5t-392 -119.5q-240 0 -351.5 125t-74.5 340zM1151 1024q33 188 -64.5 295.5t-310.5 107.5t-348 -107.5t-168 -295.5l-104 -592q-34 -191 63 -298t311 -107q212 0 347.5 107.5 t169.5 297.5z" />
<glyph unicode="1" horiz-adv-x="843" d="M778 1454q17 0 17 -16l-252 -1422q-3 -16 -21 -16h-24q-20 0 -15 16l242 1366l-545 -274q-17 -10 -20 6l-10 23q-8 13 10 20l571 289q13 8 25 8h22z" />
<glyph unicode="2" horiz-adv-x="1185" d="M213 1153q104 168 239.5 249t331.5 81q209 0 310 -115.5t67 -312.5q-12 -65 -36 -120t-52.5 -96t-74 -78t-85 -61.5t-101 -51.5t-107 -44.5t-117.5 -42.5q-15 -5 -23 -8q-59 -21 -93 -34t-86 -36t-83.5 -42t-70 -48.5t-62 -60.5t-43.5 -72t-29 -88l-18 -117h887 q9 0 11.5 -3.5t2.5 -12.5l-4 -23q-5 -16 -21 -16h-929q-20 0 -17 18l27 146q9 50 25.5 93t43 78.5t53 64t67.5 55t73 45t84 40t86 34.5t92 34q190 69 258 102q176 88 243 224q28 57 40 125q31 172 -57 270t-269 98q-174 0 -293.5 -72.5t-216.5 -224.5q-9 -15 -20 -10l-27 13 q-11 5 -6 20z" />
<glyph unicode="3" horiz-adv-x="1202" d="M1133 1075q-20 -114 -86 -202t-177 -123q113 -40 160.5 -133.5t24.5 -227.5q-35 -200 -169 -309t-374 -109q-118 0 -202 24t-136 72.5t-79.5 114.5t-37.5 158q-2 16 17 22l22 7q18 6 21 -11q10 -87 32.5 -145t67 -102t118 -64t181.5 -20q211 0 330 95t149 269 q27 150 -42 239t-224 89h-369q-15 0 -12 16l4 23q3 16 21 16h362q144 0 231 87.5t109 217.5q29 164 -52.5 256t-258.5 92q-135 0 -228.5 -34t-156 -101t-115.5 -180q-9 -14 -24 -8l-23 6q-16 6 -6 23q57 122 127 196.5t177 114t259 39.5q202 0 297.5 -108.5t61.5 -299.5z " />
<glyph unicode="4" horiz-adv-x="1216" d="M1120 498q18 0 15 -17l-5 -22q-3 -17 -18 -17h-229l-76 -426q-5 -16 -21 -16h-24q-17 0 -14 16l75 426h-774q-17 0 -14 17l2 16q2 11 8 23l948 970q14 11 27 11h27q20 0 14 -17l-170 -964h229zM831 498l158 895l-876 -895h718z" />
<glyph unicode="5" horiz-adv-x="1189" d="M1165 1454q18 0 15 -16l-4 -23q-3 -16 -19 -16h-747l-152 -549h395q225 0 331 -118t69 -326q-34 -192 -180 -314.5t-375 -122.5q-209 0 -322 80t-141 236q-3 15 10 20l31 12q16 3 18 -12q51 -280 410 -280q201 0 328.5 109t158.5 280q32 182 -58.5 280.5t-285.5 98.5 h-438q-28 0 -19 26l168 602q6 20 14 26.5t27 6.5h766z" />
<glyph unicode="6" horiz-adv-x="1251" d="M209 737q36 15 90.5 32t167 35.5t225.5 18.5q250 0 350.5 -108.5t63.5 -327.5q-35 -201 -187 -308.5t-393 -107.5q-247 0 -356.5 134.5t-67.5 371.5l88 504q43 248 195 375t403 127q374 0 437 -305q3 -15 -15 -21l-24 -10q-16 -5 -19 12q-58 268 -389 268 q-221 0 -355 -113t-171 -335zM162 475q-39 -212 55.5 -330t314.5 -118q214 0 348.5 96t166.5 274q32 189 -57 280t-312 91q-115 0 -230.5 -21t-165.5 -37.5t-85 -31.5z" />
<glyph unicode="7" horiz-adv-x="1026" d="M1122 1454q18 0 15 -16l-4 -17q-1 -4 -2 -7t-3.5 -7t-3.5 -8l-850 -1385q-12 -14 -32 -14h-29q-14 0 -4 16l852 1383h-864q-18 0 -15 16l4 23q3 16 19 16h917z" />
<glyph unicode="8" horiz-adv-x="1236" d="M242 1130q29 172 168 262.5t362 90.5q231 0 335.5 -94t74.5 -269q-14 -78 -51.5 -141.5t-81 -102.5t-101.5 -69.5t-99 -44.5t-87 -25q32 -10 58.5 -19.5t55 -21.5t51 -24.5t45.5 -28.5t40.5 -34t33 -39t24.5 -45.5t14.5 -53t5 -61.5t-6.5 -70q-68 -369 -577 -369 q-269 0 -375.5 93.5t-75.5 267.5q12 69 43 128.5t75 102t89.5 75t99 55t91.5 35.5t77 22q-75 26 -127.5 54t-98 72t-61.5 108t-1 146zM1124 1124q26 149 -66 227.5t-296 78.5q-195 0 -316 -79t-147 -227q-12 -69 4 -124t43.5 -87.5t89 -63t103.5 -44.5t125 -37l18 -6 q22 4 41.5 7.5t63 16.5t79 29t80.5 45t78.5 64t61 87t38.5 113zM1022 344q15 88 -4 149t-85 103t-119.5 62.5t-167.5 54.5q-27 8 -40 12q-22 -4 -43 -8.5t-68.5 -19t-88 -32t-91 -49.5t-88 -69.5t-68.5 -93t-42 -119.5q-26 -150 66 -229.5t331 -79.5q453 0 508 319z" />
<glyph unicode="9" horiz-adv-x="1251" d="M1081 717q-36 -15 -90.5 -32t-167 -35.5t-225.5 -18.5q-250 0 -350.5 108.5t-63.5 327.5q35 201 187 308.5t393 107.5q247 0 356.5 -134.5t67.5 -371.5l-88 -504q-43 -248 -195 -375t-403 -127q-373 0 -436 305q-3 15 14 21l24 10q16 5 19 -12q58 -268 389 -268 q221 0 355 113t171 335zM1128 979q39 212 -55.5 330t-314.5 118q-214 0 -348 -96t-166 -274q-32 -189 56.5 -280t311.5 -91q115 0 231 21t166 37.5t85 31.5z" />
<glyph unicode=":" horiz-adv-x="380" d="M223 891q-24 0 -30 7.5t0 31.5l2 10q4 23 15 32t34 9h8q23 0 29.5 -8.5t3.5 -32.5l-2 -10q-4 -23 -15 -31t-35 -8h-10zM82 -8q-24 0 -30.5 7.5t-0.5 31.5l2 10q4 23 15 32t34 9h9q23 0 29 -8.5t3 -32.5l-2 -10q-4 -23 -14.5 -31t-34.5 -8h-10z" />
<glyph unicode=";" horiz-adv-x="387" d="M207 891q-24 0 -30.5 7.5t-0.5 31.5l2 10q4 23 15 32t34 9h9q23 0 29 -8.5t3 -32.5l-2 -10q-4 -23 -14.5 -31t-34.5 -8h-10zM-45 -248q-8 0 -9.5 2.5t-0.5 9.5l139 310q7 20 29 20h22q29 0 15 -20l-164 -307q-6 -15 -21 -15h-10z" />
<glyph unicode="&#x3c;" horiz-adv-x="1038" d="M969 1122q12 6 17 2.5t3 -14.5l-8 -27q-1 -4 -2 -7t-2 -5t-2.5 -4t-2 -3t-2.5 -2.5t-3 -2.5t-4 -3t-5 -3l-790 -385v-4l651 -388q13 -6 15.5 -10.5t1.5 -17.5l-5 -23q-3 -12 -7 -14.5t-15 2.5l-707 424q-16 8 -14 22l4 17q2 13 21 24z" />
<glyph unicode="=" horiz-adv-x="1247" d="M1137 899q17 0 14 -16l-2 -23q-5 -16 -21 -16h-933q-18 0 -13 16l2 23q3 16 19 16h934zM1065 494q17 0 14 -15l-2 -24q-6 -15 -20 -15h-934q-18 0 -12 15l2 24q3 15 18 15h934z" />
<glyph unicode="&#x3e;" horiz-adv-x="1036" d="M223 1110q6 22 23 12l708 -422q15 -10 13 -24l-4 -17q-2 -14 -21 -22l-856 -424q-12 -4 -17 -1.5t-3 13.5l8 29q5 14 8.5 18.5t13.5 10.5l791 385l2 4l-653 387q-1 1 -4 2q-14 9 -14 18l1 11z" />
<glyph unicode="?" horiz-adv-x="1130" d="M168 1178q187 338 561 338q219 0 328.5 -121.5t77.5 -300.5q-10 -56 -28.5 -106.5t-38 -87.5t-51.5 -74t-55.5 -60t-64.5 -52.5t-63 -43.5t-66 -41q-43 -26 -64 -39.5t-58 -40t-58 -49.5t-45.5 -56t-40 -72.5t-23.5 -86.5q-3 -11 -6 -14t-10 -3h-23q-9 0 -11.5 3t-2.5 14 q9 53 26 97.5t43 81t50 64t62.5 56t64 45t69.5 43.5q59 36 87.5 55t78 60.5t76.5 79t53.5 97.5t38.5 130q29 158 -63 262t-285 104q-178 0 -304.5 -80.5t-203.5 -220.5q-11 -14 -22 -10l-23 8q-14 8 -6 21zM424 82q23 0 30.5 -9t2.5 -32v-10q-4 -23 -14.5 -31t-34.5 -8h-11 q-23 0 -28.5 7t-1.5 32v10q4 23 15 32t34 9h8z" />
<glyph unicode="@" horiz-adv-x="1841" d="M115 668q68 379 322 597t632 218q259 0 426 -103t227 -285.5t17 -426.5l-25 -140q-18 -107 -63 -191t-105.5 -135t-128.5 -77.5t-139 -26.5q-51 0 -75.5 21.5t-24.5 68.5q-187 -88 -404 -88q-175 0 -246 86t-43 244l60 330q27 160 128 247t275 87q204 0 344 -62 q37 -18 47.5 -37t3.5 -61l-122 -709q-14 -80 65 -80q60 0 118.5 22.5t111 67.5t92 120t57.5 171l23 142q64 358 -98 563t-529 205q-355 0 -593.5 -205t-301.5 -563l-25 -142q-62 -361 103.5 -555t523.5 -194q42 0 85.5 2.5t81 6t74.5 9t65.5 10.5t55 10t43 9t29.5 7l12 3 q8 2 11 1t2 -5l-4 -29q-2 -11 -15 -14q-228 -57 -448 -57q-383 0 -559.5 207t-108.5 591zM1255 991q-112 53 -311 53q-150 0 -236 -73.5t-110 -210.5l-59 -328q-49 -282 247 -282q101 0 192.5 20.5t129.5 37t63 32.5l119 684q6 29 -1 42t-34 25z" />
<glyph unicode="A" horiz-adv-x="1280" d="M1151 16q0 -16 -16 -16h-21q-24 0 -27 14l-112 494h-705l-284 -494q-11 -14 -33 -14h-25q-20 0 -10 16l832 1432q11 16 26 16h25q19 0 22 -14zM967 559l-183 789q-4 46 -4 55h-2q-13 -39 -20 -55l-459 -789h668z" />
<glyph unicode="B" horiz-adv-x="1306" d="M920 1454q179 0 262.5 -95t52.5 -269q-47 -273 -283 -340v-2q126 -29 181.5 -127.5t27.5 -243.5q-35 -184 -156 -280.5t-309 -96.5h-614q-17 0 -14 16l251 1422q3 16 19 16h582zM1174 1085q28 155 -41 234.5t-226 79.5h-534l-113 -629h535q156 0 253.5 80.5t125.5 234.5z M1102 387q26 157 -47 242.5t-234 85.5h-567l-117 -660h570q160 0 263 85.5t132 246.5z" />
<glyph unicode="C" horiz-adv-x="1294" d="M193 985q42 236 202.5 367t425.5 131q233 0 342.5 -89t128.5 -272q2 -17 -14 -22l-21 -6q-17 -6 -20 10q-21 169 -116.5 246t-305.5 77q-237 0 -381 -116.5t-180 -323.5l-90 -512q-37 -211 67 -327.5t338 -116.5q214 0 338 80t205 251q6 18 23 11l24 -8q15 -6 6 -23 q-44 -93 -93.5 -158t-119.5 -115t-165 -74t-220 -24q-262 0 -383.5 134t-81.5 368z" />
<glyph unicode="D" horiz-adv-x="1314" d="M748 1454q282 0 412 -146.5t85 -400.5l-65 -372q-45 -252 -223.5 -393.5t-462.5 -141.5h-412q-17 0 -14 16l251 1422q3 16 19 16h410zM1188 913q40 229 -75.5 357.5t-371.5 128.5h-368l-236 -1344h367q256 0 417 128.5t201 357.5z" />
<glyph unicode="E" horiz-adv-x="1161" d="M1180 1454q17 0 14 -16l-6 -23q-3 -16 -19 -16h-796l-113 -633h711q17 0 12 -16l-4 -25q-3 -16 -18 -16h-711l-115 -654h828q9 0 11.5 -3.5t2.5 -12.5l-4 -23q-5 -16 -21 -16h-870q-17 0 -14 16l251 1422q3 16 19 16h842z" />
<glyph unicode="F" horiz-adv-x="1138" d="M1180 1454q17 0 14 -16l-6 -23q-3 -16 -19 -16h-796l-117 -656h698q18 0 13 -16l-4 -25q0 -16 -19 -16h-698l-117 -670q-5 -16 -20 -16h-27q-17 0 -14 16l251 1422q3 16 19 16h842z" />
<glyph unicode="G" horiz-adv-x="1329" d="M1219 719q17 0 14 -19l-43 -235q-40 -232 -201.5 -363t-423.5 -131q-264 0 -383.5 134.5t-79.5 369.5l91 512q42 235 202.5 365.5t425.5 130.5q156 0 258.5 -43.5t152 -121.5t62.5 -196q0 -10 -2 -14.5t-12 -7.5l-25 -6q-9 -3 -13 -1t-5 11q-21 169 -116.5 246t-305.5 77 q-238 0 -381.5 -116.5t-179.5 -323.5l-90 -512q-37 -213 65 -330.5t342 -117.5q232 0 379 118t183 324l32 193h-465q-9 0 -11.5 3.5t-2.5 12.5l4 24q6 17 21 17h508z" />
<glyph unicode="H" horiz-adv-x="1390" d="M1346 1454q17 0 14 -16l-252 -1422q-3 -16 -18 -16h-29q-17 0 -12 16l120 693h-919l-121 -693q-5 -16 -20 -16h-27q-17 0 -14 16l251 1422q3 16 19 16h27q17 0 14 -16l-119 -672h920l120 672q0 16 17 16h29z" />
<glyph unicode="I" horiz-adv-x="411" d="M319 1438q3 16 19 16h27q17 0 14 -16l-250 -1422q-5 -16 -20 -16h-27q-17 0 -14 16z" />
<glyph unicode="J" horiz-adv-x="1155" d="M1120 1454q18 0 15 -16l-179 -1010q-39 -218 -180.5 -338.5t-369.5 -120.5q-405 0 -402 418q-3 16 12 21l27 10q18 6 18 -12q0 -187 82.5 -283t266.5 -96q199 0 326 109t161 300l176 1002q3 16 19 16h28z" />
<glyph unicode="K" horiz-adv-x="1214" d="M1065 18q7 -18 -12 -18h-23q-23 0 -29 14l-159 490q-26 75 -57.5 117t-87.5 65t-144 23h-303l-121 -693q-5 -16 -20 -16h-27q-17 0 -14 16l251 1422q3 16 19 16h27q17 0 14 -16l-119 -672h291q39 0 57 -2l617 676q9 14 35 14h30q20 0 6 -18l-628 -686q94 -18 146 -71.5 t83 -148.5z" />
<glyph unicode="L" horiz-adv-x="1036" d="M365 1454q17 0 14 -16l-244 -1383h780q13 0 13 -16l-4 -23q-5 -16 -21 -16h-821q-17 0 -14 16l251 1422q3 16 19 16h27z" />
<glyph unicode="M" horiz-adv-x="1626" d="M1579 1454q17 0 14 -16l-250 -1422q-5 -16 -20 -16h-27q-15 0 -12 16l178 1008q4 23 66 328h-2q-132 -186 -199 -275l-524 -710q-12 -15 -27 -15h-16q-18 0 -23 15l-280 720q-37 90 -95 267h-4q-15 -108 -53 -330l-176 -1008q-5 -16 -20 -16h-27q-17 0 -14 16l251 1422 q3 16 19 16h20q18 0 23 -16l397 -1012l746 1010q13 18 28 18h27z" />
<glyph unicode="N" horiz-adv-x="1406" d="M1360 1454q17 0 14 -16l-250 -1422q-5 -16 -20 -16h-27q-11 0 -18 12l-576 1098q-21 40 -61 127t-60 123h-4q-9 -51 -26 -167.5t-23 -154.5l-180 -1022q-5 -16 -20 -16h-27q-17 0 -14 16l251 1422q3 16 19 16h20q16 0 21 -10l561 -1067q30 -57 78.5 -155.5t62.5 -125.5h4 q8 47 26 168.5t30 190.5l174 985q3 14 18 14h27z" />
<glyph unicode="O" horiz-adv-x="1353" d="M197 989q42 236 204 365t426 129q262 0 381.5 -136.5t77.5 -371.5l-90 -512q-42 -234 -203 -363t-422 -129q-265 0 -386 136t-79 372zM1227 981q37 209 -67.5 327.5t-336.5 118.5q-238 0 -383 -116t-182 -330l-90 -508q-37 -210 67.5 -328t339.5 -118q233 0 379 118 t183 328z" />
<glyph unicode="P" horiz-adv-x="1259" d="M891 1454q205 0 304.5 -122t61.5 -328q-38 -203 -175.5 -313.5t-344.5 -110.5h-510l-98 -564q-5 -16 -20 -16h-27q-17 0 -14 16l251 1422q3 16 19 16h553zM741 635q183 0 304.5 100t152.5 279q32 182 -53 283.5t-266 101.5h-506l-135 -764h503z" />
<glyph unicode="Q" horiz-adv-x="1376" d="M197 989q42 236 204 365t426 129q262 0 381.5 -136.5t77.5 -371.5l-90 -512q-41 -227 -192 -354l118 -183q12 -12 -4 -24l-20 -15q-17 -11 -23 0l-125 185q-150 -101 -379 -101q-265 0 -386 136t-79 372zM823 1427q-238 0 -383 -116t-182 -330l-90 -508 q-37 -210 67.5 -328t339.5 -118q233 0 379 118t183 328l90 508q37 209 -67.5 327.5t-336.5 118.5z" />
<glyph unicode="R" horiz-adv-x="1300" d="M930 1454q191 0 279.5 -107.5t54.5 -299.5q-32 -178 -150.5 -277.5t-296.5 -107.5q60 -24 96.5 -69t61.5 -116l151 -459q7 -18 -14 -18h-25q-22 0 -28 14l-144 437q-25 74 -58 116.5t-90 65t-146 22.5h-379l-113 -639q-5 -16 -20 -16h-27q-17 0 -14 16l251 1422 q3 16 19 16h592zM1204 1053q29 166 -46.5 256t-242.5 90h-542l-123 -686h543q165 0 273.5 88.5t137.5 251.5z" />
<glyph unicode="S" horiz-adv-x="1251" d="M205 1110q32 183 179 278t386 95q194 0 303.5 -80.5t157.5 -233.5q5 -16 -12 -22l-21 -10q-16 -5 -20 6q-45 139 -142.5 209.5t-273.5 70.5q-212 0 -342.5 -82t-157.5 -239q-16 -94 11 -159t96.5 -101t138.5 -53.5t174 -30.5q86 -10 146.5 -22.5t127.5 -40.5t104.5 -68 t55.5 -108t2 -157q-35 -198 -181.5 -294.5t-412.5 -96.5q-208 0 -328 89.5t-163 273.5q-2 11 1 15.5t13 8.5l27 9q13 5 18 -9q44 -173 148 -251t288 -78q472 0 533 344q13 76 -5 132.5t-49 88.5t-96.5 54.5t-115 31.5t-136.5 20q-85 10 -150 24t-133 44t-108.5 72.5 t-59.5 111.5t-3 158z" />
<glyph unicode="T" horiz-adv-x="1069" d="M1174 1454q17 0 14 -16l-6 -23q0 -16 -17 -16h-465l-243 -1383q-3 -16 -21 -16h-26q-18 0 -13 16l244 1383h-465q-17 0 -14 16l4 23q3 16 18 16h990z" />
<glyph unicode="U" horiz-adv-x="1390" d="M201 492q-38 -218 60 -342.5t331 -124.5q234 0 375.5 124.5t177.5 342.5l170 946q0 16 16 16h29q17 0 14 -16l-170 -957q-42 -242 -198.5 -377t-419.5 -135q-262 0 -374.5 143t-70.5 386l168 940q3 16 19 16h26q18 0 15 -16z" />
<glyph unicode="V" horiz-adv-x="1241" d="M1354 1454q14 0 8 -16l-811 -1422q-8 -16 -27 -16h-24q-21 0 -21 16l-309 1422q-3 16 14 16h25q21 0 27 -14l264 -1241l22 -121h4q7 12 28.5 54t35.5 65l706 1243q8 14 27 14h31z" />
<glyph unicode="W" horiz-adv-x="1765" d="M1851 1454q16 0 11 -16l-641 -1422q-7 -16 -27 -16h-27q-20 0 -20 16l-121 1135q-5 47 -14 176h-4q-67 -153 -78 -176l-527 -1135q-7 -16 -26 -16h-27q-18 0 -20 16l-137 1422q-3 16 12 16h31q19 0 22 -14l109 -1174q3 -33 7 -97.5t5 -80.5h2q1 3 30.5 72.5t45.5 103.5 l528 1139q9 14 27 14h26q19 0 19 -14l123 -1143q11 -104 14 -172h4q8 19 31.5 79t36.5 91l532 1182q6 14 23 14h30z" />
<glyph unicode="X" horiz-adv-x="1228" d="M1321 1454q7 0 10 -5t-2 -11l-653 -703l416 -712q6 -9 2.5 -16t-13.5 -7h-32q-20 0 -27 14l-391 674l-625 -674q-12 -14 -33 -14h-36q-24 0 -5 23l668 716l-403 699q-3 6 0 11t12 5h31q14 0 19 -2.5t9 -11.5l377 -654l606 654q12 14 31 14h39z" />
<glyph unicode="Y" horiz-adv-x="1249" d="M1358 1454q9 0 11 -5t-3 -11l-715 -836l-102 -586q-3 -16 -21 -16h-26q-18 0 -13 16l103 588l-416 834q-3 6 0 11t10 5h33q22 0 29 -14l385 -774l657 774q9 14 31 14h37z" />
<glyph unicode="Z" horiz-adv-x="1105" d="M1163 1454q15 0 15 -16l-4 -21q-2 -11 -13 -22l-1130 -1338h913q17 0 12 -16l-4 -25q-3 -16 -18 -16h-971q-17 0 -12 16l4 23q0 15 10 27l1129 1333h-875q-16 0 -16 16l6 23q3 16 18 16h936z" />
<glyph unicode="[" horiz-adv-x="501" d="M668 1753q9 0 11 -2.5t1 -11.5l-4 -23q-2 -9 -5 -12.5t-12 -3.5h-264l-344 -1946h264q16 0 13 -16l-4 -23q-2 -14 -19 -14h-305q-18 0 -12 14l356 2024q3 14 18 14h306z" />
<glyph unicode="\" horiz-adv-x="778" d="M217 1440q-3 14 12 14h29q15 0 21 -14l299 -1549q2 -7 -1.5 -10.5t-13.5 -3.5h-28q-13 0 -19 14z" />
<glyph unicode="]" horiz-adv-x="499" d="M539 1753q18 0 12 -14l-356 -2024q-3 -14 -19 -14h-305q-9 0 -11 2.5t-1 11.5l4 23q5 16 18 16h264l344 1946h-264q-9 0 -11.5 3.5t-2.5 12.5l4 23q2 14 18 14h306z" />
<glyph unicode="^" horiz-adv-x="1214" d="M803 1659q13 0 18 -12l365 -562q11 -20 -10 -20h-27q-22 0 -31 14l-330 516h-6l-508 -516q-9 -10 -13.5 -12t-18.5 -2h-29q-24 0 -4 20l553 562q12 12 24 12h17z" />
<glyph unicode="_" horiz-adv-x="1050" d="M862 0q18 0 15 -16l-5 -23q-3 -16 -18 -16h-893q-17 0 -14 16l4 23q3 16 18 16h893z" />
<glyph unicode="`" horiz-adv-x="526" d="M238 1475q14 14 30 2l314 -228q10 -8 0 -20l-9 -6q-10 -10 -22 -2l-324 223q-9 5 -8.5 8.5t8.5 11.5z" />
<glyph unicode="a" horiz-adv-x="1081" d="M129 696q34 199 151 289t336 90q191 0 316 -57q47 -21 59.5 -42t3.5 -71l-147 -837q-2 -17 -29 -27q-198 -70 -430 -70q-131 0 -210.5 55t-103 147.5t-1.5 217.5zM891 971q-112 53 -281 53q-192 0 -294 -77.5t-134 -254.5l-53 -303q-31 -170 35 -268t235 -98 q120 0 226 21.5t170 45.5l141 803q6 37 -1 49t-44 29z" />
<glyph unicode="b" horiz-adv-x="1089" d="M344 1516q12 0 12 -15l-92 -512q213 86 404 86q197 0 274.5 -103.5t42.5 -293.5l-53 -303q-71 -404 -494 -404q-190 0 -317 58q-46 23 -58.5 43.5t-3.5 68.5l240 1360q3 15 18 15h27zM930 684q61 340 -275 340q-84 0 -174 -18.5t-139 -36t-86 -35.5l-137 -780 q-6 -35 1 -48t42 -30q121 -53 282 -53q189 0 295.5 89t137.5 269z" />
<glyph unicode="c" horiz-adv-x="1044" d="M125 690q33 185 158 285t335 100q181 0 266 -73t105 -211q3 -20 -12 -23l-21 -4q-17 -5 -20 8q-18 129 -92 190.5t-234 61.5q-181 0 -291.5 -89.5t-138.5 -248.5l-57 -324q-28 -158 52 -248.5t259 -90.5q157 0 258.5 65t163.5 201q8 15 23 10l24 -6q12 -6 4 -21 q-70 -152 -185.5 -226.5t-293.5 -74.5q-207 0 -300 106.5t-60 293.5z" />
<glyph unicode="d" horiz-adv-x="1087" d="M125 684q33 189 146 290t309 101q200 0 372 -84l90 510q3 15 21 15h24q13 0 13 -15l-242 -1360q-9 -51 -27.5 -71.5t-72.5 -40.5q-150 -58 -338 -58q-420 0 -350 410zM944 936q-158 88 -366 88q-337 0 -398 -344l-53 -301q-31 -178 44 -267t261 -89q163 0 303 53 q42 17 53.5 29.5t18.5 48.5z" />
<glyph unicode="e" horiz-adv-x="1056" d="M117 657q35 198 169 308t339 110q207 0 305 -92t57 -256q-32 -136 -151.5 -205t-311.5 -69q-205 0 -383 41l-22 -129q-28 -163 48 -254t257 -91q148 0 245.5 53t170.5 154q12 15 24 6l17 -10q11 -7 2 -22q-78 -109 -188.5 -169.5t-278.5 -60.5q-209 0 -297.5 106.5 t-55.5 293.5zM934 735q36 141 -49 216t-269 75q-179 0 -297 -98.5t-149 -272.5l-20 -112q168 -43 382 -43q341 0 402 235z" />
<glyph unicode="f" horiz-adv-x="686" d="M811 1516q15 0 12 -17l-4 -18q-6 -17 -20 -17q-102 0 -167 -14.5t-113.5 -54t-75.5 -103.5t-46 -168l-12 -77h348q16 0 10 -15l-2 -22q-3 -15 -18 -15h-346l-174 -981q-3 -14 -19 -14h-24q-16 0 -13 14l172 981h-231q-15 0 -12 15l2 22q6 15 20 15h232l12 77 q20 114 52.5 187.5t87 119.5t129 65t184.5 20h16z" />
<glyph unicode="g" horiz-adv-x="1089" d="M125 676q34 201 155 300t338 99q191 0 316 -57q46 -21 58 -42t3 -71l-174 -991q-77 -440 -495 -440q-151 0 -232 63.5t-117 175.5q-6 19 11 25l20 8q13 9 21 -6q22 -69 55 -113.5t95.5 -72t154.5 -27.5q363 0 430 387l27 147q-64 -29 -171 -56.5t-229 -27.5 q-197 0 -275.5 105.5t-43.5 294.5zM893 971q-121 53 -281 53q-189 0 -294.5 -87t-137.5 -265l-53 -297q-30 -167 36.5 -256.5t237.5 -89.5q213 0 400 88l137 776q6 37 -1 49t-44 29z" />
<glyph unicode="h" horiz-adv-x="1118" d="M350 1516q13 0 10 -15l-88 -506q188 80 398 80q389 0 321 -393l-117 -668q-3 -14 -18 -14h-25q-18 0 -12 14l117 666q30 170 -37.5 257t-241.5 87q-209 0 -395 -84l-162 -926q-6 -14 -18 -14h-27q-15 0 -12 14l262 1487q3 15 19 15h26z" />
<glyph unicode="i" horiz-adv-x="354" d="M319 1407q22 0 28.5 -8.5t2.5 -30.5v-8q-4 -22 -13.5 -29.5t-31.5 -7.5h-8q-22 0 -28.5 7t-2.5 30v8q5 22 14.5 30.5t30.5 8.5h8zM266 1047q16 0 13 -15l-179 -1018q-6 -14 -18 -14h-27q-15 0 -12 14l178 1018q6 15 19 15h26z" />
<glyph unicode="j" horiz-adv-x="354" d="M319 1407q22 0 28.5 -8.5t2.5 -30.5v-8q-4 -22 -13.5 -29.5t-31.5 -7.5h-8q-22 0 -28.5 7t-2.5 30v8q5 22 14.5 30.5t30.5 8.5h8zM264 1047q18 0 12 -15l-184 -1052q-40 -228 -147 -339.5t-324 -111.5q-12 0 -12 16l4 23q6 14 18 14q97 0 168 25.5t117.5 79t74.5 123.5 t46 170l184 1052q6 15 19 15h24z" />
<glyph unicode="k" horiz-adv-x="1007" d="M854 16q2 -9 0 -12.5t-12 -3.5h-25q-20 0 -22 12l-115 361q-25 77 -69.5 110t-131.5 33h-293l-86 -500q-5 -16 -20 -16h-25q-15 0 -12 16l262 1483q3 17 19 17h24q15 0 12 -17l-163 -934h282h23l450 469q15 13 37 13h21q24 0 8 -19l-457 -473q69 -10 108.5 -48.5 t63.5 -111.5z" />
<glyph unicode="l" horiz-adv-x="368" d="M109 14q-6 -14 -19 -14h-27q-15 0 -12 14l262 1487q3 15 19 15h26q14 0 11 -15z" />
<glyph unicode="m" horiz-adv-x="1654" d="M846 973q1 0 15.5 7.5t27 13.5t36.5 16.5t47 18.5t56 17t64.5 15t70.5 10t78 4q181 0 251.5 -94t37.5 -281l-121 -686q-6 -14 -20 -14h-25q-15 0 -12 14l121 684q29 168 -29.5 247t-214.5 79q-83 0 -166 -20.5t-124 -39.5t-69 -36q39 -83 15 -226l-121 -688 q-6 -14 -19 -14h-26q-16 0 -10 14l120 684q29 168 -33.5 247t-220.5 79q-147 0 -266 -55q-33 -16 -45.5 -34.5t-17.5 -47.5l-152 -873q-6 -14 -18 -14h-27q-15 0 -12 14l156 885q9 45 29.5 70t66.5 47q137 59 299 59q190 0 258 -102z" />
<glyph unicode="n" horiz-adv-x="1112" d="M289 1010q172 65 375 65q199 0 276.5 -101.5t44.5 -291.5l-117 -668q-3 -14 -18 -14h-25q-18 0 -12 14l117 666q30 170 -37.5 257t-241.5 87q-194 0 -344 -61q-31 -13 -43.5 -29.5t-17.5 -44.5l-152 -875q-6 -14 -18 -14h-27q-15 0 -12 14l156 885q9 46 28 68.5t68 42.5z " />
<glyph unicode="o" horiz-adv-x="1097" d="M135 727q29 162 162.5 255t329.5 93q198 0 300 -94t74 -256l-71 -408q-29 -161 -161 -253.5t-329 -92.5t-301 95t-76 256zM946 729q25 134 -64.5 214.5t-260.5 80.5q-168 0 -285.5 -80.5t-142.5 -214.5l-72 -412q-25 -134 64.5 -214t258.5 -80q171 0 288 79.5t142 214.5z " />
<glyph unicode="p" horiz-adv-x="1087" d="M295 1018q151 57 340 57q419 0 350 -407l-55 -306q-68 -391 -459 -391q-202 0 -367 99l-90 -506q-3 -15 -18 -15h-25q-18 0 -12 15l236 1341q9 50 28 71t72 42zM928 668q31 178 -44 267t-263 89q-171 0 -304 -53q-42 -17 -52.5 -29t-16.5 -49l-135 -766q33 -21 74 -41 t123 -41.5t165 -21.5q336 0 397 342z" />
<glyph unicode="q" horiz-adv-x="1091" d="M621 1075q190 0 315 -57q47 -21 59.5 -42t3.5 -71l-237 -1341q-3 -15 -19 -15h-24q-18 0 -12 15l88 506q-202 -99 -404 -99q-197 0 -274.5 101.5t-44.5 289.5l55 308q69 405 494 405zM127 362q-61 -339 274 -339q84 0 175 21.5t140.5 41.5t88.5 41l135 766q4 37 -3 49 t-42 29q-112 53 -283 53q-188 0 -294.5 -89t-137.5 -269z" />
<glyph unicode="r" horiz-adv-x="681" d="M662 1075h61q14 0 14 -14l-4 -21q-5 -16 -18 -16h-64q-189 0 -344 -59q-32 -14 -44 -31.5t-17 -46.5l-152 -873q-6 -14 -18 -14h-27q-15 0 -12 14l156 885q9 46 28 68.5t68 42.5q168 65 373 65z" />
<glyph unicode="s" horiz-adv-x="997" d="M137 791q25 138 135 211t299 73q169 0 254.5 -57.5t108.5 -165.5q6 -17 -8 -23l-19 -8q-8 -3 -12 -2.5t-6 2t-4 6.5q-22 98 -94 147.5t-226 49.5q-162 0 -256 -61t-116 -177q-5 -31 -6 -57t6 -46.5t13 -37t24 -29.5t29 -22t38 -16t41.5 -11.5t49.5 -8.5t50.5 -5.5 t55.5 -5.5q15 -1 22 -2q67 -6 116 -15t98 -29.5t76.5 -50.5t40 -79.5t1.5 -114.5q-49 -285 -449 -285q-166 0 -263 61t-124 199q-4 17 13 23l22 6q14 5 19 -8q24 -123 107.5 -176t229.5 -53q347 0 390 237q10 54 -1 94t-34 64t-67 40t-87 23.5t-106 12.5q-83 8 -125 14 t-103.5 25t-88 48t-42 82t-2.5 128z" />
<glyph unicode="t" horiz-adv-x="669" d="M410 1292q18 0 12 -14l-39 -231h346q16 0 10 -15l-2 -22q-3 -15 -18 -15h-344l-113 -630q-12 -71 -14.5 -122t7.5 -90t30.5 -63t58 -39t85 -20.5t116.5 -5.5q15 0 12 -15l-4 -22q-3 -17 -18 -17q-77 -1 -132 6.5t-97.5 25t-67.5 46.5t-37 73t-10 102.5t16 137.5l110 633 h-237q-15 0 -12 15l2 22q6 15 20 15h236l41 231q3 14 18 14h25z" />
<glyph unicode="u" d="M1032 1047q15 0 12 -15l-155 -882q-9 -48 -28 -70.5t-68 -42.5q-170 -66 -375 -66q-198 0 -276.5 102.5t-45.5 291.5l117 667q6 15 18 15h27q15 0 12 -15l-118 -665q-30 -171 36.5 -257.5t241.5 -86.5q189 0 344 59q32 14 44.5 31.5t17.5 46.5l153 872q3 15 19 15h24z " />
<glyph unicode="v" horiz-adv-x="1003" d="M1036 1047q20 0 8 -17l-618 -1024q-9 -14 -27 -14h-14q-18 0 -23 14l-256 1022q-5 19 15 19h20q13 0 16 -3.5t5 -13.5l209 -825q23 -115 30 -144h2q14 21 43.5 74t38.5 68l498 827q11 17 31 17h22z" />
<glyph unicode="w" horiz-adv-x="1484" d="M1499 1047q19 0 10 -19l-505 -1022q-8 -16 -23 -16h-23q-10 0 -14 3.5t-6 12.5l-119 787q-15 130 -18 143h-2q-25 -55 -72 -143l-399 -787q-4 -8 -7 -11.5t-6 -4t-10 -0.5h-22q-6 0 -8.5 0.5t-5 4t-3.5 11.5l-145 1022q0 19 16 19h21q13 0 16.5 -3.5t3.5 -13.5l109 -780 q14 -141 20 -180h2q9 18 39.5 83.5t48.5 100.5l381 741q5 15 27 15h14q19 0 21 -15l114 -733q5 -36 13.5 -102t11.5 -90h2q32 63 90 190l379 770q7 17 29 17h20z" />
<glyph unicode="x" horiz-adv-x="954" d="M967 1047q21 0 6 -15l-477 -495l319 -523q6 -14 -12 -14h-29q-7 0 -10.5 1.5t-4.5 3l-5 7.5l-295 486l-463 -486q-12 -12 -29 -12h-30q-21 0 -7 14l500 525l-303 493q-7 15 14 15h23q18 0 24 -13l281 -456l436 456q13 13 29 13h33z" />
<glyph unicode="y" horiz-adv-x="1120" d="M1032 1047q15 0 12 -15l-196 -1116q-78 -442 -500 -442q-277 0 -350 239q-9 19 10 25l19 8q15 8 22 -6q32 -102 103.5 -157.5t205.5 -55.5q365 0 435 387l24 141q-137 -48 -222 -63t-175 -15q-199 0 -277 103t-45 293l115 659q6 15 18 15h27q15 0 12 -15l-116 -659 q-30 -172 35 -258t243 -86q183 0 393 80l164 923q3 15 19 15h24z" />
<glyph unicode="z" horiz-adv-x="888" d="M29 51h694q12 0 12 -14l-4 -23q-6 -14 -16 -14h-752q-15 0 -12 14l4 23q3 11 12 20l858 938h-680q-13 0 -10 17l2 20q6 15 19 15h733q15 0 12 -15l-4 -20q0 -9 -12 -25z" />
<glyph unicode="{" horiz-adv-x="600" d="M770 1753q15 0 12 -14l-4 -23q-3 -16 -16 -16h-88q-102 0 -154.5 -49.5t-70.5 -153.5l-95 -530q-35 -195 -174 -242q66 -24 87 -82.5t3 -157.5l-94 -530q-18 -104 17 -153.5t137 -49.5h88q8 0 10 -3t2 -13l-4 -23q-3 -14 -18 -14h-89q-132 0 -177 61t-21 193l92 528 q21 116 -15 166.5t-145 50.5h-22q-13 0 -13 15l7 26q3 15 16 15h22q107 0 162 53.5t74 163.5l92 528q25 132 92 193t199 61h88z" />
<glyph unicode="|" horiz-adv-x="344" d="M385 1753q15 0 12 -14l-356 -2026q-6 -14 -18 -14h-23q-15 0 -12 14l356 2026q3 14 18 14h23z" />
<glyph unicode="}" horiz-adv-x="600" d="M319 1753q131 0 177 -61.5t22 -192.5l-92 -528q-21 -109 16 -163t144 -54h22q16 0 10 -15l-4 -26q0 -15 -16 -15h-25q-107 0 -160.5 -52.5t-74.5 -164.5l-92 -528q-24 -132 -90.5 -193t-198.5 -61h-88q-15 0 -12 14l4 23q0 16 18 16h88q101 0 152.5 49t70.5 154l93 530 q38 199 176 244q-64 25 -85.5 83t-4.5 155l92 530q19 104 -15.5 153.5t-136.5 49.5h-86q-9 0 -11.5 3.5t-2.5 12.5l4 23q3 14 18 14h88z" />
<glyph unicode="~" horiz-adv-x="1150" d="M143 629q65 52 123 77t129 25q68 0 131 -23.5t123 -47t121 -23.5q109 0 219 88q14 9 23 -2l14 -14q10 -13 -4 -23q-67 -51 -126 -76.5t-130 -25.5q-68 0 -131 23.5t-123 47t-121 23.5t-110.5 -21.5t-106.5 -66.5q-14 -11 -22 0l-13 16q-11 11 4 23z" />
<glyph unicode="&#xa1;" horiz-adv-x="339" d="M223 958q-23 0 -29 8.5t-1 32.5v9q4 23 15 32t34 9h8q24 0 30.5 -8.5t2.5 -32.5v-9q-4 -23 -15.5 -32t-34.5 -9h-10zM-41 -475q-9 0 -11 2.5t-1 11.5l219 1198q6 17 18 17h15q15 0 12 -17l-203 -1198q0 -14 -18 -14h-31z" />
<glyph unicode="&#xa2;" horiz-adv-x="1083" d="M911 293q12 -6 4 -21q-67 -145 -177.5 -220t-274.5 -79l-23 -131q-6 -14 -18 -14h-29q-16 0 -10 14l23 129q-190 7 -274.5 115.5t-53.5 286.5l57 321q31 176 149 275t314 106l29 160q3 14 18 14h29q13 0 10 -14l-29 -160q171 -6 250.5 -77.5t93.5 -204.5q0 -17 -12 -23 l-22 -6q-15 -7 -21 8q-15 133 -89 192.5t-237 59.5q-181 0 -291.5 -89.5t-138.5 -248.5l-57 -324q-28 -158 52 -248.5t259 -90.5q157 0 258.5 65t163.5 201q8 15 23 10z" />
<glyph unicode="&#xa3;" horiz-adv-x="1280" d="M412 1124q26 161 145.5 260t329.5 99q166 0 258.5 -74t120.5 -246q2 -14 -15 -20l-20 -10q-11 -3 -15 -0.5t-6 12.5q-28 158 -106.5 220t-226.5 62q-181 0 -281 -84t-123 -223l-72 -399h592q18 0 13 -16l-2 -21q-3 -16 -19 -16h-594l-67 -389q-25 -148 -142 -224v-2 q32 0 106 1t115 1h658q9 0 11.5 -3.5t2.5 -12.5l-4 -23q-5 -16 -20 -16h-1055q-17 0 -12 16l4 25q0 14 14 14h51q58 1 105 38.5t70.5 85.5t33.5 100l68 389h-189q-16 0 -16 16l4 21q5 16 21 16h190z" />
<glyph unicode="&#xa4;" horiz-adv-x="1206" d="M367 1036q153 117 325 117q171 0 289 -115l139 119q12 9 23 0l14 -18q9 -12 -4 -23l-139 -117q96 -134 67 -311q-29 -172 -168 -307l97 -115q9 -11 -2 -22l-23 -19q-11 -9 -20 0l-99 117q-151 -119 -327 -119q-173 0 -287 117l-141 -119q-11 -11 -23 0l-12 17 q-10 10 2 22l143 121q-98 132 -69 307q30 176 170 307l-97 117q-11 10 2 23l21 18q14 11 22 0zM1026 690q31 171 -67.5 289.5t-270.5 118.5q-170 0 -309 -118t-170 -290q-29 -171 68.5 -291t267.5 -120q113 0 217 55t174.5 149.5t89.5 206.5z" />
<glyph unicode="&#xa5;" horiz-adv-x="1288" d="M1348 1454q9 0 11 -5t-3 -11l-654 -758h330q8 0 10 -3t2 -11l-4 -19q-3 -14 -18 -14h-354l-43 -244h356q12 0 12 -14l-4 -19q0 -14 -18 -14h-355l-57 -326q-3 -16 -18 -16h-29q-15 0 -12 16l55 326h-358q-13 0 -13 14l4 19q3 14 19 14h358l43 244h-360q-16 0 -10 14l2 19 q3 14 18 14h334l-385 758q-3 6 0 11t12 5h29q14 0 19 -2.5t9 -11.5l371 -740l635 740q9 14 31 14h35z" />
<glyph unicode="&#xa6;" horiz-adv-x="368" d="M397 1753q16 0 13 -14l-148 -842q-3 -14 -18 -14h-23q-15 0 -12 14l147 842q6 14 19 14h22zM186 571q18 0 15 -14l-150 -842q-3 -14 -18 -14h-23q-16 0 -10 14l147 842q3 14 17 14h22z" />
<glyph unicode="&#xa7;" horiz-adv-x="1200" d="M223 1159q29 158 156.5 248t361.5 90q364 0 428 -340q5 -14 -14 -20l-20 -11q-12 -4 -16 -1.5t-7 12.5q-58 303 -379 303q-205 0 -314 -77.5t-134 -213.5q-13 -71 4 -122.5t45.5 -80t92 -48.5t106.5 -26.5t126 -15.5q76 -8 132.5 -19t116.5 -35.5t95 -60t52 -93t4 -132.5 q-12 -67 -45 -124t-77 -95.5t-80.5 -62t-76.5 -41.5q229 -69 183 -314q-26 -158 -160.5 -249t-374.5 -91q-386 0 -444 359q-2 15 14 20l27 8q7 2 10 2t5 -2.5t3 -9.5q28 -163 123.5 -241t267.5 -78q210 0 328 78.5t141 211.5q9 53 4.5 93t-22.5 69t-44.5 49.5t-62 34 t-75.5 22t-85 14t-89 10.5q-9 1 -13 1q-82 8 -137.5 17.5t-119.5 33t-98.5 58t-52.5 93.5t-4 138q10 59 36.5 109.5t57.5 84t72 61.5t72.5 43.5t65.5 27.5q-229 67 -185 313zM639 801q-112 12 -164 22q-25 -7 -49 -15.5t-70 -33t-81 -55.5t-67.5 -83.5t-43.5 -115.5 q-12 -66 4 -115t45.5 -77t88 -48t106 -28t124.5 -16q105 -7 179 -23q23 9 44.5 19t64 37.5t74.5 58.5t62.5 81t40.5 107q11 64 -5 112.5t-47.5 78t-84.5 50t-103.5 29.5t-117.5 15z" />
<glyph unicode="&#xa8;" horiz-adv-x="899" d="M403 1370q21 0 26 -6.5t3 -26.5l-2 -14q-5 -21 -12.5 -27t-28.5 -6h-12q-19 0 -25 6.5t-2 26.5l2 14q3 19 11.5 26t27.5 7h12zM791 1370q19 0 25.5 -7t4.5 -26l-4 -14q-3 -19 -12 -26t-29 -7h-10q-22 0 -27.5 6.5t-1.5 26.5l2 14q3 19 11.5 26t29.5 7h11z" />
<glyph unicode="&#xa9;" horiz-adv-x="1667" d="M119 719q35 206 161 374.5t311.5 264.5t389.5 96q203 0 354.5 -96t218.5 -264.5t31 -374.5q-36 -204 -162 -372.5t-310.5 -265.5t-387.5 -97q-153 0 -280 57t-207.5 155t-113 234t-5.5 289zM1542 719q34 193 -28.5 352t-204 249.5t-332.5 90.5q-193 0 -367.5 -90.5 t-294 -249t-153.5 -352.5q-34 -192 29 -350.5t206 -250t336 -91.5q143 0 280 54t244.5 146t183.5 220.5t101 271.5zM543 840q25 138 121 214t254 76q138 0 202.5 -54.5t75.5 -157.5q2 -14 -8 -19l-21 -6q-16 -5 -16 6q-12 102 -65.5 144t-178.5 42q-272 0 -317 -251 l-45 -248q-21 -121 37 -187.5t194 -66.5q120 0 192.5 47t118.5 151q11 14 23 9l16 -4q12 -6 7 -19q-53 -116 -141 -171.5t-224 -55.5q-154 0 -223.5 81t-44.5 220z" />
<glyph unicode="&#xaa;" horiz-adv-x="761" d="M248 1249q108 123 268 123q135 0 180 -67t23 -193l-41 -246q-7 -45 -26 -66.5t-64 -41.5q-73 -31 -199 -31q-136 0 -187.5 44t-37.5 130q16 90 85 137t208 47q37 0 74 -1.5t59 -3.5t45.5 -4.5t28.5 -2.5l8 47q18 103 -17.5 155t-146.5 52q-137 0 -225 -104 q-10 -10 -19 -4l-14 8q-13 8 -2 22zM657 1032q-81 12 -208 12q-117 0 -171 -38.5t-65 -108.5q-11 -63 32 -95t150 -32q95 0 174 27q31 11 43.5 25.5t16.5 49.5z" />
<glyph unicode="&#xab;" d="M467 133q11 -11 -4 -20l-14 -11q-16 -10 -23 0l-352 426q-10 10 4 19l502 430q13 10 20 0l14 -23q7 -11 -6 -22l-469 -400zM922 133q11 -11 -4 -20l-15 -11q-15 -9 -22 0l-353 426q-10 10 4 19l502 430q16 10 23 0l12 -23q7 -11 -6 -22l-469 -400z" />
<glyph unicode="&#xac;" horiz-adv-x="1173" d="M1044 760q15 0 15 -15l-80 -444q-3 -14 -16 -14h-27q-17 0 -14 14l71 406h-815q-15 0 -12 14l4 24q3 15 18 15h856z" />
<glyph unicode="&#xad;" horiz-adv-x="878" d="M721 571q17 0 12 -16l-2 -23q-3 -16 -18 -16h-578q-17 0 -14 16l2 23q5 16 20 16h578z" />
<glyph unicode="&#xae;" horiz-adv-x="1005" d="M180 1057q28 167 159.5 282t307.5 115q107 0 189 -53.5t119.5 -145t19.5 -198.5q-28 -168 -156.5 -283t-304.5 -115q-108 0 -191.5 53.5t-122 145t-20.5 199.5zM219 1057q-28 -151 59.5 -258t239.5 -107q163 0 280 105t144 260q28 150 -58.5 256t-236.5 106 q-165 0 -283 -103.5t-145 -258.5zM649 1270q66 0 97.5 -35.5t21.5 -99.5q-9 -52 -41 -85t-82 -42l60 -150q7 -14 -9 -14h-12q-9 0 -11 1t-5 7l-58 152h-161l-29 -152q0 -8 -10 -8h-19q-8 0 -8 8l72 399q3 19 20 19h174zM487 1235l-34 -197h155q50 0 83 25t42 74 q7 47 -17 72.5t-75 25.5h-154z" />
<glyph unicode="&#xaf;" horiz-adv-x="720" d="M745 1352q16 0 13 -17l-2 -14q-5 -16 -19 -16h-489q-15 0 -12 16l4 14q0 17 16 17h489z" />
<glyph unicode="&#xb0;" horiz-adv-x="772" d="M764 1130q-20 -117 -119.5 -200.5t-218.5 -83.5q-121 0 -192.5 88.5t-49.5 210.5q22 121 118.5 200.5t217.5 79.5q120 0 192 -86t52 -209zM233 1137q-17 -100 41 -170t158 -70q97 0 180.5 71.5t100.5 168.5q17 100 -40 168.5t-157 68.5t-182 -68.5t-101 -168.5z" />
<glyph unicode="&#xb1;" horiz-adv-x="1370" d="M1196 836q18 0 12 -15l-2 -20q-3 -17 -18 -17h-438l-54 -288q-3 -17 -18 -17h-21q-17 0 -14 17l53 288h-442q-17 0 -14 17l2 20q6 15 20 15h443l51 297q5 16 20 16h21q15 0 12 -16l-51 -297h438zM1108 336q18 0 12 -14l-2 -21q-3 -16 -18 -16h-934q-17 0 -14 16l2 21 q6 14 20 14h934z" />
<glyph unicode="&#xb2;" horiz-adv-x="702" d="M227 1440l6 14q6 13 13.5 28.5t22.5 38t32 42.5t43 41t55 36.5t68.5 25t83.5 9.5q129 0 187 -67t40 -172q-4 -24 -12.5 -44.5t-16.5 -37t-23.5 -32l-25.5 -25.5t-31.5 -22t-32 -18t-37.5 -16t-36.5 -13.5t-39.5 -13t-38 -12.5l-137 -47q-135 -51 -158 -184l-14 -78h483 q17 0 17 -14l-4 -19q-3 -14 -21 -14h-510q-21 0 -18 20l18 95q15 90 62 146t133 87l137 49q12 4 48 16.5t49.5 18t42.5 18t42 24t30.5 29t27 40t14.5 49.5q16 86 -30 137t-152 51q-55 0 -103 -19.5t-75 -43t-50.5 -58t-29.5 -47.5t-12 -29l-1 -2q-7 -14 -22 -12l-16 4 q-20 3 -9 21z" />
<glyph unicode="&#xb3;" horiz-adv-x="729" d="M221 1444q55 121 137.5 176t208.5 55q117 0 172 -64.5t37 -168.5q-21 -132 -137 -180q55 -28 79.5 -81.5t12.5 -123.5q-18 -105 -97 -166.5t-212 -61.5q-131 0 -194.5 57t-75.5 171q-5 16 12 22l18 6q17 3 19 -14q12 -104 63 -149t164 -45q108 0 174 50t80 134 q12 73 -22 124.5t-105 51.5h-160q-9 0 -11.5 2.5t-2.5 11.5l4 17q3 9 6 11.5t12 2.5h156q70 0 113.5 47t56.5 115q14 83 -30 133.5t-138 50.5q-106 0 -176.5 -47.5t-116.5 -150.5q-8 -18 -26 -13l-15 4q-13 7 -6 23z" />
<glyph unicode="&#xb4;" horiz-adv-x="526" d="M594 1477q19 13 31 -2l10 -15q12 -12 -8 -20l-404 -223q-15 -5 -22 2l-8 12q-9 11 6 20z" />
<glyph unicode="&#xb5;" horiz-adv-x="1101" d="M1028 1047q15 0 12 -15l-155 -885q-9 -46 -29 -68.5t-68 -43.5q-168 -66 -362 -66q-133 0 -211 53.5t-100 151.5l-107 -610q-6 -15 -20 -15h-27q-13 0 -10 15l258 1468q6 15 18 15h27q16 0 10 -15l-117 -667q-60 -345 279 -345q184 0 342 62q32 14 44 30.5t19 45.5 l154 874q3 15 19 15h24z" />
<glyph unicode="&#xb6;" horiz-adv-x="649" d="M616 1454q15 0 15 -14l-285 -1608q-3 -14 -18 -14h-25q-15 0 -12 14l274 1563h-104l-275 -1563q-3 -14 -18 -14h-25q-13 0 -10 14l229 1305q-69 0 -105 44.5t-24 114.5q12 72 64.5 115t126.5 43h192z" />
<glyph unicode="&#xb7;" horiz-adv-x="368" d="M184 586q23 0 29.5 -8.5t3.5 -32.5l-2 -10q-4 -23 -14.5 -31t-34.5 -8h-10q-24 0 -30.5 7.5t-0.5 31.5l2 10q4 23 15 32t34 9h8z" />
<glyph unicode="&#xb8;" horiz-adv-x="514" d="M197 0l-95 -180q33 10 74 10q85 0 125.5 -39t28.5 -108q-17 -89 -84.5 -138t-167.5 -49q-102 0 -168 49q-15 7 -12 27l4 18q4 15 12 7q64 -60 166 -60q81 0 135 39.5t66 110.5q9 53 -26 80.5t-105 27.5q-50 0 -87 -12q-13 -4 -16.5 2t4.5 20l105 195h41z" />
<glyph unicode="&#xb9;" horiz-adv-x="530" d="M573 1659q18 0 15 -17l-137 -780q-3 -16 -19 -16h-18q-16 0 -13 16l129 731l-317 -159q-18 -7 -23 6l-4 14q-5 14 11 23l344 176q12 6 24 6h8z" />
<glyph unicode="&#xba;" horiz-adv-x="772" d="M207 1141q19 111 97.5 171t209.5 60q130 0 188 -67.5t37 -180.5l-28 -161q-20 -114 -99 -174t-211 -60q-130 0 -188.5 67t-36.5 183zM692 1133q15 91 -32 141.5t-154 50.5q-105 0 -171 -51t-81 -141l-31 -164q-15 -92 32.5 -142.5t152.5 -50.5q108 0 173.5 50.5 t80.5 142.5z" />
<glyph unicode="&#xbb;" horiz-adv-x="1118" d="M168 942q-10 12 4 23l18 12q15 12 21 0l354 -430q7 -11 -4 -19l-500 -426q-15 -10 -22 0l-16 21q-6 12 4 20l469 400zM623 942q-9 14 6 23l18 12q13 10 21 0l352 -430q9 -9 -4 -19l-498 -426q-14 -10 -24 0l-15 21q-9 12 2 20l469 400z" />
<glyph unicode="&#xbc;" horiz-adv-x="1665" d="M567 1473q18 0 15 -17l-138 -780q-3 -17 -18 -17h-18q-16 0 -13 17l129 731l-317 -160q-18 -7 -23 6l-4 15q-4 13 10 22l345 176q14 7 24 7h8zM1423 1454q23 0 11 -18l-1045 -1420q-11 -16 -35 -16h-22q-20 0 -8 18l1044 1420q11 16 31 16h24zM1524 287q15 0 12 -15 l-2 -14q-1 -10 -5 -13t-13 -3h-117l-39 -228q-6 -14 -19 -14h-20q-16 0 -10 14l39 228h-424q-9 0 -12 2.5t-3 11.5l2 12q8 20 11 23l508 510q12 12 28 12h23q10 0 13 -3.5t1 -12.5l-90 -510h117zM1358 287l82 461l-461 -461h379z" />
<glyph unicode="&#xbd;" horiz-adv-x="1814" d="M567 1473q18 0 15 -17l-138 -780q-3 -17 -18 -17h-18q-16 0 -13 17l129 731l-317 -160q-18 -7 -23 6l-4 15q-4 13 10 22l345 176q14 7 24 7h8zM1427 1454q23 0 11 -18l-1045 -1420q-11 -16 -35 -16h-22q-20 0 -8 18l1044 1420q11 16 31 16h24zM1169 594l6 14 q6 13 13.5 28.5t22.5 38t32 42.5t43 41t55 36.5t68.5 25t83.5 9.5q129 0 187 -67t40 -172q-4 -24 -12.5 -44.5t-16.5 -37t-23.5 -32l-25.5 -25.5t-31.5 -22t-32 -18t-37.5 -16t-36.5 -13.5t-39.5 -13t-38 -12.5l-137 -47q-134 -50 -157 -184l-15 -78h484q10 0 13 -3t3 -11 l-4 -19q-3 -14 -21 -14h-510q-21 0 -18 20l18 95q15 90 62 146t133 87l137 49q12 4 48 16.5t49.5 18t42.5 18t42 24t30.5 29t27 40t14.5 49.5q16 86 -30 137t-152 51q-40 0 -76.5 -10.5t-61.5 -24.5t-48.5 -36.5t-35.5 -38t-25 -39.5t-15 -29.5t-7 -17.5l-1 -2 q-8 -16 -23 -13l-16 4q-20 3 -9 21z" />
<glyph unicode="&#xbe;" horiz-adv-x="1779" d="M205 1257q56 122 138 177t208 55q117 0 172 -65t37 -169q-21 -132 -137 -180q55 -28 79.5 -81.5t12.5 -123.5q-18 -105 -97 -166t-212 -61q-131 0 -195 56.5t-76 170.5q-5 17 12 23l19 6q16 3 18 -14q12 -104 63.5 -149.5t164.5 -45.5q108 0 174 50t80 134 q13 73 -21.5 125t-105.5 52h-160q-9 0 -11.5 2.5t-2.5 11.5l4 16q3 9 6 12t12 3h156q70 0 113.5 46.5t56.5 114.5q14 83 -30.5 134t-137.5 51q-106 0 -176.5 -48t-116.5 -151q-8 -18 -27 -12l-14 4q-13 6 -6 22zM1544 1454q22 0 10 -18l-1044 -1420q-11 -16 -35 -16h-22 q-21 0 -9 18l1045 1420q11 16 31 16h24zM1640 287q16 0 13 -15l-2 -14q-2 -16 -19 -16h-116l-39 -228q-6 -14 -19 -14h-20q-17 0 -11 14l39 228h-424q-9 0 -11.5 2.5t-2.5 11.5l2 12q9 22 10 23l508 510q12 12 29 12h22q10 0 13.5 -3.5t1.5 -12.5l-90 -510h116zM1475 287 l81 461l-460 -461h379z" />
<glyph unicode="&#xbf;" horiz-adv-x="1118" d="M666 958q-23 0 -30.5 9t-2.5 32v11q4 23 14.5 31t34.5 8h10q24 0 29.5 -7.5t1.5 -31.5v-11q-4 -23 -15 -32t-34 -9h-8zM922 -137q-187 -338 -562 -338q-219 0 -328 121.5t-77 300.5q10 56 28.5 106.5t38 87.5t51.5 74t55.5 60t64.5 52.5t63 43.5t66 41q37 22 55 33.5 t50.5 34t50.5 39.5t43 44t39.5 54t28.5 63t21 76q3 10 6 13t11 3h22q9 0 12 -3t3 -13q-11 -63 -36 -116.5t-51 -88.5t-70.5 -72.5t-74.5 -57t-84 -52.5q-59 -36 -87.5 -55t-78 -60.5t-76.5 -79t-53.5 -97.5t-38.5 -130q-29 -158 63 -262.5t285 -104.5q178 0 304.5 80.5 t203.5 220.5q12 15 23 10l22 -8q14 -8 7 -20z" />
<glyph unicode="&#xc0;" horiz-adv-x="1280" d="M655 1808q14 14 33 2l322 -217q6 -5 6.5 -8t-6.5 -12l-9 -8q-11 -11 -22 -2l-336 211q-9 4 -9 8.5t9 13.5zM1151 16q0 -16 -16 -16h-21q-24 0 -27 14l-112 494h-705l-284 -494q-11 -14 -33 -14h-25q-20 0 -10 16l832 1432q11 16 26 16h25q19 0 22 -14zM967 559l-183 789 q-4 46 -4 55h-2q-13 -39 -20 -55l-459 -789h668z" />
<glyph unicode="&#xc1;" horiz-adv-x="1280" d="M1012 1829q20 10 30 -2l11 -15q12 -14 -6 -22l-406 -221q-16 -8 -23 2l-8 12q-8 11 6 19zM1151 16q0 -16 -16 -16h-21q-24 0 -27 14l-112 494h-705l-284 -494q-11 -14 -33 -14h-25q-20 0 -10 16l832 1432q11 16 26 16h25q19 0 22 -14zM967 559l-183 789q-4 46 -4 55h-2 q-13 -39 -20 -55l-459 -789h668z" />
<glyph unicode="&#xc2;" horiz-adv-x="1280" d="M860 1833q11 0 16.5 -2.5t16.5 -13.5l244 -236q7 -14 -13 -14h-22q-20 0 -27 10l-223 211l-297 -211q-12 -10 -31 -10h-30q-25 0 -7 14l328 236q18 16 35 16h10zM1151 16q0 -16 -16 -16h-21q-24 0 -27 14l-112 494h-705l-284 -494q-11 -14 -33 -14h-25q-20 0 -10 16 l832 1432q11 16 26 16h25q19 0 22 -14zM967 559l-183 789q-4 46 -4 55h-2q-13 -39 -20 -55l-459 -789h668z" />
<glyph unicode="&#xc3;" horiz-adv-x="1280" d="M1149 1784q11 0 8 -12q-14 -86 -60 -135.5t-120 -49.5q-41 0 -75 16t-58.5 38.5t-48.5 45t-55 38.5t-66 16q-52 0 -88 -39.5t-45 -102.5q-5 -12 -17 -12h-18q-8 0 -9.5 2.5t-0.5 9.5q15 86 62.5 135.5t119.5 49.5q42 0 77 -16t59.5 -39t48 -46t53.5 -39t65 -16 q53 0 87.5 39.5t45.5 104.5q3 12 14 12h21zM1151 16q0 -16 -16 -16h-21q-24 0 -27 14l-112 494h-705l-284 -494q-11 -14 -33 -14h-25q-20 0 -10 16l832 1432q11 16 26 16h25q19 0 22 -14zM967 559l-183 789q-4 46 -4 55h-2q-13 -39 -20 -55l-459 -789h668z" />
<glyph unicode="&#xc4;" horiz-adv-x="1280" d="M647 1731q21 0 26 -6.5t3 -26.5l-2 -12q-5 -21 -12.5 -28t-28.5 -7h-12q-19 0 -25 7.5t-2 27.5l2 12q3 19 11.5 26t27.5 7h12zM1034 1731q19 0 25.5 -7t5.5 -26l-4 -12q-3 -20 -12.5 -27.5t-28.5 -7.5h-10q-22 0 -28 7.5t-1 27.5l2 12q3 19 11.5 26t29.5 7h10zM1151 16 q0 -16 -16 -16h-21q-24 0 -27 14l-112 494h-705l-284 -494q-11 -14 -33 -14h-25q-20 0 -10 16l832 1432q11 16 26 16h25q19 0 22 -14zM967 559l-183 789q-4 46 -4 55h-2q-13 -39 -20 -55l-459 -789h668z" />
<glyph unicode="&#xc5;" horiz-adv-x="1280" d="M612 1624q17 90 80.5 140.5t157.5 50.5q90 0 133.5 -53.5t28.5 -143.5q-13 -77 -63 -125t-124 -57l326 -1420q0 -16 -16 -16h-21q-24 0 -27 14l-112 494h-705l-284 -494q-11 -14 -33 -14h-25q-20 0 -10 16l823 1418q-73 10 -107 61t-22 129zM971 1620q13 72 -22 114 t-107 42q-76 0 -126.5 -41t-62.5 -115q-12 -71 23.5 -112.5t109.5 -41.5q72 0 122.5 42t62.5 112zM784 1348q-4 46 -4 55h-2q-13 -39 -20 -55l-459 -789h668z" />
<glyph unicode="&#xc6;" horiz-adv-x="1654" d="M1462 55q15 0 15 -16l-4 -23q-5 -16 -21 -16h-668q-17 0 -12 16l68 383h-578l-299 -385q-14 -14 -33 -14h-26q-20 0 -10 16l1107 1422q14 16 27 16h651q18 0 15 -16l-6 -23q-3 -16 -19 -16h-596l-110 -635h507q16 0 13 -16l-4 -25q-3 -16 -19 -16h-510l-112 -652h624z M846 453l164 909l-709 -909h545z" />
<glyph unicode="&#xc7;" horiz-adv-x="1294" d="M821 1483q233 0 342 -89t127 -272q5 -16 -12 -22l-23 -6q-9 -3 -13 -1t-5 11q-21 169 -116.5 246t-305.5 77q-237 0 -381 -116.5t-180 -323.5l-90 -512q-37 -211 67 -327.5t338 -116.5q214 0 338 80t205 251q6 17 23 11l22 -8q17 -6 8 -23q-42 -91 -89 -154.5 t-113.5 -113t-157 -75t-207.5 -28.5l-84 -153q40 8 76 8q84 0 123.5 -39.5t27.5 -108.5q-17 -88 -84.5 -137t-167.5 -49q-101 0 -167 49q-14 8 -11 27l2 18q2 6 6 8t7 -2q63 -59 168 -59q80 0 133.5 40t66.5 110q7 53 -27.5 80.5t-105.5 27.5q-49 0 -84 -12q-15 -4 -18.5 2 t4.5 20l92 170q-256 3 -374.5 136.5t-78.5 365.5l91 512q42 236 202.5 367t425.5 131z" />
<glyph unicode="&#xc8;" horiz-adv-x="1161" d="M627 1808q14 14 32 2l322 -217q6 -5 6.5 -8t-6.5 -12l-8 -8q-11 -11 -23 -2l-336 211q-9 4 -9 8.5t9 13.5zM1180 1454q17 0 14 -16l-6 -23q-3 -16 -19 -16h-796l-113 -633h711q17 0 12 -16l-4 -25q-3 -16 -18 -16h-711l-115 -654h828q9 0 11.5 -3.5t2.5 -12.5l-4 -23 q-5 -16 -21 -16h-870q-17 0 -14 16l251 1422q3 16 19 16h842z" />
<glyph unicode="&#xc9;" horiz-adv-x="1161" d="M983 1829q21 11 31 -2l10 -15q12 -14 -6 -22l-406 -221q-15 -7 -22 2l-8 12q-8 11 6 19zM1180 1454q17 0 14 -16l-6 -23q-3 -16 -19 -16h-796l-113 -633h711q17 0 12 -16l-4 -25q-3 -16 -18 -16h-711l-115 -654h828q9 0 11.5 -3.5t2.5 -12.5l-4 -23q-5 -16 -21 -16h-870 q-17 0 -14 16l251 1422q3 16 19 16h842z" />
<glyph unicode="&#xca;" horiz-adv-x="1161" d="M831 1833q11 0 16.5 -2.5t16.5 -13.5l244 -236q7 -14 -12 -14h-23q-19 0 -26 10l-224 211l-297 -211q-12 -10 -30 -10h-31q-23 0 -6 14l327 236q18 16 35 16h10zM1180 1454q17 0 14 -16l-6 -23q-3 -16 -19 -16h-796l-113 -633h711q17 0 12 -16l-4 -25q-3 -16 -18 -16 h-711l-115 -654h828q9 0 11.5 -3.5t2.5 -12.5l-4 -23q-5 -16 -21 -16h-870q-17 0 -14 16l251 1422q3 16 19 16h842z" />
<glyph unicode="&#xcb;" horiz-adv-x="1161" d="M621 1731q21 0 25.5 -6.5t2.5 -26.5l-2 -12q-5 -21 -12.5 -28t-28.5 -7h-12q-19 0 -25 7.5t-2 27.5l2 12q3 19 11.5 26t27.5 7h13zM1008 1731q19 0 25.5 -7t4.5 -26l-4 -12q-3 -20 -12.5 -27.5t-28.5 -7.5h-10q-22 0 -28 7.5t-1 27.5l2 12q3 19 11.5 26t29.5 7h11z M1180 1454q17 0 14 -16l-6 -23q-3 -16 -19 -16h-796l-113 -633h711q17 0 12 -16l-4 -25q-3 -16 -18 -16h-711l-115 -654h828q9 0 11.5 -3.5t2.5 -12.5l-4 -23q-5 -16 -21 -16h-870q-17 0 -14 16l251 1422q3 16 19 16h842z" />
<glyph unicode="&#xcc;" horiz-adv-x="411" d="M217 1808q14 14 33 2l321 -217q6 -5 6.5 -8t-6.5 -12l-8 -8q-11 -11 -22 -2l-336 211q-9 4 -9 8.5t9 13.5zM319 1438q3 16 19 16h27q17 0 14 -16l-250 -1422q-5 -16 -20 -16h-27q-17 0 -14 16z" />
<glyph unicode="&#xcd;" horiz-adv-x="411" d="M575 1829q21 11 31 -2l10 -15q12 -14 -6 -22l-405 -221q-16 -8 -23 2l-8 12q-8 11 6 19zM319 1438q3 16 19 16h27q17 0 14 -16l-250 -1422q-5 -16 -20 -16h-27q-17 0 -14 16z" />
<glyph unicode="&#xce;" horiz-adv-x="411" d="M422 1833q11 0 16.5 -2.5t16.5 -13.5l243 -236q7 -14 -12 -14h-22q-20 0 -27 10l-223 211l-297 -211q-12 -10 -31 -10h-31q-23 0 -6 14l328 236q18 16 35 16h10zM319 1438q3 16 19 16h27q17 0 14 -16l-250 -1422q-5 -16 -20 -16h-27q-17 0 -14 16z" />
<glyph unicode="&#xcf;" horiz-adv-x="411" d="M211 1731q21 0 26 -6.5t3 -26.5l-2 -12q-5 -21 -12.5 -28t-28.5 -7h-13q-19 0 -24.5 7.5t-1.5 27.5l2 12q3 19 11.5 26t27.5 7h12zM598 1731q19 0 25.5 -7t5.5 -26l-4 -12q-3 -20 -12.5 -27.5t-28.5 -7.5h-11q-21 0 -27 7t-1 28l2 12q3 19 11.5 26t29.5 7h10zM319 1438 q3 16 19 16h27q17 0 14 -16l-250 -1422q-5 -16 -20 -16h-27q-17 0 -14 16z" />
<glyph unicode="&#xd0;" horiz-adv-x="1331" d="M764 1454q283 0 413 -146.5t85 -400.5l-66 -372q-45 -253 -224 -394t-464 -141h-412q-17 0 -12 16l121 689h-174q-18 0 -15 14l4 18q3 15 19 15h174l121 686q3 16 18 16h412zM1202 913q40 230 -74.5 358t-371.5 128h-369l-113 -647h418q16 0 13 -15l-5 -18 q-3 -14 -16 -14h-420l-112 -650h366q256 0 417.5 128.5t201.5 357.5z" />
<glyph unicode="&#xd1;" horiz-adv-x="1406" d="M1210 1784q12 0 9 -12q-14 -86 -60.5 -135.5t-120.5 -49.5q-41 0 -75 16t-58.5 38.5t-48.5 45t-55 38.5t-66 16q-52 0 -88 -39.5t-45 -102.5q-5 -12 -16 -12h-19q-8 0 -9.5 2.5t-0.5 9.5q15 86 62.5 135.5t119.5 49.5q42 0 77 -16t59.5 -39t48 -46t53.5 -39t65 -16 q53 0 88 40t46 104q3 12 14 12h20zM1360 1454q17 0 14 -16l-250 -1422q-5 -16 -20 -16h-27q-11 0 -18 12l-576 1098q-21 40 -61 127t-60 123h-4q-9 -51 -26 -167.5t-23 -154.5l-180 -1022q-5 -16 -20 -16h-27q-17 0 -14 16l251 1422q3 16 19 16h20q16 0 21 -10l561 -1067 q30 -57 78.5 -155.5t62.5 -125.5h4q8 47 26 168.5t30 190.5l174 985q3 14 18 14h27z" />
<glyph unicode="&#xd2;" horiz-adv-x="1353" d="M698 1829q14 14 33 2l322 -217q11 -8 0 -21l-9 -8q-11 -11 -22 -2l-336 211q-9 4 -9 9t9 14zM197 989q42 236 204 365t426 129q262 0 381.5 -136.5t77.5 -371.5l-90 -512q-42 -234 -203 -363t-422 -129q-265 0 -386 136t-79 372zM1227 981q37 209 -67.5 327.5 t-336.5 118.5q-238 0 -383 -116t-182 -330l-90 -508q-37 -210 67.5 -328t339.5 -118q233 0 379 118t183 328z" />
<glyph unicode="&#xd3;" horiz-adv-x="1353" d="M1055 1849q20 10 30 -2l11 -14q12 -15 -6 -23l-406 -221q-15 -7 -22 2l-9 13q-7 10 6 18zM197 989q42 236 204 365t426 129q262 0 381.5 -136.5t77.5 -371.5l-90 -512q-42 -234 -203 -363t-422 -129q-265 0 -386 136t-79 372zM1227 981q37 209 -67.5 327.5t-336.5 118.5 q-238 0 -383 -116t-182 -330l-90 -508q-37 -210 67.5 -328t339.5 -118q233 0 379 118t183 328z" />
<glyph unicode="&#xd4;" horiz-adv-x="1353" d="M903 1853q11 0 16.5 -2.5t16.5 -13.5l244 -235q8 -15 -13 -15h-22q-19 0 -27 10l-223 211l-297 -211q-12 -10 -31 -10h-30q-12 0 -13.5 4.5t6.5 10.5l328 235q18 16 35 16h10zM197 989q42 236 204 365t426 129q262 0 381.5 -136.5t77.5 -371.5l-90 -512 q-42 -234 -203 -363t-422 -129q-265 0 -386 136t-79 372zM1227 981q37 209 -67.5 327.5t-336.5 118.5q-238 0 -383 -116t-182 -330l-90 -508q-37 -210 67.5 -328t339.5 -118q233 0 379 118t183 328z" />
<glyph unicode="&#xd5;" horiz-adv-x="1353" d="M1192 1804q11 0 8 -12q-14 -86 -60 -135t-120 -49q-41 0 -75 16t-58.5 38t-48.5 44.5t-55 38.5t-66 16q-52 0 -88 -39t-45 -102q-5 -12 -17 -12h-18q-8 0 -9.5 2.5t-0.5 9.5q15 86 62.5 135t119.5 49q42 0 77 -16t59.5 -39t48 -45.5t53.5 -38.5t65 -16q53 0 87.5 39.5 t45.5 103.5q3 12 14 12h21zM197 989q42 236 204 365t426 129q262 0 381.5 -136.5t77.5 -371.5l-90 -512q-42 -234 -203 -363t-422 -129q-265 0 -386 136t-79 372zM1227 981q37 209 -67.5 327.5t-336.5 118.5q-238 0 -383 -116t-182 -330l-90 -508q-37 -210 67.5 -328 t339.5 -118q233 0 379 118t183 328z" />
<glyph unicode="&#xd6;" horiz-adv-x="1353" d="M692 1751q21 0 26 -6.5t3 -26.5l-2 -12q-5 -21 -12.5 -28t-28.5 -7h-12q-19 0 -25 7.5t-2 27.5l2 12q3 19 11.5 26t27.5 7h12zM1079 1751q19 0 25.5 -7t5.5 -26l-4 -12q-3 -20 -12.5 -27.5t-28.5 -7.5h-10q-22 0 -28 7.5t-1 27.5l2 12q3 19 11.5 26t29.5 7h10zM197 989 q42 236 204 365t426 129q262 0 381.5 -136.5t77.5 -371.5l-90 -512q-42 -234 -203 -363t-422 -129q-265 0 -386 136t-79 372zM1227 981q37 209 -67.5 327.5t-336.5 118.5q-238 0 -383 -116t-182 -330l-90 -508q-37 -210 67.5 -328t339.5 -118q233 0 379 118t183 328z" />
<glyph unicode="&#xd7;" horiz-adv-x="1026" d="M836 324q9 -15 -5 -25l-12 -10q-14 -10 -24 0l-279 340l-397 -340q-13 -10 -25 0l-8 14q-14 11 2 25l397 338l-278 335q-8 13 6 25l10 10q16 16 25 0l278 -336l398 336q9 8 13.5 8t10.5 -8l10 -12q10 -13 -4 -25l-397 -337z" />
<glyph unicode="&#xd8;" horiz-adv-x="1353" d="M1386 1534q5 0 6.5 -2.5t-1.5 -5.5l-164 -201q100 -133 59 -350l-90 -512q-40 -234 -201.5 -363t-423.5 -129q-238 0 -358 111l-133 -164q-6 -8 -21 -8h-28q-9 0 -4 8l155 193q-117 132 -76 368l91 510q42 236 204 365t426 129q251 0 371 -129l139 172q6 8 19 8h30z M1159 1309q-106 118 -336 118q-238 0 -383 -116t-182 -330l-90 -508q-35 -194 59 -311zM1227 981q30 181 -43 289l-930 -1143q108 -100 324 -100q232 0 377 118t182 328z" />
<glyph unicode="&#xd9;" horiz-adv-x="1390" d="M711 1808q14 14 32 2l322 -217q6 -5 6.5 -8t-6.5 -12l-8 -8q-11 -11 -23 -2l-336 211q-9 4 -9 8.5t9 13.5zM201 492q-38 -218 60 -342.5t331 -124.5q234 0 375.5 124.5t177.5 342.5l170 946q0 16 16 16h29q17 0 14 -16l-170 -957q-42 -242 -198.5 -377t-419.5 -135 q-262 0 -374.5 143t-70.5 386l168 940q3 16 19 16h26q18 0 15 -16z" />
<glyph unicode="&#xda;" horiz-adv-x="1390" d="M1067 1829q21 11 31 -2l10 -15q12 -14 -6 -22l-406 -221q-15 -7 -22 2l-8 12q-8 11 6 19zM201 492q-38 -218 60 -342.5t331 -124.5q234 0 375.5 124.5t177.5 342.5l170 946q0 16 16 16h29q17 0 14 -16l-170 -957q-42 -242 -198.5 -377t-419.5 -135q-262 0 -374.5 143 t-70.5 386l168 940q3 16 19 16h26q18 0 15 -16z" />
<glyph unicode="&#xdb;" horiz-adv-x="1390" d="M915 1833q11 0 16.5 -2.5t16.5 -13.5l244 -236q7 -14 -12 -14h-23q-19 0 -27 10l-223 211l-297 -211q-12 -10 -30 -10h-31q-23 0 -6 14l327 236q18 16 35 16h10zM201 492q-38 -218 60 -342.5t331 -124.5q234 0 375.5 124.5t177.5 342.5l170 946q0 16 16 16h29 q17 0 14 -16l-170 -957q-42 -242 -198.5 -377t-419.5 -135q-262 0 -374.5 143t-70.5 386l168 940q3 16 19 16h26q18 0 15 -16z" />
<glyph unicode="&#xdc;" horiz-adv-x="1390" d="M705 1731q21 0 25.5 -6.5t2.5 -26.5l-2 -12q-5 -21 -12.5 -28t-28.5 -7h-12q-19 0 -25 7.5t-2 27.5l2 12q3 19 11.5 26t27.5 7h13zM1092 1731q19 0 25.5 -7t4.5 -26l-4 -12q-3 -20 -12.5 -27.5t-28.5 -7.5h-10q-22 0 -28 7.5t-1 27.5l2 12q3 19 11.5 26t29.5 7h11z M201 492q-38 -218 60 -342.5t331 -124.5q234 0 375.5 124.5t177.5 342.5l170 946q0 16 16 16h29q17 0 14 -16l-170 -957q-42 -242 -198.5 -377t-419.5 -135q-262 0 -374.5 143t-70.5 386l168 940q3 16 19 16h26q18 0 15 -16z" />
<glyph unicode="&#xdd;" horiz-adv-x="1249" d="M997 1829q21 11 31 -2l10 -15q12 -14 -6 -22l-405 -221q-16 -8 -23 2l-8 12q-8 11 6 19zM1358 1454q9 0 11 -5t-3 -11l-715 -836l-102 -586q-3 -16 -21 -16h-26q-18 0 -13 16l103 588l-416 834q-3 6 0 11t10 5h33q22 0 29 -14l385 -774l657 774q9 14 31 14h37z" />
<glyph unicode="&#xde;" horiz-adv-x="1253" d="M823 1196q214 0 319.5 -128t65.5 -343q-36 -210 -182 -328t-362 -118h-488l-47 -263q-5 -16 -20 -16h-27q-17 0 -14 16l251 1422q3 16 19 16h27q17 0 14 -16l-43 -242h487zM668 336q190 0 319 106.5t160 292.5q34 188 -57 296t-279 108h-485l-142 -803h484z" />
<glyph unicode="&#xdf;" d="M231 1083q38 210 163.5 331.5t322.5 121.5q208 0 292 -106.5t50 -307.5q-13 -67 -42 -128t-89 -118.5t-140 -82.5v-5q121 -32 173 -129.5t26 -244.5q-36 -208 -159.5 -311t-321.5 -103h-217q-16 0 -13 16l5 23q3 16 18 16h211q172 0 279 92t139 273q28 157 -44 249.5 t-229 92.5h-221q-17 0 -14 16l2 21q5 16 20 16h220q76 0 139 30t103 78.5t65 99.5t35 103q64 355 -295 355q-170 0 -279 -106t-143 -294l-187 -1065q-5 -16 -20 -16h-23q-17 0 -14 16z" />
<glyph unicode="&#xe0;" horiz-adv-x="1081" d="M522 1458q15 15 31 2l313 -227q10 -8 0 -21l-8 -6q-10 -10 -22 -2l-324 223q-14 7 0 21zM129 696q34 199 151 289t336 90q191 0 316 -57q47 -21 59.5 -42t3.5 -71l-147 -837q-2 -17 -29 -27q-198 -70 -430 -70q-131 0 -210.5 55t-103 147.5t-1.5 217.5zM891 971 q-112 53 -281 53q-192 0 -294 -77.5t-134 -254.5l-53 -303q-31 -170 35 -268t235 -98q120 0 226 21.5t170 45.5l141 803q6 37 -1 49t-44 29z" />
<glyph unicode="&#xe1;" horiz-adv-x="1081" d="M872 1460q19 13 31 -2l10 -14q12 -12 -8 -21l-403 -223q-16 -5 -23 2l-8 12q-9 12 6 21zM129 696q34 199 151 289t336 90q191 0 316 -57q47 -21 59.5 -42t3.5 -71l-147 -837q-2 -17 -29 -27q-198 -70 -430 -70q-131 0 -210.5 55t-103 147.5t-1.5 217.5zM891 971 q-112 53 -281 53q-192 0 -294 -77.5t-134 -254.5l-53 -303q-31 -170 35 -268t235 -98q120 0 226 21.5t170 45.5l141 803q6 37 -1 49t-44 29z" />
<glyph unicode="&#xe2;" horiz-adv-x="1081" d="M717 1452q11 0 16 -2.5t15 -13.5l243 -238q5 -4 2.5 -8t-12.5 -4h-23q-18 0 -28 10l-221 213l-299 -213q-12 -10 -27 -10h-33q-11 0 -13 4t5 8l330 238q21 16 35 16h10zM129 696q34 199 151 289t336 90q191 0 316 -57q47 -21 59.5 -42t3.5 -71l-147 -837q-2 -17 -29 -27 q-198 -70 -430 -70q-131 0 -210.5 55t-103 147.5t-1.5 217.5zM891 971q-112 53 -281 53q-192 0 -294 -77.5t-134 -254.5l-53 -303q-31 -170 35 -268t235 -98q120 0 226 21.5t170 45.5l141 803q6 37 -1 49t-44 29z" />
<glyph unicode="&#xe3;" horiz-adv-x="1081" d="M1010 1417q11 0 8 -12q-14 -87 -58 -135.5t-118 -48.5q-41 0 -76 16t-60.5 38.5t-50.5 44.5t-56.5 38t-66.5 16q-51 0 -86.5 -39t-46.5 -102q-2 -12 -14 -12h-18q-13 0 -13 12q15 86 62.5 135t118.5 49q41 0 75.5 -16t60 -38.5t50 -44.5t55.5 -38t66 -16q54 0 88 38.5 t45 102.5q3 12 14 12h21zM129 696q34 199 151 289t336 90q191 0 316 -57q47 -21 59.5 -42t3.5 -71l-147 -837q-2 -17 -29 -27q-198 -70 -430 -70q-131 0 -210.5 55t-103 147.5t-1.5 217.5zM891 971q-112 53 -281 53q-192 0 -294 -77.5t-134 -254.5l-53 -303 q-31 -170 35 -268t235 -98q120 0 226 21.5t170 45.5l141 803q6 37 -1 49t-44 29z" />
<glyph unicode="&#xe4;" horiz-adv-x="1081" d="M510 1372q21 0 26 -6.5t3 -26.5l-2 -14q-5 -21 -12.5 -27t-28.5 -6h-13q-19 0 -24.5 6.5t-1.5 26.5l2 14q3 19 11.5 26t27.5 7h12zM897 1372q19 0 25.5 -7t5.5 -26l-4 -14q-3 -19 -12 -26t-29 -7h-11q-22 0 -27.5 6.5t-0.5 26.5l2 14q3 19 11.5 26t29.5 7h10zM129 696 q34 199 151 289t336 90q191 0 316 -57q47 -21 59.5 -42t3.5 -71l-147 -837q-2 -17 -29 -27q-198 -70 -430 -70q-131 0 -210.5 55t-103 147.5t-1.5 217.5zM891 971q-112 53 -281 53q-192 0 -294 -77.5t-134 -254.5l-53 -303q-31 -170 35 -268t235 -98q120 0 226 21.5 t170 45.5l141 803q6 37 -1 49t-44 29z" />
<glyph unicode="&#xe5;" horiz-adv-x="1081" d="M500 1372q15 87 77 135.5t154 48.5q87 0 129 -52t27 -140q-15 -86 -74.5 -135t-148.5 -49q-91 0 -135 52t-29 140zM852 1368q12 70 -22 111t-105 41q-75 0 -124.5 -40t-61.5 -112q-12 -69 23 -110t108 -41q72 0 121 41t61 110zM129 696q34 199 151 289t336 90 q191 0 316 -57q47 -21 59.5 -42t3.5 -71l-147 -837q-2 -17 -29 -27q-198 -70 -430 -70q-131 0 -210.5 55t-103 147.5t-1.5 217.5zM891 971q-112 53 -281 53q-192 0 -294 -77.5t-134 -254.5l-53 -303q-31 -170 35 -268t235 -98q120 0 226 21.5t170 45.5l141 803q6 37 -1 49 t-44 29z" />
<glyph unicode="&#xe6;" horiz-adv-x="1597" d="M819 825q57 119 159.5 184.5t235.5 65.5q183 0 267.5 -90t46.5 -254q-32 -136 -141 -207t-277 -71q-165 0 -332 45l-22 -133q-29 -165 34.5 -255t225.5 -90q127 0 212 52.5t152 154.5q12 15 23 6l20 -10q9 -7 0 -22q-71 -109 -169.5 -169.5t-245.5 -60.5q-232 0 -287 166 q-48 -69 -141 -117.5t-226 -48.5q-196 0 -276.5 78.5t-52.5 235.5q28 155 135 226t309 71q95 0 270 -27l21 117q11 64 15 108.5t-4 94t-32.5 79.5t-75 50t-126.5 20q-107 0 -185.5 -42.5t-142.5 -131.5q-9 -12 -21 -6l-20 8q-15 6 -4 22q73 103 165 152t220 49 q78 0 132 -18.5t83 -54t41.5 -78t13.5 -99.5zM1475 735q35 140 -37.5 215.5t-231.5 75.5q-157 0 -262.5 -98t-136.5 -273l-19 -112q154 -43 332 -43q144 0 235 59t120 176zM731 508q-129 24 -274 24q-171 0 -261.5 -60t-115.5 -193q-23 -131 45 -195t235 -64 q75 0 137.5 18.5t103 49t62 54t37.5 48.5q-13 78 5 172z" />
<glyph unicode="&#xe7;" horiz-adv-x="1044" d="M125 690q33 185 157 285t336 100q93 0 161 -20t110.5 -58.5t65.5 -88.5t32 -117q6 -19 -12 -23l-19 -4q-17 -5 -20 8q-18 129 -92 190.5t-234 61.5q-182 0 -292 -89.5t-138 -248.5l-57 -324q-28 -158 52 -248.5t259 -90.5q157 0 258.5 65t163.5 201q8 15 23 10l22 -6 q14 -5 6 -21q-70 -149 -181.5 -223.5t-279.5 -77.5l-81 -151q27 8 73 8q86 0 126 -39t28 -108q-17 -89 -84.5 -137t-167.5 -48q-102 0 -168 49q-13 8 -10 27l2 18q2 6 5.5 8.5t6.5 -1.5q64 -60 166 -60q82 0 136 39t67 111q7 53 -27.5 80.5t-105.5 27.5q-50 0 -84 -12 q-15 -4 -19 2t4 20l90 166q-194 6 -281 112.5t-54 287.5z" />
<glyph unicode="&#xe8;" horiz-adv-x="1056" d="M504 1458q15 15 31 2l313 -227q10 -8 0 -21l-8 -6q-10 -10 -23 -2l-323 223q-14 7 0 21zM117 657q35 198 169 308t339 110q207 0 305 -92t57 -256q-32 -136 -151.5 -205t-311.5 -69q-205 0 -383 41l-22 -129q-28 -163 48 -254t257 -91q148 0 245.5 53t170.5 154 q12 15 24 6l17 -10q11 -7 2 -22q-78 -109 -188.5 -169.5t-278.5 -60.5q-209 0 -297.5 106.5t-55.5 293.5zM934 735q36 141 -49 216t-269 75q-179 0 -297 -98.5t-149 -272.5l-20 -112q168 -43 382 -43q341 0 402 235z" />
<glyph unicode="&#xe9;" horiz-adv-x="1056" d="M852 1460q19 13 31 -2l10 -14q12 -12 -8 -21l-404 -223q-15 -5 -22 2l-8 12q-9 12 6 21zM117 657q35 198 169 308t339 110q207 0 305 -92t57 -256q-32 -136 -151.5 -205t-311.5 -69q-205 0 -383 41l-22 -129q-28 -163 48 -254t257 -91q148 0 245.5 53t170.5 154 q12 15 24 6l17 -10q11 -7 2 -22q-78 -109 -188.5 -169.5t-278.5 -60.5q-209 0 -297.5 106.5t-55.5 293.5zM934 735q36 141 -49 216t-269 75q-179 0 -297 -98.5t-149 -272.5l-20 -112q168 -43 382 -43q341 0 402 235z" />
<glyph unicode="&#xea;" horiz-adv-x="1056" d="M332 1186q-11 0 -13 4t5 8l329 238q21 16 35 16h10q11 0 16 -2.5t15 -13.5l244 -238q5 -4 2.5 -8t-12.5 -4h-23q-19 0 -29 10l-221 213l-299 -213q-13 -10 -26 -10h-33zM625 1075q207 0 305 -92t57 -256q-32 -136 -151.5 -205t-311.5 -69q-205 0 -383 41l-22 -129 q-28 -163 48 -254t257 -91q148 0 245.5 53t170.5 154q12 15 24 6l17 -10q11 -7 2 -22q-78 -109 -188.5 -169.5t-278.5 -60.5q-209 0 -297.5 106.5t-55.5 293.5l54 286q35 198 169 308t339 110zM934 735q36 141 -49 216t-269 75q-179 0 -297 -98.5t-149 -272.5l-20 -112 q168 -43 382 -43q341 0 402 235z" />
<glyph unicode="&#xeb;" horiz-adv-x="1056" d="M492 1372q21 0 25.5 -6.5t2.5 -26.5l-2 -14q-5 -21 -12.5 -27t-28.5 -6h-12q-19 0 -25 6.5t-2 26.5l2 14q3 19 11.5 26t27.5 7h13zM879 1372q19 0 25.5 -7t4.5 -26l-4 -14q-3 -19 -12 -26t-29 -7h-10q-22 0 -27.5 6.5t-1.5 26.5l2 14q3 19 11.5 26t29.5 7h11zM117 657 q35 198 169 308t339 110q207 0 305 -92t57 -256q-32 -136 -151.5 -205t-311.5 -69q-205 0 -383 41l-22 -129q-28 -163 48 -254t257 -91q148 0 245.5 53t170.5 154q12 15 24 6l17 -10q11 -7 2 -22q-78 -109 -188.5 -169.5t-278.5 -60.5q-209 0 -297.5 106.5t-55.5 293.5z M934 735q36 141 -49 216t-269 75q-179 0 -297 -98.5t-149 -272.5l-20 -112q168 -43 382 -43q341 0 402 235z" />
<glyph unicode="&#xec;" horiz-adv-x="354" d="M119 1442q18 12 28 4l240 -217q8 -8 8.5 -11t-8.5 -12l-6 -6q-14 -7 -25 0l-245 211q-21 10 -2 23zM266 1047q16 0 13 -15l-179 -1018q-6 -14 -18 -14h-27q-15 0 -12 14l178 1018q6 15 19 15h26z" />
<glyph unicode="&#xed;" horiz-adv-x="354" d="M453 1458q19 16 30 -2l9 -12q5 -8 2.5 -12.5t-13.5 -10.5l-334 -223q-13 -7 -22 2l-6 12q-7 12 8 21zM266 1047q16 0 13 -15l-179 -1018q-6 -14 -18 -14h-27q-15 0 -12 14l178 1018q6 15 19 15h26z" />
<glyph unicode="&#xee;" horiz-adv-x="354" d="M512 1212q2 -2 2.5 -3.5t0 -3t-2.5 -3t-5 -2t-7 -0.5h-19q-20 0 -24 10l-150 193l-217 -195q-10 -8 -29 -8h-26q-18 0 -6 12l245 220q18 14 35 14h8q12 0 15 -1.5t12 -12.5zM266 1047q16 0 13 -15l-179 -1018q-6 -14 -18 -14h-27q-15 0 -12 14l178 1018q6 15 19 15h26z " />
<glyph unicode="&#xef;" horiz-adv-x="354" d="M176 1407q21 0 27 -7t4 -28l-4 -12q-3 -20 -10 -26.5t-29 -6.5h-12q-19 0 -25.5 6.5t-3.5 26.5l4 12q3 20 10.5 27.5t26.5 7.5h12zM446 1407q20 0 27 -7.5t6 -27.5l-4 -12q-3 -19 -12 -26t-29 -7h-10q-22 0 -28 6.5t-3 26.5l4 12q3 21 10.5 28t28.5 7h10zM266 1047 q16 0 13 -15l-179 -1018q-6 -14 -18 -14h-27q-15 0 -12 14l178 1018q6 15 19 15h26z" />
<glyph unicode="&#xf0;" horiz-adv-x="1122" d="M1053 1528q8 11 16 0l12 -10q9 -8 -2 -19l-147 -127q157 -162 90 -551l-84 -469q-31 -181 -160 -281t-342 -100q-214 0 -307.5 101t-62.5 284l53 297q33 181 160.5 281t336.5 100q148 0 238.5 -56.5t114.5 -154.5q32 184 13 307.5t-93 200.5l-209 -180q-10 -10 -18 -2 l-13 12q-6 9 4 19l205 176q-132 108 -418 108q-18 0 -12 17l4 20q0 15 19 15q310 0 450 -119zM938 651q27 158 -55.5 245t-266.5 87q-187 0 -300.5 -87.5t-141.5 -244.5l-51 -299q-28 -157 54 -243t269 -86q184 0 296.5 86t140.5 243z" />
<glyph unicode="&#xf1;" horiz-adv-x="1112" d="M993 1417q11 0 8 -12q-14 -87 -58 -135.5t-118 -48.5q-41 0 -75.5 16t-60 38.5t-50.5 44.5t-56.5 38t-66.5 16q-51 0 -86.5 -39t-46.5 -102q-2 -12 -14 -12h-19q-8 0 -10 2.5t-2 9.5q15 86 62 135t118 49q41 0 75.5 -16t60 -38.5t50 -44.5t55.5 -38t66 -16q54 0 88 38.5 t45 102.5q3 12 15 12h20zM289 1010q172 65 375 65q199 0 276.5 -101.5t44.5 -291.5l-117 -668q-3 -14 -18 -14h-25q-18 0 -12 14l117 666q30 170 -37.5 257t-241.5 87q-194 0 -344 -61q-31 -13 -43.5 -29.5t-17.5 -44.5l-152 -875q-6 -14 -18 -14h-27q-15 0 -12 14l156 885 q9 46 28 68.5t68 42.5z" />
<glyph unicode="&#xf2;" horiz-adv-x="1097" d="M506 1456q15 15 31 2l313 -227q10 -8 0 -21l-8 -6q-10 -10 -23 -2l-323 223q-14 7 0 21zM135 727q29 162 162.5 255t329.5 93q198 0 300 -94t74 -256l-71 -408q-29 -161 -161 -253.5t-329 -92.5t-301 95t-76 256zM946 729q25 134 -64.5 214.5t-260.5 80.5 q-168 0 -285.5 -80.5t-142.5 -214.5l-72 -412q-25 -134 64.5 -214t258.5 -80q171 0 288 79.5t142 214.5z" />
<glyph unicode="&#xf3;" horiz-adv-x="1097" d="M854 1458q19 13 31 -2l10 -14q12 -12 -8 -21l-404 -223q-15 -5 -22 2l-8 12q-9 12 6 21zM135 727q29 162 162.5 255t329.5 93q198 0 300 -94t74 -256l-71 -408q-29 -161 -161 -253.5t-329 -92.5t-301 95t-76 256zM946 729q25 134 -64.5 214.5t-260.5 80.5 q-168 0 -285.5 -80.5t-142.5 -214.5l-72 -412q-25 -134 64.5 -214t258.5 -80q171 0 288 79.5t142 214.5z" />
<glyph unicode="&#xf4;" horiz-adv-x="1097" d="M334 1184q-11 0 -13 4t5 8l329 238q21 16 35 16h10q11 0 16 -2.5t15 -13.5l244 -238q5 -4 2.5 -8t-12.5 -4h-23q-19 0 -29 10l-221 213l-299 -213q-12 -10 -26 -10h-33zM627 1075q198 0 300 -94t74 -256l-71 -408q-29 -161 -161 -253.5t-329 -92.5t-301 95t-76 256 l72 405q29 162 162.5 255t329.5 93zM946 729q25 134 -64.5 214.5t-260.5 80.5q-168 0 -285.5 -80.5t-142.5 -214.5l-72 -412q-25 -134 64.5 -214t258.5 -80q171 0 288 79.5t142 214.5z" />
<glyph unicode="&#xf5;" horiz-adv-x="1097" d="M991 1415q11 0 8 -12q-14 -87 -58 -135.5t-118 -48.5q-41 0 -75.5 16t-60 38.5t-50.5 44.5t-56.5 38t-66.5 16q-51 0 -86.5 -39t-46.5 -102q-2 -12 -14 -12h-19q-8 0 -10 2.5t-2 9.5q15 86 62 135t118 49q41 0 75.5 -16t60 -38.5t50 -44.5t55.5 -38t66 -16q54 0 88 38.5 t45 102.5q3 12 15 12h20zM135 727q29 162 162.5 255t329.5 93q198 0 300 -94t74 -256l-71 -408q-29 -161 -161 -253.5t-329 -92.5t-301 95t-76 256zM946 729q25 134 -64.5 214.5t-260.5 80.5q-168 0 -285.5 -80.5t-142.5 -214.5l-72 -412q-25 -134 64.5 -214t258.5 -80 q171 0 288 79.5t142 214.5z" />
<glyph unicode="&#xf6;" horiz-adv-x="1097" d="M494 1370q21 0 25.5 -6.5t2.5 -26.5l-2 -14q-5 -21 -12.5 -27t-28.5 -6h-12q-19 0 -25 6.5t-2 26.5l2 14q3 19 11.5 26t27.5 7h13zM881 1370q19 0 25.5 -7t4.5 -26l-4 -14q-3 -19 -12 -26t-29 -7h-10q-22 0 -27.5 6.5t-1.5 26.5l2 14q3 19 11.5 26t29.5 7h11zM135 727 q29 162 162.5 255t329.5 93q198 0 300 -94t74 -256l-71 -408q-29 -161 -161 -253.5t-329 -92.5t-301 95t-76 256zM946 729q25 134 -64.5 214.5t-260.5 80.5q-168 0 -285.5 -80.5t-142.5 -214.5l-72 -412q-25 -134 64.5 -214t258.5 -80q171 0 288 79.5t142 214.5z" />
<glyph unicode="&#xf7;" horiz-adv-x="1232" d="M707 1128q24 0 31 -8.5t3 -32.5l-2 -8q-3 -23 -13.5 -32t-33.5 -9h-10q-23 0 -29.5 8t-3.5 33l2 8q4 25 14 33t33 8h9zM1090 692q16 0 16 -16l-4 -23q-5 -16 -21 -16h-929q-18 0 -15 16l4 23q3 16 19 16h930zM561 295q23 0 30.5 -9t2.5 -32v-8q-4 -24 -14.5 -32.5 t-34.5 -8.5h-10q-23 0 -29.5 8t-1.5 33v8q4 23 15 32t34 9h8z" />
<glyph unicode="&#xf8;" horiz-adv-x="1097" d="M1038 1130q7 0 2 -8l-116 -143q103 -95 73 -254l-69 -408q-29 -161 -162 -253.5t-332 -92.5q-165 0 -268 70l-84 -104q-9 -9 -19 -9h-28q-4 0 -4.5 3t2.5 6l102 126q-101 93 -74 259l72 405q28 161 160.5 254.5t327.5 93.5q177 0 274 -69l98 118q6 6 15 6h30zM862 958 q-92 66 -244 66q-167 0 -285 -80.5t-143 -214.5l-71 -412q-22 -133 55 -204zM203 86q84 -63 239 -63q171 0 288 79.5t142 214.5l72 410q21 126 -57 201z" />
<glyph unicode="&#xf9;" d="M514 1456q15 15 31 2l313 -227q10 -8 0 -21l-8 -6q-10 -10 -23 -2l-323 223q-14 7 0 21zM1032 1047q15 0 12 -15l-155 -882q-9 -48 -28 -70.5t-68 -42.5q-170 -66 -375 -66q-198 0 -276.5 102.5t-45.5 291.5l117 667q6 15 18 15h27q15 0 12 -15l-118 -665 q-30 -171 36.5 -257.5t241.5 -86.5q189 0 344 59q32 14 44.5 31.5t17.5 46.5l153 872q3 15 19 15h24z" />
<glyph unicode="&#xfa;" d="M862 1458q19 13 31 -2l10 -14q12 -12 -8 -21l-403 -223q-16 -5 -23 2l-8 12q-9 12 6 21zM1032 1047q15 0 12 -15l-155 -882q-9 -48 -28 -70.5t-68 -42.5q-170 -66 -375 -66q-198 0 -276.5 102.5t-45.5 291.5l117 667q6 15 18 15h27q15 0 12 -15l-118 -665 q-30 -171 36.5 -257.5t241.5 -86.5q189 0 344 59q32 14 44.5 31.5t17.5 46.5l153 872q3 15 19 15h24z" />
<glyph unicode="&#xfb;" d="M709 1450q11 0 15.5 -2t14.5 -14l244 -238q5 -4 2.5 -8t-12.5 -4h-23q-18 0 -28 10l-222 213l-299 -213q-13 -10 -26 -10h-33q-11 0 -13 4t5 8l330 238q21 16 34 16h11zM1032 1047q15 0 12 -15l-155 -882q-9 -48 -28 -70.5t-68 -42.5q-170 -66 -375 -66 q-198 0 -276.5 102.5t-45.5 291.5l117 667q6 15 18 15h27q15 0 12 -15l-118 -665q-30 -171 36.5 -257.5t241.5 -86.5q189 0 344 59q32 14 44.5 31.5t17.5 46.5l153 872q3 15 19 15h24z" />
<glyph unicode="&#xfc;" d="M502 1370q21 0 25.5 -6.5t2.5 -26.5l-2 -14q-5 -21 -12.5 -27t-28.5 -6h-12q-19 0 -24.5 6.5t-1.5 26.5l2 14q3 19 11 26t27 7h13zM889 1370q19 0 25.5 -7t5.5 -26l-5 -14q-3 -19 -12 -26t-29 -7h-10q-22 0 -27.5 6.5t-0.5 26.5l2 14q3 19 11.5 26t29.5 7h10zM1032 1047 q15 0 12 -15l-155 -882q-9 -48 -28 -70.5t-68 -42.5q-170 -66 -375 -66q-198 0 -276.5 102.5t-45.5 291.5l117 667q6 15 18 15h27q15 0 12 -15l-118 -665q-30 -171 36.5 -257.5t241.5 -86.5q189 0 344 59q32 14 44.5 31.5t17.5 46.5l153 872q3 15 19 15h24z" />
<glyph unicode="&#xfd;" horiz-adv-x="1120" d="M862 1458q19 13 31 -2l10 -14q12 -12 -8 -21l-403 -223q-16 -5 -23 2l-8 12q-9 12 6 21zM1032 1047q15 0 12 -15l-196 -1116q-78 -442 -500 -442q-277 0 -350 239q-9 19 10 25l19 8q15 8 22 -6q32 -102 103.5 -157.5t205.5 -55.5q365 0 435 387l24 141q-137 -48 -222 -63 t-175 -15q-199 0 -277 103t-45 293l115 659q6 15 18 15h27q15 0 12 -15l-116 -659q-30 -172 35 -258t243 -86q183 0 393 80l164 923q3 15 19 15h24z" />
<glyph unicode="&#xfe;" horiz-adv-x="1095" d="M305 1499q3 17 19 17h26q12 0 12 -17l-94 -524q171 84 371 84q421 0 348 -408l-51 -291q-33 -189 -147.5 -290t-313.5 -101q-194 0 -366 99l-89 -504q-6 -15 -18 -15h-27q-16 0 -10 15zM930 651q31 179 -43.5 268t-261.5 89q-195 0 -367 -88l-139 -795q31 -21 72.5 -41 t123.5 -42t166 -22q337 0 398 342z" />
<glyph unicode="&#xff;" horiz-adv-x="1120" d="M500 1370q21 0 25.5 -6.5t2.5 -26.5l-2 -14q-5 -21 -12.5 -27t-28.5 -6h-12q-19 0 -25 6.5t-2 26.5l3 14q3 19 11 26t27 7h13zM887 1370q19 0 25.5 -7t5.5 -26l-5 -14q-3 -19 -12 -26t-29 -7h-10q-22 0 -27.5 6.5t-0.5 26.5l2 14q3 19 11.5 26t29.5 7h10zM1032 1047 q15 0 12 -15l-196 -1116q-78 -442 -500 -442q-277 0 -350 239q-9 19 10 25l19 8q15 8 22 -6q32 -102 103.5 -157.5t205.5 -55.5q365 0 435 387l24 141q-137 -48 -222 -63t-175 -15q-199 0 -277 103t-45 293l115 659q6 15 18 15h27q15 0 12 -15l-116 -659q-30 -172 35 -258 t243 -86q183 0 393 80l164 923q3 15 19 15h24z" />
<glyph unicode="&#x100;" horiz-adv-x="1280" d="M1077 1706q15 0 10 -16l-2 -15q-2 -9 -4.5 -11.5t-11.5 -2.5h-489q-8 0 -11 3t-2 11l2 15q3 16 19 16h489zM1151 16q0 -16 -16 -16h-21q-24 0 -27 14l-112 494h-705l-284 -494q-11 -14 -33 -14h-25q-20 0 -10 16l832 1432q11 16 26 16h25q19 0 22 -14zM967 559l-183 789 q-4 46 -4 55h-2q-13 -39 -20 -55l-459 -789h668z" />
<glyph unicode="&#x101;" horiz-adv-x="1081" d="M936 1335q15 0 12 -16l-2 -14q-3 -10 -6.5 -13.5t-11.5 -3.5h-490q-15 0 -12 17l4 14q0 16 16 16h490zM129 696q34 199 151 289t336 90q191 0 316 -57q47 -21 59.5 -42t3.5 -71l-147 -837q-2 -17 -29 -27q-198 -70 -430 -70q-131 0 -210.5 55t-103 147.5t-1.5 217.5z M891 971q-112 53 -281 53q-192 0 -294 -77.5t-134 -254.5l-53 -303q-31 -170 35 -268t235 -98q120 0 226 21.5t170 45.5l141 803q6 37 -1 49t-44 29z" />
<glyph unicode="&#x102;" horiz-adv-x="1280" d="M1153 1800q-54 -121 -136 -177t-206 -56q-125 0 -190.5 56.5t-77.5 176.5q0 14 10 17l25 6q14 0 14 -8q9 -104 64 -152.5t161 -48.5q105 0 175 49t116 152q8 13 18 10l23 -8q12 -6 4 -17zM1151 16q0 -16 -16 -16h-21q-24 0 -27 14l-112 494h-705l-284 -494 q-11 -14 -33 -14h-25q-20 0 -10 16l832 1432q11 16 26 16h25q19 0 22 -14zM967 559l-183 789q-4 46 -4 55h-2q-13 -39 -20 -55l-459 -789h668z" />
<glyph unicode="&#x103;" horiz-adv-x="1081" d="M1012 1427q-54 -119 -136.5 -175t-203.5 -56q-126 0 -192.5 56t-78.5 175q-3 17 11 17l22 6q12 5 17 -8q7 -103 61.5 -151t161.5 -48q106 0 176.5 48.5t116.5 152.5q5 13 16 8l25 -8q10 -2 4 -17zM129 696q34 199 151 289t336 90q191 0 316 -57q47 -21 59.5 -42t3.5 -71 l-147 -837q-2 -17 -29 -27q-198 -70 -430 -70q-131 0 -210.5 55t-103 147.5t-1.5 217.5zM891 971q-112 53 -281 53q-192 0 -294 -77.5t-134 -254.5l-53 -303q-31 -170 35 -268t235 -98q120 0 226 21.5t170 45.5l141 803q6 37 -1 49t-44 29z" />
<glyph unicode="&#x104;" horiz-adv-x="1280" d="M801 1464q19 0 22 -14l328 -1434q0 -10 -6 -14q-154 -108 -230.5 -216.5t-62.5 -180.5q6 -36 25 -50t61 -14q81 0 156 68q8 9 12 -2l6 -27q2 -5 -6 -16q-87 -72 -188 -72t-121 92q-16 86 62.5 200t240.5 224q-12 3 -15 15l-110 485h-705l-284 -494q-11 -14 -33 -14h-25 q-20 0 -10 16l832 1432q11 16 26 16h25zM784 1348q-4 46 -4 55h-2q-13 -39 -20 -55l-459 -789h668z" />
<glyph unicode="&#x105;" horiz-adv-x="1083" d="M129 696q34 199 151 289t336 90q191 0 316 -57q47 -21 59.5 -42t3.5 -71l-147 -837q-4 -15 -10 -17q-166 -127 -249 -248t-69 -198q6 -36 25 -50t61 -14q81 0 156 68q8 9 12 -2l6 -27q2 -5 -6 -16q-87 -72 -188 -72t-121 92q-14 81 59 197.5t226 238.5q-179 -49 -361 -49 q-131 0 -210.5 55t-103 147.5t-1.5 217.5zM891 971q-112 53 -281 53q-192 0 -294 -77.5t-134 -254.5l-53 -303q-31 -170 35 -268t235 -98q120 0 226 21.5t170 45.5l141 803q6 37 -1 49t-44 29z" />
<glyph unicode="&#x106;" horiz-adv-x="1294" d="M1047 1829q20 10 30 -2l10 -15q12 -14 -6 -22l-405 -221q-16 -8 -23 2l-8 12q-8 11 6 19zM193 985q42 236 202.5 367t425.5 131q233 0 342.5 -89t128.5 -272q2 -17 -14 -22l-21 -6q-17 -6 -20 10q-21 169 -116.5 246t-305.5 77q-237 0 -381 -116.5t-180 -323.5l-90 -512 q-37 -211 67 -327.5t338 -116.5q214 0 338 80t205 251q6 18 23 11l24 -8q15 -6 6 -23q-44 -93 -93.5 -158t-119.5 -115t-165 -74t-220 -24q-262 0 -383.5 134t-81.5 368z" />
<glyph unicode="&#x107;" horiz-adv-x="1044" d="M836 1458q19 12 30 -2l11 -14q12 -12 -9 -21l-403 -223q-16 -5 -23 2l-8 12q-9 12 6 21zM125 690q33 185 158 285t335 100q181 0 266 -73t105 -211q3 -20 -12 -23l-21 -4q-17 -5 -20 8q-18 129 -92 190.5t-234 61.5q-181 0 -291.5 -89.5t-138.5 -248.5l-57 -324 q-28 -158 52 -248.5t259 -90.5q157 0 258.5 65t163.5 201q8 15 23 10l24 -6q12 -6 4 -21q-70 -152 -185.5 -226.5t-293.5 -74.5q-207 0 -300 106.5t-60 293.5z" />
<glyph unicode="&#x108;" horiz-adv-x="1294" d="M895 1833q11 0 16.5 -2.5t16.5 -13.5l243 -236q7 -14 -12 -14h-22q-19 0 -27 10l-223 211l-297 -211q-12 -10 -31 -10h-31q-24 0 -6 14l328 236q18 16 35 16h10zM193 985q42 236 202.5 367t425.5 131q233 0 342.5 -89t128.5 -272q2 -17 -14 -22l-21 -6q-17 -6 -20 10 q-21 169 -116.5 246t-305.5 77q-237 0 -381 -116.5t-180 -323.5l-90 -512q-37 -211 67 -327.5t338 -116.5q214 0 338 80t205 251q6 18 23 11l24 -8q15 -6 6 -23q-44 -93 -93.5 -158t-119.5 -115t-165 -74t-220 -24q-262 0 -383.5 134t-81.5 368z" />
<glyph unicode="&#x109;" horiz-adv-x="1044" d="M315 1184q-11 0 -13 4t5 8l330 238q21 16 35 16h10q11 0 16 -2.5t15 -13.5l243 -238q5 -4 2.5 -8t-12.5 -4h-22q-19 0 -29 10l-221 213l-299 -213q-13 -10 -27 -10h-33zM989 791q3 -20 -12 -23l-21 -4q-17 -5 -20 8q-18 129 -92 190.5t-234 61.5q-181 0 -291.5 -89.5 t-138.5 -248.5l-57 -324q-28 -158 52 -248.5t259 -90.5q157 0 258.5 65t163.5 201q8 15 23 10l24 -6q12 -6 4 -21q-70 -152 -185.5 -226.5t-293.5 -74.5q-207 0 -300 106.5t-60 293.5l57 319q33 185 158 285t335 100q181 0 266 -73t105 -211z" />
<glyph unicode="&#x10a;" horiz-adv-x="1294" d="M874 1722q22 0 28.5 -7t2.5 -27l-2 -11q-3 -20 -12 -27.5t-31 -7.5h-8q-20 0 -26 6.5t-3 28.5l2 11q5 20 13 27t28 7h8zM193 985q42 236 202.5 367t425.5 131q233 0 342.5 -89t128.5 -272q2 -17 -14 -22l-21 -6q-17 -6 -20 10q-21 169 -116.5 246t-305.5 77 q-237 0 -381 -116.5t-180 -323.5l-90 -512q-37 -211 67 -327.5t338 -116.5q214 0 338 80t205 251q6 18 23 11l24 -8q15 -6 6 -23q-44 -93 -93.5 -158t-119.5 -115t-165 -74t-220 -24q-262 0 -383.5 134t-81.5 368z" />
<glyph unicode="&#x10b;" horiz-adv-x="1044" d="M664 1352q21 0 27 -7t3 -28l-2 -8q-3 -22 -12 -29.5t-31 -7.5h-8q-21 0 -27 7t-2 30l2 8q3 20 12 27.5t29 7.5h9zM125 690q33 185 158 285t335 100q181 0 266 -73t105 -211q3 -20 -12 -23l-21 -4q-17 -5 -20 8q-18 129 -92 190.5t-234 61.5q-181 0 -291.5 -89.5 t-138.5 -248.5l-57 -324q-28 -158 52 -248.5t259 -90.5q157 0 258.5 65t163.5 201q8 15 23 10l24 -6q12 -6 4 -21q-70 -152 -185.5 -226.5t-293.5 -74.5q-207 0 -300 106.5t-60 293.5z" />
<glyph unicode="&#x10c;" horiz-adv-x="1294" d="M1204 1835q20 0 4 -16l-325 -234q-20 -16 -37 -16h-8q-12 0 -16.5 2t-14.5 14l-244 234q-5 5 -3 10.5t13 5.5h27q15 0 25 -10l221 -211l301 211q10 10 31 10h26zM193 985q42 236 202.5 367t425.5 131q233 0 342.5 -89t128.5 -272q2 -17 -14 -22l-21 -6q-17 -6 -20 10 q-21 169 -116.5 246t-305.5 77q-237 0 -381 -116.5t-180 -323.5l-90 -512q-37 -211 67 -327.5t338 -116.5q214 0 338 80t205 251q6 18 23 11l24 -8q15 -6 6 -23q-44 -93 -93.5 -158t-119.5 -115t-165 -74t-220 -24q-262 0 -383.5 134t-81.5 368z" />
<glyph unicode="&#x10d;" horiz-adv-x="1044" d="M989 1448q11 0 11 -4.5t-7 -9.5l-325 -236q-26 -15 -35 -16h-4q-11 0 -15.5 2.5t-17.5 13.5l-246 238q-8 12 8 12h27q17 0 25 -8l223 -213l299 213q10 8 31 8h26zM618 1075q181 0 266 -73t105 -211q3 -20 -12 -23l-21 -4q-17 -5 -20 8q-18 129 -92 190.5t-234 61.5 q-181 0 -291.5 -89.5t-138.5 -248.5l-57 -324q-28 -158 52 -248.5t259 -90.5q157 0 258.5 65t163.5 201q8 15 23 10l24 -6q12 -6 4 -21q-70 -152 -185.5 -226.5t-293.5 -74.5q-207 0 -300 106.5t-60 293.5l57 319q33 185 158 285t335 100z" />
<glyph unicode="&#x10e;" horiz-adv-x="1314" d="M1157 1835q20 0 4 -16l-325 -234q-20 -16 -37 -16h-8q-12 0 -16.5 2t-14.5 14l-244 234q-5 5 -3 10.5t13 5.5h27q15 0 25 -10l221 -211l301 211q10 10 30 10h27zM748 1454q282 0 412 -146.5t85 -400.5l-65 -372q-45 -252 -223.5 -393.5t-462.5 -141.5h-412q-17 0 -14 16 l251 1422q3 16 19 16h410zM1188 913q40 229 -75.5 357.5t-371.5 128.5h-368l-236 -1344h367q256 0 417 128.5t201 357.5z" />
<glyph unicode="&#x10f;" horiz-adv-x="1126" d="M125 684q33 189 146 290t309 101q200 0 372 -84l90 510q3 15 21 15h24q13 0 13 -15l-242 -1360q-9 -51 -27.5 -71.5t-72.5 -40.5q-150 -58 -338 -58q-420 0 -350 410zM1223 1059q-3 -10 -7 -13.5t-12 -3.5h-16q-14 0 -12 15l159 442q2 17 19 17h20q23 0 17 -17zM944 936 q-158 88 -366 88q-337 0 -398 -344l-53 -301q-31 -178 44 -267t261 -89q163 0 303 53q42 17 53.5 29.5t18.5 48.5z" />
<glyph unicode="&#x110;" horiz-adv-x="1331" d="M764 1454q283 0 413 -146.5t85 -400.5l-66 -372q-45 -253 -224 -394t-464 -141h-412q-17 0 -12 16l121 689h-174q-18 0 -15 14l4 18q3 15 19 15h174l121 686q3 16 18 16h412zM1202 913q40 230 -74.5 358t-371.5 128h-369l-113 -647h418q16 0 13 -15l-5 -18 q-3 -14 -16 -14h-420l-112 -650h366q256 0 417.5 128.5t201.5 357.5z" />
<glyph unicode="&#x111;" horiz-adv-x="1089" d="M1229 1317q15 0 12 -14l-4 -13q0 -9 -2.5 -11.5t-11.5 -2.5h-160l-201 -1135q-9 -50 -28 -70.5t-72 -41.5q-153 -58 -340 -58q-420 0 -350 410l55 303q68 389 455 389q87 0 171.5 -17t126.5 -33t74 -32l52 285h-365q-9 0 -11.5 2.5t-2.5 11.5l4 13q3 14 16 14h367l30 184 q3 15 21 15h25q8 0 10 -3t2 -12l-33 -184h160zM946 938q-30 17 -70.5 33.5t-123.5 33.5t-172 17q-338 0 -398 -342l-53 -301q-31 -179 43.5 -267.5t261.5 -88.5q163 0 303 53q42 17 53.5 29.5t18.5 48.5z" />
<glyph unicode="&#x112;" horiz-adv-x="1161" d="M1049 1706q15 0 10 -16l-2 -15q-1 -9 -4.5 -11.5t-12.5 -2.5h-489q-8 0 -10.5 2.5t-1.5 11.5l2 15q3 16 18 16h490zM1180 1454q17 0 14 -16l-6 -23q-3 -16 -19 -16h-796l-113 -633h711q17 0 12 -16l-4 -25q-3 -16 -18 -16h-711l-115 -654h828q9 0 11.5 -3.5t2.5 -12.5 l-4 -23q-5 -16 -21 -16h-870q-17 0 -14 16l251 1422q3 16 19 16h842z" />
<glyph unicode="&#x113;" horiz-adv-x="1056" d="M418 1288q-15 0 -12 17l4 14q0 16 16 16h489q16 0 13 -16l-2 -14q-3 -10 -6.5 -13.5t-12.5 -3.5h-489zM625 1075q207 0 305 -92t57 -256q-32 -136 -151.5 -205t-311.5 -69q-205 0 -383 41l-22 -129q-28 -163 48 -254t257 -91q148 0 245.5 53t170.5 154q12 15 24 6l17 -10 q11 -7 2 -22q-78 -109 -188.5 -169.5t-278.5 -60.5q-209 0 -297.5 106.5t-55.5 293.5l54 286q35 198 169 308t339 110zM934 735q36 141 -49 216t-269 75q-179 0 -297 -98.5t-149 -272.5l-20 -112q168 -43 382 -43q341 0 402 235z" />
<glyph unicode="&#x114;" horiz-adv-x="1161" d="M1124 1800q-54 -121 -136 -177t-206 -56q-125 0 -190.5 56.5t-77.5 176.5q0 14 10 17l25 6q14 0 14 -8q9 -104 64 -152.5t161 -48.5q105 0 175 49t116 152q8 13 19 10l22 -8q12 -6 4 -17zM1180 1454q17 0 14 -16l-6 -23q-3 -16 -19 -16h-796l-113 -633h711q17 0 12 -16 l-4 -25q-3 -16 -18 -16h-711l-115 -654h828q9 0 11.5 -3.5t2.5 -12.5l-4 -23q-5 -16 -21 -16h-870q-17 0 -14 16l251 1422q3 16 19 16h842z" />
<glyph unicode="&#x115;" horiz-adv-x="1056" d="M993 1427q-54 -119 -136.5 -175t-203.5 -56q-125 0 -191.5 56t-78.5 175q-3 17 10 17l23 6q8 3 10.5 1.5t5.5 -9.5q7 -103 61.5 -151t161.5 -48q106 0 176.5 48.5t116.5 152.5q6 14 17 8l24 -8q10 -2 4 -17zM117 657q35 198 169 308t339 110q207 0 305 -92t57 -256 q-32 -136 -151.5 -205t-311.5 -69q-205 0 -383 41l-22 -129q-28 -163 48 -254t257 -91q148 0 245.5 53t170.5 154q12 15 24 6l17 -10q11 -7 2 -22q-78 -109 -188.5 -169.5t-278.5 -60.5q-209 0 -297.5 106.5t-55.5 293.5zM934 735q36 141 -49 216t-269 75q-179 0 -297 -98.5 t-149 -272.5l-20 -112q168 -43 382 -43q341 0 402 235z" />
<glyph unicode="&#x116;" horiz-adv-x="1161" d="M811 1722q22 0 28.5 -7t2.5 -27l-2 -11q-3 -20 -12 -27.5t-31 -7.5h-9q-20 0 -25.5 6.5t-2.5 28.5l2 11q5 20 13 27t28 7h8zM1180 1454q17 0 14 -16l-6 -23q-3 -16 -19 -16h-796l-113 -633h711q17 0 12 -16l-4 -25q-3 -16 -18 -16h-711l-115 -654h828q9 0 11.5 -3.5 t2.5 -12.5l-4 -23q-5 -16 -21 -16h-870q-17 0 -14 16l251 1422q3 16 19 16h842z" />
<glyph unicode="&#x117;" horiz-adv-x="1056" d="M680 1354q22 0 28 -7.5t3 -27.5l-2 -8q-3 -22 -12 -29.5t-31 -7.5h-9q-21 0 -26.5 7t-1.5 30l2 8q3 20 12 27.5t29 7.5h8zM117 657q35 198 169 308t339 110q207 0 305 -92t57 -256q-32 -136 -151.5 -205t-311.5 -69q-205 0 -383 41l-22 -129q-28 -163 48 -254t257 -91 q148 0 245.5 53t170.5 154q12 15 24 6l17 -10q11 -7 2 -22q-78 -109 -188.5 -169.5t-278.5 -60.5q-209 0 -297.5 106.5t-55.5 293.5zM934 735q36 141 -49 216t-269 75q-179 0 -297 -98.5t-149 -272.5l-20 -112q168 -43 382 -43q341 0 402 235z" />
<glyph unicode="&#x118;" horiz-adv-x="1161" d="M1180 1454q17 0 14 -16l-6 -23q-3 -16 -19 -16h-796l-113 -633h711q17 0 12 -16l-4 -25q-3 -16 -18 -16h-711l-115 -654h828q9 0 11.5 -3.5t2.5 -12.5l-4 -23q-1 -5 -10 -14q-153 -105 -233 -213.5t-66 -183.5q6 -36 25 -50t61 -14q82 0 157 68q8 8 11 -2l6 -27 q4 -6 -6 -16q-87 -72 -187 -72q-104 0 -121 92q-18 85 62.5 199t234.5 217h-825q-17 0 -14 16l251 1422q3 16 19 16h842z" />
<glyph unicode="&#x119;" horiz-adv-x="1056" d="M117 657q35 198 169 308t339 110q207 0 305 -92t57 -256q-32 -136 -151.5 -205t-311.5 -69q-205 0 -383 41l-22 -129q-28 -163 48 -254t257 -91q148 0 245.5 53t170.5 154q12 15 24 6l17 -10q11 -7 2 -22q-58 -82 -140 -140q-150 -114 -237 -248.5t-72 -203.5 q8 -36 28 -52t62 -16q79 0 154 68q8 9 12 -2l6 -27q2 -6 -8 -16q-87 -72 -188 -72q-46 0 -80 23.5t-41 70.5q-14 73 52 188.5t194 229.5q-85 -33 -209 -33q-209 0 -297.5 106.5t-55.5 293.5zM532 500q341 0 402 235q36 141 -49 216t-269 75q-179 0 -297 -98.5t-149 -272.5 l-20 -112q168 -43 382 -43z" />
<glyph unicode="&#x11a;" horiz-adv-x="1161" d="M1141 1835q20 0 4 -16l-326 -234q-20 -16 -37 -16h-8q-12 0 -16.5 2t-14.5 14l-243 234q-5 5 -3 10.5t13 5.5h27q14 0 24 -10l221 -211l301 211q10 10 31 10h27zM1180 1454q17 0 14 -16l-6 -23q-3 -16 -19 -16h-796l-113 -633h711q17 0 12 -16l-4 -25q-3 -16 -18 -16 h-711l-115 -654h828q9 0 11.5 -3.5t2.5 -12.5l-4 -23q-5 -16 -21 -16h-870q-17 0 -14 16l251 1422q3 16 19 16h842z" />
<glyph unicode="&#x11b;" horiz-adv-x="1056" d="M1006 1450q11 0 11 -4.5t-7 -9.5l-326 -236q-26 -15 -35 -16h-4q-11 0 -15.5 2.5t-17.5 13.5l-245 238q-8 12 8 12h26q17 0 25 -8l223 -213l299 213q10 8 31 8h27zM625 1075q207 0 305 -92t57 -256q-32 -136 -151.5 -205t-311.5 -69q-205 0 -383 41l-22 -129 q-28 -163 48 -254t257 -91q148 0 245.5 53t170.5 154q12 15 24 6l17 -10q11 -7 2 -22q-78 -109 -188.5 -169.5t-278.5 -60.5q-209 0 -297.5 106.5t-55.5 293.5l54 286q35 198 169 308t339 110zM934 735q36 141 -49 216t-269 75q-179 0 -297 -98.5t-149 -272.5l-20 -112 q168 -43 382 -43q341 0 402 235z" />
<glyph unicode="&#x11c;" horiz-adv-x="1329" d="M897 1853q11 0 16.5 -2.5t16.5 -13.5l244 -235q8 -15 -13 -15h-22q-19 0 -27 10l-223 211l-297 -211q-12 -10 -31 -10h-31q-12 0 -13 4.5t7 10.5l328 235q18 16 35 16h10zM1219 719q17 0 14 -19l-43 -235q-40 -232 -201.5 -363t-423.5 -131q-264 0 -383.5 134.5 t-79.5 369.5l91 512q42 235 202.5 365.5t425.5 130.5q156 0 258.5 -43.5t152 -121.5t62.5 -196q0 -10 -2 -14.5t-12 -7.5l-25 -6q-9 -3 -13 -1t-5 11q-21 169 -116.5 246t-305.5 77q-238 0 -381.5 -116.5t-179.5 -323.5l-90 -512q-37 -213 65 -330.5t342 -117.5 q232 0 379 118t183 324l32 193h-465q-9 0 -11.5 3.5t-2.5 12.5l4 24q6 17 21 17h508z" />
<glyph unicode="&#x11d;" horiz-adv-x="1089" d="M344 1184q-11 0 -13 4t5 8l330 238q21 16 34 16h11q11 0 15.5 -2t14.5 -14l244 -238q5 -4 2.5 -8t-12.5 -4h-23q-18 0 -28 10l-222 213l-299 -213q-12 -10 -26 -10h-33zM934 1018q46 -21 58 -42t3 -71l-174 -991q-77 -440 -495 -440q-151 0 -232 63.5t-117 175.5 q-6 19 11 25l20 8q13 9 21 -6q22 -69 55 -113.5t95.5 -72t154.5 -27.5q363 0 430 387l27 147q-64 -29 -171 -56.5t-229 -27.5q-197 0 -275.5 105.5t-43.5 294.5l53 299q34 201 155 300t338 99q191 0 316 -57zM938 893q6 37 -1 49t-44 29q-121 53 -281 53q-189 0 -294.5 -87 t-137.5 -265l-53 -297q-30 -167 36.5 -256.5t237.5 -89.5q213 0 400 88z" />
<glyph unicode="&#x11e;" horiz-adv-x="1329" d="M1190 1821q-54 -121 -136 -177.5t-206 -56.5q-125 0 -190.5 57t-77.5 177q0 13 10 16l24 6q15 0 15 -8q9 -104 64 -152.5t161 -48.5q105 0 175 49t116 152q8 13 18 10l23 -8q12 -6 4 -16zM1219 719q17 0 14 -19l-43 -235q-40 -232 -201.5 -363t-423.5 -131 q-264 0 -383.5 134.5t-79.5 369.5l91 512q42 235 202.5 365.5t425.5 130.5q156 0 258.5 -43.5t152 -121.5t62.5 -196q0 -10 -2 -14.5t-12 -7.5l-25 -6q-9 -3 -13 -1t-5 11q-21 169 -116.5 246t-305.5 77q-238 0 -381.5 -116.5t-179.5 -323.5l-90 -512q-37 -213 65 -330.5 t342 -117.5q232 0 379 118t183 324l32 193h-465q-9 0 -11.5 3.5t-2.5 12.5l4 24q6 17 21 17h508z" />
<glyph unicode="&#x11f;" horiz-adv-x="1089" d="M1006 1425q-54 -119 -136.5 -175t-203.5 -56q-126 0 -192.5 56t-78.5 175q-3 17 11 17l22 6q8 3 10.5 1.5t5.5 -9.5q7 -103 62 -151t162 -48q106 0 176.5 48.5t116.5 152.5q5 13 16 8l24 -8q11 -3 5 -17zM125 676q34 201 155 300t338 99q191 0 316 -57q46 -21 58 -42 t3 -71l-174 -991q-77 -440 -495 -440q-151 0 -232 63.5t-117 175.5q-6 19 11 25l20 8q13 9 21 -6q22 -69 55 -113.5t95.5 -72t154.5 -27.5q363 0 430 387l27 147q-64 -29 -171 -56.5t-229 -27.5q-197 0 -275.5 105.5t-43.5 294.5zM893 971q-121 53 -281 53 q-189 0 -294.5 -87t-137.5 -265l-53 -297q-30 -167 36.5 -256.5t237.5 -89.5q213 0 400 88l137 776q6 37 -1 49t-44 29z" />
<glyph unicode="&#x120;" horiz-adv-x="1329" d="M877 1743q22 0 28 -7.5t2 -27.5l-2 -10q-3 -20 -12 -27.5t-31 -7.5h-8q-20 0 -26 6.5t-3 28.5l2 10q5 21 13 28t28 7h9zM1219 719q17 0 14 -19l-43 -235q-40 -232 -201.5 -363t-423.5 -131q-264 0 -383.5 134.5t-79.5 369.5l91 512q42 235 202.5 365.5t425.5 130.5 q156 0 258.5 -43.5t152 -121.5t62.5 -196q0 -10 -2 -14.5t-12 -7.5l-25 -6q-9 -3 -13 -1t-5 11q-21 169 -116.5 246t-305.5 77q-238 0 -381.5 -116.5t-179.5 -323.5l-90 -512q-37 -213 65 -330.5t342 -117.5q232 0 379 118t183 324l32 193h-465q-9 0 -11.5 3.5t-2.5 12.5 l4 24q6 17 21 17h508z" />
<glyph unicode="&#x121;" horiz-adv-x="1089" d="M692 1352q22 0 28 -7.5t3 -27.5l-2 -8q-3 -22 -12 -29.5t-31 -7.5h-8q-21 0 -27 7t-2 30l2 8q3 20 12 27.5t29 7.5h8zM125 676q34 201 155 300t338 99q191 0 316 -57q46 -21 58 -42t3 -71l-174 -991q-77 -440 -495 -440q-151 0 -232 63.5t-117 175.5q-6 19 11 25l20 8 q13 9 21 -6q22 -69 55 -113.5t95.5 -72t154.5 -27.5q363 0 430 387l27 147q-64 -29 -171 -56.5t-229 -27.5q-197 0 -275.5 105.5t-43.5 294.5zM893 971q-121 53 -281 53q-189 0 -294.5 -87t-137.5 -265l-53 -297q-30 -167 36.5 -256.5t237.5 -89.5q213 0 400 88l137 776 q6 37 -1 49t-44 29z" />
<glyph unicode="&#x122;" horiz-adv-x="1329" d="M1219 719q17 0 14 -19l-43 -235q-40 -232 -201.5 -363t-423.5 -131q-264 0 -383.5 134.5t-79.5 369.5l91 512q42 235 202.5 365.5t425.5 130.5q156 0 258.5 -43.5t152 -121.5t62.5 -196q0 -10 -2 -14.5t-12 -7.5l-25 -6q-9 -3 -13 -1t-5 11q-21 169 -116.5 246t-305.5 77 q-238 0 -381.5 -116.5t-179.5 -323.5l-90 -512q-37 -213 65 -330.5t342 -117.5q232 0 379 118t183 324l32 193h-465q-9 0 -11.5 3.5t-2.5 12.5l4 24q6 17 21 17h508zM455 -481q-9 -17 -23 -17h-16q-18 0 -13 15l144 299q5 16 22 16h23q12 0 14.5 -3.5t-2.5 -12.5z" />
<glyph unicode="&#x123;" horiz-adv-x="1089" d="M752 1503q1 1 3 4q10 11 19 11h14q20 0 13 -15l-166 -286q-5 -11 -8 -14t-13 -3h-20q-24 0 -14 19zM125 676q34 201 155 300t338 99q191 0 316 -57q46 -21 58 -42t3 -71l-174 -991q-77 -440 -495 -440q-151 0 -232 63.5t-117 175.5q-6 19 11 25l20 8q13 9 21 -6 q22 -69 55 -113.5t95.5 -72t154.5 -27.5q363 0 430 387l27 147q-64 -29 -171 -56.5t-229 -27.5q-197 0 -275.5 105.5t-43.5 294.5zM893 971q-121 53 -281 53q-189 0 -294.5 -87t-137.5 -265l-53 -297q-30 -167 36.5 -256.5t237.5 -89.5q213 0 400 88l137 776q6 37 -1 49 t-44 29z" />
<glyph unicode="&#x124;" horiz-adv-x="1390" d="M913 1833q11 0 16.5 -2.5t16.5 -13.5l244 -236q7 -14 -12 -14h-23q-19 0 -27 10l-223 211l-297 -211q-12 -10 -30 -10h-31q-24 0 -6 14l327 236q18 16 35 16h10zM1346 1454q17 0 14 -16l-252 -1422q-3 -16 -18 -16h-29q-17 0 -12 16l120 693h-919l-121 -693 q-5 -16 -20 -16h-27q-17 0 -14 16l251 1422q3 16 19 16h27q17 0 14 -16l-119 -672h920l120 672q0 16 17 16h29z" />
<glyph unicode="&#x125;" horiz-adv-x="1118" d="M100 1630q-12 -10 -26 -10h-33q-11 0 -13 4t5 8l329 238q21 16 35 16h11q11 0 15.5 -2t14.5 -14l244 -238q5 -4 2.5 -8t-12.5 -4h-23q-18 0 -28 10l-222 213zM670 1075q389 0 321 -393l-117 -668q-3 -14 -18 -14h-25q-18 0 -12 14l117 666q30 170 -37.5 257t-241.5 87 q-209 0 -395 -84l-162 -926q-6 -14 -18 -14h-27q-15 0 -12 14l262 1487q3 15 19 15h26q13 0 10 -15l-88 -506q188 80 398 80z" />
<glyph unicode="&#x126;" horiz-adv-x="1400" d="M1468 1184q16 0 11 -15v-12q-3 -10 -6.5 -13t-12.5 -3h-147l-199 -1125q-3 -16 -18 -16h-29q-17 0 -12 16l121 693h-920l-121 -693q-5 -16 -20 -16h-27q-17 0 -14 16l198 1125h-145q-8 0 -10.5 3t-1.5 13l2 12q3 15 16 15h148l45 254q3 16 18 16h27q17 0 14 -16l-45 -254 h920l47 254q0 16 16 16h29q17 0 14 -16l-45 -254h147zM1253 1141h-919l-66 -375h920z" />
<glyph unicode="&#x127;" horiz-adv-x="1118" d="M272 995q188 80 398 80q389 0 321 -393l-117 -668q-3 -14 -18 -14h-25q-18 0 -12 14l117 666q30 170 -37.5 257t-241.5 87q-209 0 -395 -84l-162 -926q-6 -14 -18 -14h-27q-15 0 -12 14l225 1272h-141q-15 0 -12 17l2 12q3 14 16 14h141l31 172q3 15 19 15h26 q13 0 10 -15l-28 -172h358q13 0 10 -14v-12q-3 -10 -6.5 -13.5t-11.5 -3.5h-358z" />
<glyph unicode="&#x128;" horiz-adv-x="411" d="M713 1784q11 0 8 -12q-14 -86 -60 -135.5t-120 -49.5q-41 0 -75 16t-58.5 38.5t-48.5 45t-55 38.5t-66 16q-52 0 -88.5 -39.5t-45.5 -102.5q-5 -12 -16 -12h-18q-8 0 -10 2.5t-1 9.5q15 86 63 135.5t120 49.5q42 0 77 -16t59.5 -39t48 -46t53.5 -39t65 -16 q53 0 87.5 39.5t45.5 104.5q3 12 14 12h21zM319 1438q3 16 19 16h27q17 0 14 -16l-250 -1422q-5 -16 -20 -16h-27q-17 0 -14 16z" />
<glyph unicode="&#x129;" horiz-adv-x="354" d="M535 1427q11 0 8 -12q-17 -95 -51 -136.5t-91 -41.5q-31 0 -53.5 15t-36 36.5t-25.5 42.5t-31.5 36t-45.5 15q-91 0 -113 -135q0 -12 -12 -12h-18q-11 0 -11 12q18 94 55.5 137t96.5 43q33 0 56.5 -15t37 -36.5t26 -43.5t32 -37t47.5 -15q76 0 98 135q3 12 14 12h17z M266 1047q16 0 13 -15l-179 -1018q-6 -14 -18 -14h-27q-15 0 -12 14l178 1018q6 15 19 15h26z" />
<glyph unicode="&#x12a;" horiz-adv-x="411" d="M641 1706q15 0 10 -16l-2 -15q-2 -9 -4.5 -11.5t-11.5 -2.5h-490q-8 0 -10.5 2.5t-1.5 11.5l2 15q3 16 19 16h489zM319 1438q3 16 19 16h27q17 0 14 -16l-250 -1422q-5 -16 -20 -16h-27q-17 0 -14 16z" />
<glyph unicode="&#x12b;" horiz-adv-x="354" d="M459 1339q6 0 7 -2.5t-1 -11.5l-2 -14q-2 -9 -4 -12t-8 -3h-328q-11 0 -8 15l4 14q0 14 10 14h330zM266 1047q16 0 13 -15l-179 -1018q-6 -14 -18 -14h-27q-15 0 -12 14l178 1018q6 15 19 15h26z" />
<glyph unicode="&#x12c;" horiz-adv-x="411" d="M715 1800q-54 -121 -136 -177t-206 -56q-125 0 -191 56.5t-78 176.5q0 14 11 17l24 6q15 0 15 -8q9 -104 64 -152.5t161 -48.5q105 0 175 49t116 152q8 13 18 10l23 -8q12 -6 4 -17zM319 1438q3 16 19 16h27q17 0 14 -16l-250 -1422q-5 -16 -20 -16h-27q-17 0 -14 16z " />
<glyph unicode="&#x12d;" horiz-adv-x="354" d="M555 1440q9 -5 6 -17q-38 -108 -110.5 -164.5t-171.5 -56.5t-152.5 57t-52.5 164q-3 14 10 17l18 6q14 3 17 -8q-6 -191 166 -191q81 0 142 49t91 142q2 8 17 8zM266 1047q16 0 13 -15l-179 -1018q-6 -14 -18 -14h-27q-15 0 -12 14l178 1018q6 15 19 15h26z" />
<glyph unicode="&#x12e;" horiz-adv-x="413" d="M193 -418q1 -4 -7 -16q-90 -74 -188 -74q-48 0 -81 22.5t-40 69.5q-29 161 201 424q-9 0 -6 15l250 1415q5 16 18 16h29q9 0 11.5 -3.5t2.5 -12.5l-252 -1422q0 -8 -6 -14q-220 -252 -193 -391q11 -70 82 -70q40 0 84.5 18t77.5 48q8 9 12 -2z" />
<glyph unicode="&#x12f;" horiz-adv-x="354" d="M297 1323q-22 0 -28.5 7t-2.5 30v8q5 22 14.5 30.5t30.5 8.5h8q22 0 28.5 -8.5t2.5 -30.5v-8q-4 -22 -13.5 -29.5t-31.5 -7.5h-8zM123 -410q7 -7 -2 -16q-62 -78 -150 -78q-137 0 -125 135q11 144 205 373q-8 3 -6 10l178 1018q3 15 19 15h24q16 0 13 -15l-179 -1018 q-3 -10 -6 -10q-2 -3 -22 -27.5t-38 -47t-43 -60t-43.5 -71.5t-33.5 -75t-18 -77q-5 -53 16.5 -79t73.5 -26q68 0 116 64q6 6 15 0z" />
<glyph unicode="&#x130;" horiz-adv-x="411" d="M401 1722q22 0 28.5 -7t2.5 -27l-2 -11q-3 -20 -12 -27.5t-31 -7.5h-8q-20 0 -26 6.5t-3 28.5l2 11q5 20 13 27t28 7h8zM319 1438q3 16 19 16h27q17 0 14 -16l-250 -1422q-5 -16 -20 -16h-27q-17 0 -14 16z" />
<glyph unicode="&#x131;" horiz-adv-x="354" d="M266 1047q16 0 13 -15l-179 -1018q-6 -14 -18 -14h-27q-15 0 -12 14l178 1018q6 15 19 15h26z" />
<glyph unicode="&#x132;" horiz-adv-x="1572" d="M319 1438q3 16 19 16h27q17 0 14 -16l-250 -1422q-5 -16 -20 -16h-27q-17 0 -14 16zM1538 1454q17 0 14 -16l-178 -1010q-39 -218 -181 -338.5t-370 -120.5q-404 0 -401 418q-3 16 12 21l27 10q18 6 18 -12q0 -187 82 -283t266 -96q199 0 326.5 109t161.5 300l176 1002 q3 16 18 16h29z" />
<glyph unicode="&#x133;" horiz-adv-x="856" d="M319 1407q22 0 28.5 -8.5t2.5 -30.5v-8q-4 -22 -13.5 -29.5t-31.5 -7.5h-8q-22 0 -28.5 7t-2.5 30v8q5 22 14.5 30.5t30.5 8.5h8zM821 1407q22 0 28.5 -8.5t2.5 -30.5v-8q-4 -22 -13.5 -29.5t-31.5 -7.5h-8q-22 0 -28.5 7t-2.5 30v8q5 22 14.5 30.5t30.5 8.5h8zM266 1047 q16 0 13 -15l-179 -1018q-6 -14 -18 -14h-27q-15 0 -12 14l178 1018q6 15 19 15h26zM766 1047q18 0 12 -15l-184 -1052q-40 -228 -147 -339.5t-324 -111.5q-12 0 -12 16l4 23q6 14 18 14q97 0 168 25.5t117.5 79t74.5 123.5t46 170l184 1052q6 15 18 15h25z" />
<glyph unicode="&#x134;" horiz-adv-x="1155" d="M1178 1833q11 0 15.5 -2t16.5 -14l244 -236q7 -14 -12 -14h-23q-19 0 -26 10l-224 211l-297 -211q-12 -10 -30 -10h-31q-23 0 -6 14l328 236q13 12 18 14t16 2h11zM1120 1454q18 0 15 -16l-179 -1010q-39 -218 -180.5 -338.5t-369.5 -120.5q-405 0 -402 418q-3 16 12 21 l27 10q18 6 18 -12q0 -187 82.5 -283t266.5 -96q199 0 326 109t161 300l176 1002q3 16 19 16h28z" />
<glyph unicode="&#x135;" horiz-adv-x="354" d="M324 1442q10 0 13.5 -2t12.5 -15l180 -233q5 -4 2.5 -8t-12.5 -4h-18q-21 0 -27 10l-160 211l-239 -211q-12 -10 -29 -10h-29q-20 0 -4 12l267 233q14 13 18 15t16 2h9zM266 1047q16 0 13 -15l-187 -1052q-20 -113 -53 -193.5t-88 -140t-136 -88.5t-192 -29 q-9 0 -11.5 3.5t-2.5 12.5l4 23q6 14 20 14q97 0 167 25.5t116.5 79t74.5 123.5t46 170l184 1052q6 15 21 15h24z" />
<glyph unicode="&#x136;" horiz-adv-x="1214" d="M1065 18q7 -18 -12 -18h-23q-23 0 -29 14l-159 490q-26 75 -57.5 117t-87.5 65t-144 23h-303l-121 -693q-5 -16 -20 -16h-27q-17 0 -14 16l251 1422q3 16 19 16h27q17 0 14 -16l-119 -672h291q39 0 57 -2l617 676q9 14 35 14h30q20 0 6 -18l-628 -686q94 -18 146 -71.5 t83 -148.5zM416 -481q-8 -17 -23 -17h-16q-17 0 -12 15l143 299q5 16 22 16h23q12 0 14.5 -3.5t-2.5 -12.5z" />
<glyph unicode="&#x137;" horiz-adv-x="1007" d="M854 16q2 -9 0 -12.5t-12 -3.5h-25q-20 0 -22 12l-115 361q-25 77 -69.5 110t-131.5 33h-293l-86 -500q-5 -16 -20 -16h-25q-15 0 -12 16l262 1483q3 17 19 17h24q15 0 12 -17l-163 -934h282h23l450 469q15 13 37 13h21q24 0 8 -19l-457 -473q69 -10 108.5 -48.5 t63.5 -111.5zM311 -449q-7 -16 -22 -16h-19q-9 0 -11 2.5t1 11.5l135 322q7 16 25 16h22q23 0 13 -16z" />
<glyph unicode="&#x138;" horiz-adv-x="923" d="M766 20q10 -20 -14 -20h-21q-12 0 -17 2t-9 12l-287 555l-266 -233l-60 -320q-5 -16 -20 -16h-25q-9 0 -11 3.5t1 12.5l194 1014q6 17 23 17h22q19 0 13 -17l-117 -612l702 616q17 13 39 13h27q26 0 4 -19l-483 -420z" />
<glyph unicode="&#x139;" horiz-adv-x="1036" d="M575 1829q21 11 31 -2l10 -15q12 -14 -6 -22l-405 -221q-16 -8 -23 2l-8 12q-8 11 6 19zM365 1454q17 0 14 -16l-244 -1383h780q13 0 13 -16l-4 -23q-5 -16 -21 -16h-821q-17 0 -14 16l251 1422q3 16 19 16h27z" />
<glyph unicode="&#x13a;" horiz-adv-x="368" d="M518 1800q11 5 16 3.5t13 -9.5l8 -14q5 -9 3.5 -14t-11.5 -9l-326 -164q-19 -6 -22 2l-9 13q-5 14 11 20zM109 14q-6 -14 -19 -14h-27q-15 0 -12 14l262 1487q3 15 19 15h26q14 0 11 -15z" />
<glyph unicode="&#x13b;" horiz-adv-x="1036" d="M365 1454q17 0 14 -16l-244 -1383h780q13 0 13 -16l-4 -23q-5 -16 -21 -16h-821q-17 0 -14 16l251 1422q3 16 19 16h27zM348 -481q-8 -17 -22 -17h-17q-17 0 -12 15l143 299q5 16 23 16h22q12 0 15 -3.5t-2 -12.5z" />
<glyph unicode="&#x13c;" horiz-adv-x="368" d="M109 14q-6 -14 -19 -14h-27q-15 0 -12 14l262 1487q3 15 19 15h26q14 0 11 -15zM-49 -455q-8 -18 -25 -18h-14q-16 0 -8 16l139 342q7 17 23 17h20q9 0 12.5 -5t-2.5 -12z" />
<glyph unicode="&#x13d;" horiz-adv-x="1036" d="M365 1454q17 0 14 -16l-244 -1383h780q13 0 13 -16l-4 -23q-5 -16 -21 -16h-821q-17 0 -14 16l251 1422q3 16 19 16h27zM791 1020q-5 -16 -21 -16h-16q-9 0 -11.5 2.5t0.5 11.5l166 420q1 10 5.5 13t15.5 3h24q19 0 11 -16z" />
<glyph unicode="&#x13e;" horiz-adv-x="382" d="M109 14q-6 -14 -19 -14h-27q-15 0 -12 14l262 1487q3 15 19 15h26q14 0 11 -15zM479 1120q-5 -16 -22 -16h-15q-13 0 -8 16l129 379q5 17 23 17h20q20 0 12 -17z" />
<glyph unicode="&#x13f;" horiz-adv-x="1036" d="M365 1454q17 0 14 -16l-244 -1383h780q13 0 13 -16l-4 -23q-5 -16 -21 -16h-821q-17 0 -14 16l251 1422q3 16 19 16h27zM653 758q23 0 29.5 -8.5t3.5 -32.5l-2 -10q-4 -23 -14.5 -31t-34.5 -8h-10q-24 0 -30.5 7.5t-0.5 31.5l2 10q4 23 15 32t34 9h8z" />
<glyph unicode="&#x140;" horiz-adv-x="520" d="M109 14q-6 -14 -19 -14h-27q-15 0 -12 14l262 1487q3 15 19 15h26q14 0 11 -15zM483 811q23 0 29.5 -8.5t3.5 -32.5l-2 -10q-4 -23 -14.5 -31t-34.5 -8h-10q-24 0 -30.5 7.5t-0.5 31.5l2 10q4 23 15 32t34 9h8z" />
<glyph unicode="&#x141;" horiz-adv-x="1075" d="M952 55q16 0 13 -16l-4 -23q-3 -16 -19 -16h-823q-16 0 -13 16l107 611l-217 -99q-11 -6 -14 7l-9 20q-5 13 9 18l241 111l135 754q0 16 17 16h28q18 0 15 -16l-129 -727l510 231q14 7 20 -6l6 -18q3 -15 -10 -19l-534 -244l-107 -600h778z" />
<glyph unicode="&#x142;" horiz-adv-x="495" d="M524 893q4 -8 -10 -19l-223 -120l-129 -740q-6 -14 -21 -14h-24q-16 0 -13 14l125 707l-186 -100q-12 -5 -16 4l-9 16q-3 10 9 18l211 115l129 727q3 15 18 15h25q15 0 12 -15l-121 -696l197 106q6 4 9 4.5t4 -1l5 -7.5z" />
<glyph unicode="&#x143;" horiz-adv-x="1406" d="M1073 1829q21 11 31 -2l10 -15q12 -14 -6 -22l-406 -221q-15 -7 -22 2l-8 12q-8 11 6 19zM1360 1454q17 0 14 -16l-250 -1422q-5 -16 -20 -16h-27q-11 0 -18 12l-576 1098q-21 40 -61 127t-60 123h-4q-9 -51 -26 -167.5t-23 -154.5l-180 -1022q-5 -16 -20 -16h-27 q-17 0 -14 16l251 1422q3 16 19 16h20q16 0 21 -10l561 -1067q30 -57 78.5 -155.5t62.5 -125.5h4q8 47 26 168.5t30 190.5l174 985q3 14 18 14h27z" />
<glyph unicode="&#x144;" horiz-adv-x="1112" d="M856 1460q19 13 31 -2l10 -14q12 -12 -8 -21l-404 -223q-15 -5 -22 2l-8 12q-9 12 6 21zM289 1010q172 65 375 65q199 0 276.5 -101.5t44.5 -291.5l-117 -668q-3 -14 -18 -14h-25q-18 0 -12 14l117 666q30 170 -37.5 257t-241.5 87q-194 0 -344 -61q-31 -13 -43.5 -29.5 t-17.5 -44.5l-152 -875q-6 -14 -18 -14h-27q-15 0 -12 14l156 885q9 46 28 68.5t68 42.5z" />
<glyph unicode="&#x145;" horiz-adv-x="1406" d="M1360 1454q17 0 14 -16l-250 -1422q-5 -16 -20 -16h-27q-11 0 -18 12l-576 1098q-21 40 -61 127t-60 123h-4q-9 -51 -26 -167.5t-23 -154.5l-180 -1022q-5 -16 -20 -16h-27q-17 0 -14 16l251 1422q3 16 19 16h20q16 0 21 -10l561 -1067q30 -57 78.5 -155.5t62.5 -125.5h4 q8 47 26 168.5t30 190.5l174 985q3 14 18 14h27zM467 -481q-9 -17 -23 -17h-16q-17 0 -12 15l143 299q5 16 23 16h22q12 0 14.5 -3.5t-2.5 -12.5z" />
<glyph unicode="&#x146;" horiz-adv-x="1112" d="M289 1010q172 65 375 65q199 0 276.5 -101.5t44.5 -291.5l-117 -668q-3 -14 -18 -14h-25q-18 0 -12 14l117 666q30 170 -37.5 257t-241.5 87q-194 0 -344 -61q-31 -13 -43.5 -29.5t-17.5 -44.5l-152 -875q-6 -14 -18 -14h-27q-15 0 -12 14l156 885q9 46 28 68.5t68 42.5z M377 -426q-4 -10 -8 -13t-13 -3h-16q-10 0 -12.5 2.5t0.5 11.5l147 332q4 10 8 13t13 3h22q20 0 12 -16z" />
<glyph unicode="&#x147;" horiz-adv-x="1406" d="M1229 1835q20 0 4 -16l-326 -234q-20 -16 -37 -16h-8q-12 0 -16.5 2t-14.5 14l-243 234q-5 5 -3 10.5t13 5.5h27q14 0 24 -10l221 -211l301 211q10 10 31 10h27zM1360 1454q17 0 14 -16l-250 -1422q-5 -16 -20 -16h-27q-11 0 -18 12l-576 1098q-21 40 -61 127t-60 123h-4 q-9 -51 -26 -167.5t-23 -154.5l-180 -1022q-5 -16 -20 -16h-27q-17 0 -14 16l251 1422q3 16 19 16h20q16 0 21 -10l561 -1067q30 -57 78.5 -155.5t62.5 -125.5h4q8 47 26 168.5t30 190.5l174 985q3 14 18 14h27z" />
<glyph unicode="&#x148;" horiz-adv-x="1112" d="M1010 1450q11 0 11 -4.5t-7 -9.5l-326 -236q-26 -15 -35 -16h-4q-11 0 -15.5 2.5t-17.5 13.5l-245 238q-8 12 8 12h27q16 0 24 -8l223 -213l299 213q10 8 31 8h27zM664 1075q199 0 276.5 -101.5t44.5 -291.5l-117 -668q-3 -14 -18 -14h-25q-18 0 -12 14l117 666 q30 170 -37.5 257t-241.5 87q-194 0 -344 -61q-31 -13 -43.5 -29.5t-17.5 -44.5l-152 -875q-6 -14 -18 -14h-27q-15 0 -12 14l156 885q9 46 28 68.5t68 42.5q172 65 375 65z" />
<glyph unicode="&#x149;" horiz-adv-x="1112" d="M129 1118q-7 -14 -23 -14h-18q-16 0 -6 16l213 381q7 15 20 15h27q22 0 12 -17zM289 1010q172 65 375 65q199 0 276.5 -101.5t44.5 -291.5l-117 -668q-3 -14 -18 -14h-25q-18 0 -12 14l117 666q30 170 -37.5 257t-241.5 87q-194 0 -344 -61q-31 -13 -43.5 -29.5 t-17.5 -44.5l-152 -875q-6 -14 -18 -14h-27q-15 0 -12 14l156 885q9 46 28 68.5t68 42.5z" />
<glyph unicode="&#x14a;" horiz-adv-x="1409" d="M1364 1454q17 0 14 -16l-260 -1467q-35 -208 -174 -325t-352 -117q-15 0 -12 16l4 23q2 14 18 14q185 0 305 103.5t154 287.5l4 33l-580 1104q-21 41 -61 127.5t-59 122.5h-5q-41 -267 -43 -279l-188 -1065q-5 -16 -20 -16h-27q-17 0 -14 16l251 1422q3 16 19 16h24 q19 0 19 -10l561 -1071q28 -52 74.5 -148t66.5 -133h4q8 46 26 169.5t30 193.5l176 985q0 14 18 14h27z" />
<glyph unicode="&#x14b;" horiz-adv-x="1112" d="M289 1010q172 65 375 65q199 0 276.5 -101.5t44.5 -291.5l-127 -713q-35 -207 -172.5 -323.5t-349.5 -116.5q-13 0 -10 14l2 23q3 10 6.5 13t11.5 3q185 0 305 102.5t154 286.5l125 709q30 170 -37.5 257t-241.5 87q-194 0 -344 -61q-31 -13 -43.5 -29.5t-17.5 -44.5 l-152 -875q-6 -14 -18 -14h-27q-15 0 -12 14l156 885q9 46 28 68.5t68 42.5z" />
<glyph unicode="&#x14c;" horiz-adv-x="1353" d="M1120 1726q15 0 10 -16l-2 -14q-2 -9 -4.5 -12t-11.5 -3h-489q-15 0 -13 15l2 14q3 16 19 16h489zM197 989q42 236 204 365t426 129q262 0 381.5 -136.5t77.5 -371.5l-90 -512q-42 -234 -203 -363t-422 -129q-265 0 -386 136t-79 372zM1227 981q37 209 -67.5 327.5 t-336.5 118.5q-238 0 -383 -116t-182 -330l-90 -508q-37 -210 67.5 -328t339.5 -118q233 0 379 118t183 328z" />
<glyph unicode="&#x14d;" horiz-adv-x="1097" d="M420 1286q-15 0 -12 17l4 14q0 16 16 16h490q15 0 12 -16l-2 -14q-3 -10 -6.5 -13.5t-12.5 -3.5h-489zM627 1075q198 0 300 -94t74 -256l-71 -408q-29 -161 -161 -253.5t-329 -92.5t-301 95t-76 256l72 405q29 162 162.5 255t329.5 93zM946 729q25 134 -64.5 214.5 t-260.5 80.5q-168 0 -285.5 -80.5t-142.5 -214.5l-72 -412q-25 -134 64.5 -214t258.5 -80q171 0 288 79.5t142 214.5z" />
<glyph unicode="&#x14e;" horiz-adv-x="1353" d="M1196 1821q-54 -121 -136 -177.5t-206 -56.5q-125 0 -190.5 57t-77.5 177q0 13 10 16l25 6q14 0 14 -8q9 -104 64 -152.5t161 -48.5q105 0 175 49t116 152q8 13 18 10l23 -8q12 -6 4 -16zM197 989q42 236 204 365t426 129q262 0 381.5 -136.5t77.5 -371.5l-90 -512 q-42 -234 -203 -363t-422 -129q-265 0 -386 136t-79 372zM1227 981q37 209 -67.5 327.5t-336.5 118.5q-238 0 -383 -116t-182 -330l-90 -508q-37 -210 67.5 -328t339.5 -118q233 0 379 118t183 328z" />
<glyph unicode="&#x14f;" horiz-adv-x="1097" d="M995 1425q-54 -119 -136.5 -175t-203.5 -56q-125 0 -191.5 56t-78.5 175q-3 17 10 17l23 6q8 3 10.5 1.5t5.5 -9.5q7 -103 61.5 -151t161.5 -48q106 0 176.5 48.5t116.5 152.5q6 14 17 8l24 -8q10 -2 4 -17zM135 727q29 162 162.5 255t329.5 93q198 0 300 -94t74 -256 l-71 -408q-29 -161 -161 -253.5t-329 -92.5t-301 95t-76 256zM946 729q25 134 -64.5 214.5t-260.5 80.5q-168 0 -285.5 -80.5t-142.5 -214.5l-72 -412q-25 -134 64.5 -214t258.5 -80q171 0 288 79.5t142 214.5z" />
<glyph unicode="&#x150;" horiz-adv-x="1353" d="M600 1583l-14 4q-16 6 0 19l262 237q14 14 26 12l25 -6q18 -5 2 -18l-276 -242q-15 -12 -25 -6zM958 1581l-14 6q-5 1 -6.5 4t0 6.5t6.5 6.5l264 239q14 15 27 12l25 -6q18 -5 2 -18l-279 -242q-12 -12 -25 -8zM197 989q42 236 204 365t426 129q262 0 381.5 -136.5 t77.5 -371.5l-90 -512q-42 -234 -203 -363t-422 -129q-265 0 -386 136t-79 372zM1227 981q37 209 -67.5 327.5t-336.5 118.5q-238 0 -383 -116t-182 -330l-90 -508q-37 -210 67.5 -328t339.5 -118q233 0 379 118t183 328z" />
<glyph unicode="&#x151;" horiz-adv-x="1097" d="M383 1188q-16 3 0 16l262 240q15 15 27 10l24 -4q10 -3 10 -8t-8 -10l-276 -242q-12 -12 -25 -8zM1059 1446q22 -6 4 -19l-287 -235q-11 -11 -24 -8l-15 6q-14 6 0 16l273 234q11 14 26 10zM627 1075q198 0 300 -94t74 -256l-71 -408q-29 -161 -161 -253.5t-329 -92.5 t-301 95t-76 256l72 405q29 162 162.5 255t329.5 93zM946 729q25 134 -64.5 214.5t-260.5 80.5q-168 0 -285.5 -80.5t-142.5 -214.5l-72 -412q-25 -134 64.5 -214t258.5 -80q171 0 288 79.5t142 214.5z" />
<glyph unicode="&#x152;" horiz-adv-x="1703" d="M1509 55q16 0 13 -16l-4 -23q-3 -16 -19 -16h-702q-121 -31 -234 -31q-263 0 -381 136.5t-76 373.5l91 510q42 236 205.5 366t428.5 130q113 0 222 -31h671q18 0 15 -16l-4 -23q-3 -16 -19 -16h-633l-112 -635h547q15 0 12 -16l-4 -25q-5 -16 -21 -16h-544l-115 -652h663 zM168 473q-37 -210 67.5 -329t339.5 -119q109 0 211 28l238 1346q-102 31 -201 31q-236 0 -382 -119t-183 -330z" />
<glyph unicode="&#x153;" horiz-adv-x="1642" d="M877 815q58 125 156.5 192.5t232.5 67.5q183 0 264 -88t43 -252q-32 -137 -138.5 -209.5t-271.5 -72.5q-162 0 -321 43l-23 -131q-28 -159 31 -252t217 -93q129 0 211 49.5t147 149.5q14 16 25 8l18 -12q10 -5 0 -22q-69 -107 -165 -164.5t-244 -57.5q-141 0 -211 66 t-78 180q-60 -116 -159.5 -181t-227.5 -65q-167 0 -253.5 94t-59.5 254l71 412q29 160 146.5 252t285.5 92q139 0 219.5 -67t84.5 -193zM1518 735q35 141 -32.5 216t-225.5 75q-156 0 -257.5 -97.5t-132.5 -273.5l-18 -110q151 -45 322 -45q289 0 344 235zM827 698 q26 154 -45 240t-217 86q-140 0 -241.5 -80t-124.5 -213l-76 -414q-23 -135 51.5 -214.5t214.5 -79.5q145 0 248 93t131 246z" />
<glyph unicode="&#x154;" horiz-adv-x="1300" d="M1006 1829q20 10 30 -2l11 -15q11 -14 -7 -22l-405 -221q-16 -8 -23 2l-8 12q-8 11 6 19zM930 1454q191 0 279.5 -107.5t54.5 -299.5q-32 -178 -150.5 -277.5t-296.5 -107.5q60 -24 96.5 -69t61.5 -116l151 -459q7 -18 -14 -18h-25q-22 0 -28 14l-144 437 q-25 74 -58 116.5t-90 65t-146 22.5h-379l-113 -639q-5 -16 -20 -16h-27q-17 0 -14 16l251 1422q3 16 19 16h592zM1204 1053q29 166 -46.5 256t-242.5 90h-542l-123 -686h543q165 0 273.5 88.5t137.5 251.5z" />
<glyph unicode="&#x155;" horiz-adv-x="681" d="M713 1458q19 12 30 -2l11 -14q12 -12 -9 -21l-403 -223q-16 -5 -23 2l-8 12q-9 12 6 21zM662 1075h61q14 0 14 -14l-4 -21q-5 -16 -18 -16h-64q-189 0 -344 -59q-32 -14 -44 -31.5t-17 -46.5l-152 -873q-6 -14 -18 -14h-27q-15 0 -12 14l156 885q9 46 28 68.5t68 42.5 q168 65 373 65z" />
<glyph unicode="&#x156;" horiz-adv-x="1300" d="M930 1454q191 0 279.5 -107.5t54.5 -299.5q-32 -178 -150.5 -277.5t-296.5 -107.5q60 -24 96.5 -69t61.5 -116l151 -459q7 -18 -14 -18h-25q-22 0 -28 14l-144 437q-25 74 -58 116.5t-90 65t-146 22.5h-379l-113 -639q-5 -16 -20 -16h-27q-17 0 -14 16l251 1422 q3 16 19 16h592zM1204 1053q29 166 -46.5 256t-242.5 90h-542l-123 -686h543q165 0 273.5 88.5t137.5 251.5zM442 -481q-8 -17 -22 -17h-17q-17 0 -12 15l144 299q5 16 22 16h23q12 0 14.5 -3.5t-2.5 -12.5z" />
<glyph unicode="&#x157;" horiz-adv-x="681" d="M662 1075h61q14 0 14 -14l-4 -21q-5 -16 -18 -16h-64q-189 0 -344 -59q-32 -14 -44 -31.5t-17 -46.5l-152 -873q-6 -14 -18 -14h-27q-15 0 -12 14l156 885q9 46 28 68.5t68 42.5q168 65 373 65zM-39 -436q-9 -17 -22 -17h-19q-16 0 -10 17l135 330q5 18 23 18h24 q18 0 12 -18z" />
<glyph unicode="&#x158;" horiz-adv-x="1300" d="M1163 1835q20 0 4 -16l-325 -234q-20 -16 -37 -16h-8q-12 0 -16.5 2t-14.5 14l-244 234q-5 5 -3 10.5t13 5.5h27q15 0 25 -10l221 -211l301 211q10 10 31 10h26zM930 1454q191 0 279.5 -107.5t54.5 -299.5q-32 -178 -150.5 -277.5t-296.5 -107.5q60 -24 96.5 -69 t61.5 -116l151 -459q7 -18 -14 -18h-25q-22 0 -28 14l-144 437q-25 74 -58 116.5t-90 65t-146 22.5h-379l-113 -639q-5 -16 -20 -16h-27q-17 0 -14 16l251 1422q3 16 19 16h592zM1204 1053q29 166 -46.5 256t-242.5 90h-542l-123 -686h543q165 0 273.5 88.5t137.5 251.5z " />
<glyph unicode="&#x159;" horiz-adv-x="684" d="M866 1448q11 0 11 -4.5t-7 -9.5l-325 -236q-26 -15 -35 -16h-4q-11 0 -15.5 2.5t-17.5 13.5l-246 238q-8 12 9 12h26q17 0 25 -8l223 -213l299 213q10 8 31 8h26zM723 1075q14 0 14 -14l-4 -21q-5 -16 -18 -16h-64q-189 0 -344 -59q-32 -14 -44 -31.5t-17 -46.5 l-152 -873q-6 -14 -18 -14h-27q-15 0 -12 14l156 885q9 46 28 68.5t68 42.5q168 65 373 65h61z" />
<glyph unicode="&#x15a;" horiz-adv-x="1251" d="M1012 1847q20 10 30 -2l11 -14q12 -15 -6 -23l-406 -221q-16 -8 -23 2l-8 13q-7 10 6 18zM205 1110q32 183 179 278t386 95q194 0 303.5 -80.5t157.5 -233.5q5 -16 -12 -22l-21 -10q-16 -5 -20 6q-45 139 -142.5 209.5t-273.5 70.5q-212 0 -342.5 -82t-157.5 -239 q-16 -94 11 -159t96.5 -101t138.5 -53.5t174 -30.5q86 -10 146.5 -22.5t127.5 -40.5t104.5 -68t55.5 -108t2 -157q-35 -198 -181.5 -294.5t-412.5 -96.5q-208 0 -328 89.5t-163 273.5q-2 11 1 15.5t13 8.5l27 9q13 5 18 -9q44 -173 148 -251t288 -78q472 0 533 344 q13 76 -5 132.5t-49 88.5t-96.5 54.5t-115 31.5t-136.5 20q-85 10 -150 24t-133 44t-108.5 72.5t-59.5 111.5t-3 158z" />
<glyph unicode="&#x15b;" horiz-adv-x="997" d="M809 1460q19 13 31 -2l10 -14q12 -12 -8 -21l-404 -223q-15 -5 -22 2l-8 12q-9 12 6 21zM137 791q25 138 135 211t299 73q169 0 254.5 -57.5t108.5 -165.5q6 -17 -8 -23l-19 -8q-8 -3 -12 -2.5t-6 2t-4 6.5q-22 98 -94 147.5t-226 49.5q-162 0 -256 -61t-116 -177 q-5 -31 -6 -57t6 -46.5t13 -37t24 -29.5t29 -22t38 -16t41.5 -11.5t49.5 -8.5t50.5 -5.5t55.5 -5.5q15 -1 22 -2q67 -6 116 -15t98 -29.5t76.5 -50.5t40 -79.5t1.5 -114.5q-49 -285 -449 -285q-166 0 -263 61t-124 199q-4 17 13 23l22 6q14 5 19 -8q24 -123 107.5 -176 t229.5 -53q347 0 390 237q10 54 -1 94t-34 64t-67 40t-87 23.5t-106 12.5q-83 8 -125 14t-103.5 25t-88 48t-42 82t-2.5 128z" />
<glyph unicode="&#x15c;" horiz-adv-x="1251" d="M860 1851q11 0 16.5 -2.5t16.5 -13.5l244 -236q7 -14 -13 -14h-22q-20 0 -27 10l-223 211l-297 -211q-12 -10 -31 -10h-30q-25 0 -7 14l328 236q18 16 35 16h10zM205 1110q32 183 179 278t386 95q194 0 303.5 -80.5t157.5 -233.5q5 -16 -12 -22l-21 -10q-16 -5 -20 6 q-45 139 -142.5 209.5t-273.5 70.5q-212 0 -342.5 -82t-157.5 -239q-16 -94 11 -159t96.5 -101t138.5 -53.5t174 -30.5q86 -10 146.5 -22.5t127.5 -40.5t104.5 -68t55.5 -108t2 -157q-35 -198 -181.5 -294.5t-412.5 -96.5q-208 0 -328 89.5t-163 273.5q-2 11 1 15.5t13 8.5 l27 9q13 5 18 -9q44 -173 148 -251t288 -78q472 0 533 344q13 76 -5 132.5t-49 88.5t-96.5 54.5t-115 31.5t-136.5 20q-85 10 -150 24t-133 44t-108.5 72.5t-59.5 111.5t-3 158z" />
<glyph unicode="&#x15d;" horiz-adv-x="997" d="M289 1186q-11 0 -13 4t5 8l329 238q21 16 35 16h10q11 0 16 -2.5t15 -13.5l244 -238q5 -4 2.5 -8t-12.5 -4h-23q-19 0 -29 10l-221 213l-299 -213q-12 -10 -26 -10h-33zM934 852q6 -17 -8 -23l-19 -8q-8 -3 -12 -2.5t-6 2t-4 6.5q-22 98 -94 147.5t-226 49.5 q-162 0 -256 -61t-116 -177q-5 -31 -6 -57t6 -46.5t13 -37t24 -29.5t29 -22t38 -16t41.5 -11.5t49.5 -8.5t50.5 -5.5t55.5 -5.5q15 -1 22 -2q67 -6 116 -15t98 -29.5t76.5 -50.5t40 -79.5t1.5 -114.5q-49 -285 -449 -285q-166 0 -263 61t-124 199q-4 17 13 23l22 6 q14 5 19 -8q24 -123 107.5 -176t229.5 -53q347 0 390 237q10 54 -1 94t-34 64t-67 40t-87 23.5t-106 12.5q-83 8 -125 14t-103.5 25t-88 48t-42 82t-2.5 128q25 138 135 211t299 73q169 0 254.5 -57.5t108.5 -165.5z" />
<glyph unicode="&#x15e;" horiz-adv-x="1251" d="M205 1110q32 183 179 278t386 95q194 0 303.5 -80.5t157.5 -233.5q5 -16 -12 -22l-21 -10q-16 -5 -20 6q-45 139 -142.5 209.5t-273.5 70.5q-212 0 -342.5 -82t-157.5 -239q-16 -94 11 -159t96.5 -101t138.5 -53.5t174 -30.5q86 -10 146.5 -22.5t127.5 -40.5t104.5 -68 t55.5 -108t2 -157q-34 -191 -171.5 -287t-381.5 -104l-82 -159q27 8 74 8q85 0 125.5 -39.5t28.5 -108.5q-17 -88 -84.5 -137t-167.5 -49q-102 0 -168 49q-14 12 -10 27l2 18q1 6 5 8.5t7 -0.5q63 -59 166 -59q82 0 135.5 38.5t65.5 108.5q9 55 -25.5 83t-106.5 28 q-51 0 -86 -14q-13 -3 -16.5 2.5t4.5 19.5l90 176q-206 0 -326 89.5t-163 273.5q-2 11 1 15.5t13 8.5l27 9q13 5 18 -9q44 -173 148 -251t288 -78q472 0 533 344q13 76 -5 132.5t-49 88.5t-96.5 54.5t-115 31.5t-136.5 20q-85 10 -150 24t-133 44t-108.5 72.5t-59.5 111.5 t-3 158z" />
<glyph unicode="&#x15f;" horiz-adv-x="997" d="M137 791q25 138 135 211t299 73q169 0 254.5 -57.5t108.5 -165.5q6 -17 -8 -23l-19 -8q-8 -3 -12 -2.5t-6 2t-4 6.5q-22 98 -94 147.5t-226 49.5q-162 0 -256 -61t-116 -177q-5 -31 -6 -57t6 -46.5t13 -37t24 -29.5t29 -22t38 -16t41.5 -11.5t49.5 -8.5t50.5 -5.5 t55.5 -5.5q15 -1 22 -2q67 -6 116 -15t98 -29.5t76.5 -50.5t40 -79.5t1.5 -114.5q-49 -271 -414 -285l-84 -155q40 8 74 8q86 0 126 -39.5t28 -108.5q-17 -88 -84.5 -137t-167.5 -49q-102 0 -168 49q-14 8 -11 27l3 18q2 6 5.5 8.5t6.5 -0.5q61 -61 166 -61q82 0 135 39.5 t67 110.5q7 53 -27.5 80.5t-105.5 27.5q-56 0 -84 -12q-15 -4 -18.5 2t4.5 20l92 172q-162 2 -257 63t-122 197q-4 17 13 23l22 6q14 5 19 -8q24 -123 107.5 -176t229.5 -53q347 0 390 237q10 54 -1 94t-34 64t-67 40t-87 23.5t-106 12.5q-83 8 -125 14t-103.5 25t-88 48 t-42 82t-2.5 128z" />
<glyph unicode="&#x160;" horiz-adv-x="1251" d="M1169 1853q21 0 5 -16l-326 -233q-21 -17 -37 -17h-8q-12 0 -16 2.5t-15 14.5l-244 233q-5 5 -2.5 10.5t13.5 5.5h26q15 0 25 -10l221 -211l301 211q10 10 31 10h26zM205 1110q32 183 179 278t386 95q194 0 303.5 -80.5t157.5 -233.5q5 -16 -12 -22l-21 -10q-16 -5 -20 6 q-45 139 -142.5 209.5t-273.5 70.5q-212 0 -342.5 -82t-157.5 -239q-16 -94 11 -159t96.5 -101t138.5 -53.5t174 -30.5q86 -10 146.5 -22.5t127.5 -40.5t104.5 -68t55.5 -108t2 -157q-35 -198 -181.5 -294.5t-412.5 -96.5q-208 0 -328 89.5t-163 273.5q-2 11 1 15.5t13 8.5 l27 9q13 5 18 -9q44 -173 148 -251t288 -78q472 0 533 344q13 76 -5 132.5t-49 88.5t-96.5 54.5t-115 31.5t-136.5 20q-85 10 -150 24t-133 44t-108.5 72.5t-59.5 111.5t-3 158z" />
<glyph unicode="&#x161;" horiz-adv-x="997" d="M961 1450q11 0 11 -4.5t-7 -9.5l-326 -236q-26 -15 -35 -16h-4q-11 0 -15.5 2.5t-17.5 13.5l-245 238q-8 12 8 12h26q17 0 25 -8l223 -213l299 213q10 8 31 8h27zM571 1075q169 0 254.5 -57.5t108.5 -165.5q6 -17 -8 -23l-19 -8q-8 -3 -12 -2.5t-6 2t-4 6.5 q-22 98 -94 147.5t-226 49.5q-162 0 -256 -61t-116 -177q-5 -31 -6 -57t6 -46.5t13 -37t24 -29.5t29 -22t38 -16t41.5 -11.5t49.5 -8.5t50.5 -5.5t55.5 -5.5q15 -1 22 -2q67 -6 116 -15t98 -29.5t76.5 -50.5t40 -79.5t1.5 -114.5q-49 -285 -449 -285q-166 0 -263 61 t-124 199q-4 17 13 23l22 6q14 5 19 -8q24 -123 107.5 -176t229.5 -53q347 0 390 237q10 54 -1 94t-34 64t-67 40t-87 23.5t-106 12.5q-83 8 -125 14t-103.5 25t-88 48t-42 82t-2.5 128q25 138 135 211t299 73z" />
<glyph unicode="&#x164;" horiz-adv-x="1069" d="M1061 1835q20 0 4 -16l-326 -234q-20 -16 -37 -16h-8q-12 0 -16 2t-14 14l-244 234q-5 5 -3 10.5t13 5.5h27q14 0 24 -10l221 -211l302 211q10 10 30 10h27zM1174 1454q17 0 14 -16l-6 -23q0 -16 -17 -16h-465l-243 -1383q-3 -16 -21 -16h-26q-18 0 -13 16l244 1383h-465 q-17 0 -14 16l4 23q3 16 18 16h990z" />
<glyph unicode="&#x165;" horiz-adv-x="669" d="M694 1176q-8 -17 -22 -17h-15q-9 0 -11 3t1 12l133 325q7 17 23 17h22q19 0 13 -17zM410 1292q18 0 12 -14l-39 -231h346q16 0 10 -15l-2 -22q-3 -15 -18 -15h-344l-113 -630q-12 -71 -14.5 -122t7.5 -90t30.5 -63t58 -39t85 -20.5t116.5 -5.5q15 0 12 -15l-4 -22 q-3 -17 -18 -17q-77 -1 -132 6.5t-97.5 25t-67.5 46.5t-37 73t-10 102.5t16 137.5l110 633h-237q-15 0 -12 15l2 22q6 15 20 15h236l41 231q3 14 18 14h25z" />
<glyph unicode="&#x166;" horiz-adv-x="1124" d="M1200 1454q17 0 14 -16l-6 -23q0 -16 -16 -16h-465l-123 -697h324q9 0 11 -2.5t1 -11.5l-4 -16q-3 -19 -18 -19h-324l-111 -637q-3 -16 -20 -16h-27q-17 0 -12 16l111 637h-324q-8 0 -10 3.5t-2 15.5l4 16q5 14 18 14h324l123 697h-465q-18 0 -15 16l5 23q3 16 18 16h989 z" />
<glyph unicode="&#x167;" horiz-adv-x="679" d="M420 1292q15 0 12 -14l-39 -231h344q19 0 13 -15l-5 -22q0 -15 -16 -15h-346l-78 -436h285q15 0 10 -14v-17q-3 -8 -6.5 -11t-11.5 -3h-283l-27 -149q-12 -71 -14.5 -122t7.5 -89.5t30.5 -62.5t57.5 -38.5t84.5 -20t115.5 -5.5q17 0 14 -17l-4 -22q-3 -17 -18 -17 q-77 -1 -132 6.5t-97.5 25t-67.5 46.5t-37 73t-10 102.5t16 137.5l25 152h-197q-15 0 -12 14l2 17q2 14 16 14h199l78 436h-238q-14 0 -14 15l4 22q6 15 18 15h238l41 231q3 14 18 14h25z" />
<glyph unicode="&#x168;" horiz-adv-x="1390" d="M1204 1784q11 0 8 -12q-14 -86 -60 -135.5t-120 -49.5q-41 0 -75 16t-58.5 38.5t-48.5 45t-55 38.5t-66 16q-52 0 -88 -39.5t-45 -102.5q-5 -12 -16 -12h-19q-8 0 -9.5 2.5t-0.5 9.5q15 86 62.5 135.5t119.5 49.5q42 0 77 -16t59.5 -39t48 -46t53.5 -39t65 -16 q53 0 87.5 39.5t45.5 104.5q3 12 15 12h20zM201 492q-38 -218 60 -342.5t331 -124.5q234 0 375.5 124.5t177.5 342.5l170 946q0 16 16 16h29q17 0 14 -16l-170 -957q-42 -242 -198.5 -377t-419.5 -135q-262 0 -374.5 143t-70.5 386l168 940q3 16 19 16h26q18 0 15 -16z" />
<glyph unicode="&#x169;" d="M999 1415q12 0 9 -12q-14 -86 -58.5 -135t-118.5 -49q-41 0 -75.5 16t-60 38.5t-50.5 44.5t-56.5 38t-66.5 16q-51 0 -86.5 -39t-46.5 -102q-2 -12 -14 -12h-19q-8 0 -10 2.5t-2 9.5q15 86 62 135t118 49q41 0 75.5 -16t60 -38.5t50 -44.5t55.5 -38t66 -16 q54 0 88.5 38.5t45.5 102.5q3 12 14 12h20zM1032 1047q15 0 12 -15l-155 -882q-9 -48 -28 -70.5t-68 -42.5q-170 -66 -375 -66q-198 0 -276.5 102.5t-45.5 291.5l117 667q6 15 18 15h27q15 0 12 -15l-118 -665q-30 -171 36.5 -257.5t241.5 -86.5q189 0 344 59 q32 14 44.5 31.5t17.5 46.5l153 872q3 15 19 15h24z" />
<glyph unicode="&#x16a;" horiz-adv-x="1390" d="M1133 1706q15 0 10 -16l-2 -15q-1 -9 -4.5 -11.5t-12.5 -2.5h-489q-8 0 -10.5 2.5t-1.5 11.5l2 15q3 16 18 16h490zM201 492q-38 -218 60 -342.5t331 -124.5q234 0 375.5 124.5t177.5 342.5l170 946q0 16 16 16h29q17 0 14 -16l-170 -957q-42 -242 -198.5 -377 t-419.5 -135q-262 0 -374.5 143t-70.5 386l168 940q3 16 19 16h26q18 0 15 -16z" />
<glyph unicode="&#x16b;" d="M926 1333q15 0 12 -16l-2 -14q-3 -10 -6.5 -13.5t-11.5 -3.5h-490q-15 0 -12 17l4 14q0 16 16 16h490zM1032 1047q15 0 12 -15l-155 -882q-9 -48 -28 -70.5t-68 -42.5q-170 -66 -375 -66q-198 0 -276.5 102.5t-45.5 291.5l117 667q6 15 18 15h27q15 0 12 -15l-118 -665 q-30 -171 36.5 -257.5t241.5 -86.5q189 0 344 59q32 14 44.5 31.5t17.5 46.5l153 872q3 15 19 15h24z" />
<glyph unicode="&#x16c;" horiz-adv-x="1390" d="M1208 1800q-54 -121 -136 -177t-206 -56q-125 0 -190.5 56.5t-77.5 176.5q0 14 10 17l25 6q14 0 14 -8q9 -104 64 -152.5t161 -48.5q105 0 175 49t116 152q8 13 19 10l22 -8q12 -6 4 -17zM201 492q-38 -218 60 -342.5t331 -124.5q234 0 375.5 124.5t177.5 342.5l170 946 q0 16 16 16h29q17 0 14 -16l-170 -957q-42 -242 -198.5 -377t-419.5 -135q-262 0 -374.5 143t-70.5 386l168 940q3 16 19 16h26q18 0 15 -16z" />
<glyph unicode="&#x16d;" d="M1004 1425q-54 -119 -136.5 -175t-203.5 -56q-126 0 -192.5 56t-78.5 175q-3 17 10 17l23 6q8 3 10.5 1.5t5.5 -9.5q7 -103 62 -151t162 -48q106 0 176 48.5t116 152.5q6 14 17 8l24 -8q11 -3 5 -17zM1032 1047q15 0 12 -15l-155 -882q-9 -48 -28 -70.5t-68 -42.5 q-170 -66 -375 -66q-198 0 -276.5 102.5t-45.5 291.5l117 667q6 15 18 15h27q15 0 12 -15l-118 -665q-30 -171 36.5 -257.5t241.5 -86.5q189 0 344 59q32 14 44.5 31.5t17.5 46.5l153 872q3 15 19 15h24z" />
<glyph unicode="&#x16e;" horiz-adv-x="1390" d="M698 1710q15 87 78 137.5t154 50.5q88 0 129 -50t26 -138t-74.5 -138t-148.5 -50q-91 0 -135 50t-29 138zM1049 1710q11 71 -23 111.5t-104 40.5q-74 0 -125.5 -41t-61.5 -111q-12 -69 23 -110t108 -41q72 0 121.5 41t61.5 110zM201 492q-38 -218 60 -342.5t331 -124.5 q234 0 375.5 124.5t177.5 342.5l170 946q0 16 16 16h29q17 0 14 -16l-170 -957q-42 -242 -198.5 -377t-419.5 -135q-262 0 -374.5 143t-70.5 386l168 940q3 16 19 16h26q18 0 15 -16z" />
<glyph unicode="&#x16f;" d="M494 1325q15 87 77 135.5t154 48.5q87 0 129 -52t27 -140q-15 -86 -75 -135t-149 -49q-90 0 -134 52t-29 140zM846 1321q12 70 -22 111t-105 41q-75 0 -125 -40t-62 -112q-12 -69 23.5 -110.5t108.5 -41.5q72 0 121 41.5t61 110.5zM1032 1047q15 0 12 -15l-155 -882 q-9 -48 -28 -70.5t-68 -42.5q-170 -66 -375 -66q-198 0 -276.5 102.5t-45.5 291.5l117 667q6 15 18 15h27q15 0 12 -15l-118 -665q-30 -171 36.5 -257.5t241.5 -86.5q189 0 344 59q32 14 44.5 31.5t17.5 46.5l153 872q3 15 19 15h24z" />
<glyph unicode="&#x170;" horiz-adv-x="1390" d="M612 1563l-14 4q-15 6 0 18l262 238q15 15 27 12l24 -6q19 -5 2 -19l-276 -241q-15 -12 -25 -6zM971 1561l-15 6q-5 1 -6.5 3.5t0 6t6.5 6.5l265 240q14 14 26 12l25 -6q19 -5 2 -19l-279 -241q-12 -12 -24 -8zM201 492q-38 -218 60 -342.5t331 -124.5q234 0 375.5 124.5 t177.5 342.5l170 946q0 16 16 16h29q17 0 14 -16l-170 -957q-42 -242 -198.5 -377t-419.5 -135q-262 0 -374.5 143t-70.5 386l168 940q3 16 19 16h26q18 0 15 -16z" />
<glyph unicode="&#x171;" d="M406 1182l-15 6q-16 3 0 16l262 240q15 15 27 10l25 -4q10 -3 10 -8t-8 -10l-277 -242q-12 -12 -24 -8zM760 1184l-15 6q-14 6 0 16l273 234q11 14 26 10l23 -4q22 -6 4 -19l-287 -235q-11 -11 -24 -8zM1032 1047q15 0 12 -15l-155 -882q-9 -48 -28 -70.5t-68 -42.5 q-170 -66 -375 -66q-198 0 -276.5 102.5t-45.5 291.5l117 667q6 15 18 15h27q15 0 12 -15l-118 -665q-30 -171 36.5 -257.5t241.5 -86.5q189 0 344 59q32 14 44.5 31.5t17.5 46.5l153 872q3 15 19 15h24z" />
<glyph unicode="&#x172;" horiz-adv-x="1390" d="M1360 1454q17 0 14 -16l-170 -957q-51 -281 -243 -411q-154 -105 -253 -246.5t-85 -218.5q6 -36 25 -50t61 -14q82 0 157 68q7 7 13 -2l4 -27q4 -6 -6 -16q-87 -72 -187 -72q-104 0 -121 92q-14 74 56.5 196.5t193.5 223.5q-103 -35 -233 -35q-262 0 -374.5 143 t-70.5 386l168 940q3 16 19 16h26q18 0 15 -16l-168 -946q-38 -218 60 -342.5t331 -124.5q234 0 375.5 124.5t177.5 342.5l170 946q0 16 16 16h29z" />
<glyph unicode="&#x173;" d="M1032 1047q15 0 12 -15l-153 -882q-11 -67 -55 -93q-142 -98 -232.5 -236.5t-77.5 -213.5q13 -66 90 -66q84 0 156 66q8 9 12 -2l4 -23q0 -8 -8 -16q-90 -74 -188 -74q-47 0 -80.5 22.5t-40.5 69.5q-16 79 58.5 205t205.5 229q-143 -47 -317 -47q-198 0 -276.5 103 t-45.5 293l117 665q6 15 18 15h27q15 0 12 -15l-118 -665q-28 -171 38.5 -257.5t241.5 -86.5q187 0 342 59q32 14 44.5 31.5t17.5 46.5l153 872q3 15 19 15h24z" />
<glyph unicode="&#x174;" horiz-adv-x="1765" d="M1106 1833q11 0 16.5 -2.5t16.5 -13.5l243 -236q7 -14 -12 -14h-22q-20 0 -27 10l-223 211l-297 -211q-12 -10 -31 -10h-31q-24 0 -6 14l328 236q18 16 35 16h10zM1851 1454q16 0 11 -16l-641 -1422q-7 -16 -27 -16h-27q-20 0 -20 16l-121 1135q-5 47 -14 176h-4 q-67 -153 -78 -176l-527 -1135q-7 -16 -26 -16h-27q-18 0 -20 16l-137 1422q-3 16 12 16h31q19 0 22 -14l109 -1174q3 -33 7 -97.5t5 -80.5h2q1 3 30.5 72.5t45.5 103.5l528 1139q9 14 27 14h26q19 0 19 -14l123 -1143q11 -104 14 -172h4q8 19 31.5 79t36.5 91l532 1182 q6 14 23 14h30z" />
<glyph unicode="&#x175;" horiz-adv-x="1484" d="M530 1184q-11 0 -13 4t5 8l330 238q21 16 35 16h10q11 0 16 -2.5t15 -13.5l243 -238q5 -4 2.5 -8t-12.5 -4h-22q-19 0 -29 10l-221 213l-299 -213q-12 -10 -27 -10h-33zM1499 1047q19 0 10 -19l-505 -1022q-8 -16 -23 -16h-23q-10 0 -14 3.5t-6 12.5l-119 787 q-15 130 -18 143h-2q-25 -55 -72 -143l-399 -787q-4 -8 -7 -11.5t-6 -4t-10 -0.5h-22q-6 0 -8.5 0.5t-5 4t-3.5 11.5l-145 1022q0 19 16 19h21q13 0 16.5 -3.5t3.5 -13.5l109 -780q14 -141 20 -180h2q9 18 39.5 83.5t48.5 100.5l381 741q5 15 27 15h14q19 0 21 -15l114 -733 q5 -36 13.5 -102t11.5 -90h2q32 63 90 190l379 770q7 17 29 17h20z" />
<glyph unicode="&#x176;" horiz-adv-x="1249" d="M846 1833q11 0 16.5 -2.5t16.5 -13.5l243 -236q7 -14 -12 -14h-23q-19 0 -26 10l-223 211l-297 -211q-12 -10 -31 -10h-31q-23 0 -6 14l328 236q18 16 35 16h10zM1358 1454q9 0 11 -5t-3 -11l-715 -836l-102 -586q-3 -16 -21 -16h-26q-18 0 -13 16l103 588l-416 834 q-3 6 0 11t10 5h33q22 0 29 -14l385 -774l657 774q9 14 31 14h37z" />
<glyph unicode="&#x177;" horiz-adv-x="1120" d="M342 1184q-11 0 -13 4t5 8l330 238q21 16 34 16h11q11 0 15.5 -2t14.5 -14l244 -238q5 -4 2.5 -8t-12.5 -4h-23q-18 0 -28 10l-222 213l-299 -213q-13 -10 -26 -10h-33zM1032 1047q15 0 12 -15l-196 -1116q-78 -442 -500 -442q-277 0 -350 239q-9 19 10 25l19 8 q15 8 22 -6q32 -102 103.5 -157.5t205.5 -55.5q365 0 435 387l24 141q-137 -48 -222 -63t-175 -15q-199 0 -277 103t-45 293l115 659q6 15 18 15h27q15 0 12 -15l-116 -659q-30 -172 35 -258t243 -86q183 0 393 80l164 923q3 15 19 15h24z" />
<glyph unicode="&#x178;" horiz-adv-x="1249" d="M635 1731q21 0 26 -6.5t3 -26.5l-2 -12q-5 -21 -12.5 -28t-28.5 -7h-13q-19 0 -24.5 7.5t-1.5 27.5l2 12q3 19 11.5 26t27.5 7h12zM1022 1731q19 0 25.5 -7t5.5 -26l-4 -12q-3 -20 -12.5 -27.5t-28.5 -7.5h-11q-21 0 -27 7t-1 28l2 12q3 19 11.5 26t29.5 7h10zM1358 1454 q9 0 11 -5t-3 -11l-715 -836l-102 -586q-3 -16 -21 -16h-26q-18 0 -13 16l103 588l-416 834q-3 6 0 11t10 5h33q22 0 29 -14l385 -774l657 774q9 14 31 14h37z" />
<glyph unicode="&#x179;" horiz-adv-x="1105" d="M930 1829q21 11 31 -2l10 -15q12 -14 -6 -22l-406 -221q-15 -7 -22 2l-9 12q-8 10 7 19zM1163 1454q15 0 15 -16l-4 -21q-2 -11 -13 -22l-1130 -1338h913q17 0 12 -16l-4 -25q-3 -16 -18 -16h-971q-17 0 -12 16l4 23q0 15 10 27l1129 1333h-875q-16 0 -16 16l6 23 q3 16 18 16h936z" />
<glyph unicode="&#x17a;" horiz-adv-x="888" d="M752 1458q19 12 30 -2l11 -14q12 -12 -9 -21l-403 -223q-16 -5 -23 2l-8 12q-9 12 6 21zM29 51h694q12 0 12 -14l-4 -23q-6 -14 -16 -14h-752q-15 0 -12 14l4 23q3 11 12 20l858 938h-680q-13 0 -10 17l2 20q6 15 19 15h733q15 0 12 -15l-4 -20q0 -9 -12 -25z" />
<glyph unicode="&#x17b;" horiz-adv-x="1105" d="M758 1722q22 0 28 -7t2 -27l-2 -11q-3 -20 -12 -27.5t-31 -7.5h-8q-20 0 -25.5 6.5t-2.5 28.5l2 11q5 20 13 27t28 7h8zM1163 1454q15 0 15 -16l-4 -21q-2 -11 -13 -22l-1130 -1338h913q17 0 12 -16l-4 -25q-3 -16 -18 -16h-971q-17 0 -12 16l4 23q0 15 10 27l1129 1333 h-875q-16 0 -16 16l6 23q3 16 18 16h936z" />
<glyph unicode="&#x17c;" horiz-adv-x="888" d="M580 1352q21 0 27 -7t3 -28l-2 -8q-3 -22 -12 -29.5t-31 -7.5h-8q-21 0 -27 7t-2 30l2 8q3 20 12 27.5t29 7.5h9zM29 51h694q12 0 12 -14l-4 -23q-6 -14 -16 -14h-752q-15 0 -12 14l4 23q3 11 12 20l858 938h-680q-13 0 -10 17l2 20q6 15 19 15h733q15 0 12 -15l-4 -20 q0 -9 -12 -25z" />
<glyph unicode="&#x17d;" horiz-adv-x="1105" d="M1087 1835q21 0 5 -16l-326 -234q-20 -16 -37 -16h-8q-12 0 -16.5 2t-14.5 14l-244 234q-5 5 -2.5 10.5t13.5 5.5h26q15 0 25 -10l221 -211l301 211q10 10 31 10h26zM1163 1454q15 0 15 -16l-4 -21q-2 -11 -13 -22l-1130 -1338h913q17 0 12 -16l-4 -25q-3 -16 -18 -16 h-971q-17 0 -12 16l4 23q0 15 10 27l1129 1333h-875q-16 0 -16 16l6 23q3 16 18 16h936z" />
<glyph unicode="&#x17e;" horiz-adv-x="888" d="M905 1448q11 0 11 -4.5t-7 -9.5l-325 -236q-26 -15 -35 -16h-4q-11 0 -15.5 2.5t-17.5 13.5l-246 238q-8 12 8 12h27q17 0 25 -8l223 -213l299 213q10 8 31 8h26zM889 1047q15 0 12 -15l-4 -20q0 -9 -12 -25l-856 -936h694q12 0 12 -14l-4 -23q-6 -14 -16 -14h-752 q-15 0 -12 14l4 23q3 11 12 20l858 938h-680q-13 0 -10 17l2 20q6 15 19 15h733z" />
<glyph unicode="&#x17f;" horiz-adv-x="468" d="M313 1124q41 225 143 308.5t326 83.5q13 0 13 -17l-4 -22q-6 -15 -19 -15q-103 0 -168 -14.5t-113.5 -54t-75.5 -103.5t-46 -168l-195 -1108q-3 -14 -18 -14h-25q-15 0 -12 14l172 981h-197q-15 0 -12 15l2 22q6 15 20 15h197z" />
<glyph unicode="&#x2c6;" horiz-adv-x="745" d="M545 1468q11 0 15.5 -2t14.5 -14l244 -238q5 -4 2.5 -8t-12.5 -4h-23q-18 0 -28 10l-221 213l-299 -213q-13 -10 -27 -10h-33q-11 0 -13 4t5 8l330 238q21 16 35 16h10z" />
<glyph unicode="&#x2da;" horiz-adv-x="491" d="M188 1303q15 87 77.5 135.5t154.5 48.5q87 0 128.5 -52.5t26.5 -140.5q-15 -86 -74.5 -135t-148.5 -49q-90 0 -134.5 52.5t-29.5 140.5zM541 1298q12 70 -22 111t-105 41q-75 0 -125 -40t-62 -112q-12 -69 23 -110t108 -41q72 0 121.5 41t61.5 110z" />
<glyph unicode="&#x2dc;" horiz-adv-x="624" d="M778 1434q11 0 8 -13q-14 -87 -58 -135.5t-118 -48.5q-41 0 -75.5 16t-60 38.5t-50.5 45t-56.5 38.5t-66.5 16q-51 0 -86.5 -39.5t-46.5 -102.5q-2 -12 -14 -12h-19q-7 0 -9.5 2.5t-2.5 9.5q15 86 62 135.5t118 49.5q41 0 75.5 -16t60 -38.5t50 -45t55.5 -38.5t66 -16 q54 0 88 38.5t45 102.5q3 13 15 13h20z" />
<glyph unicode="&#x401;" horiz-adv-x="1161" d="M639 1710q21 0 26 -6.5t3 -26.5l-2 -14q-5 -21 -12.5 -27t-28.5 -6h-13q-19 0 -24.5 6.5t-1.5 26.5l2 14q3 19 11.5 26t27.5 7h12zM1026 1710q19 0 25.5 -7t5.5 -26l-4 -14q-3 -19 -12 -26t-29 -7h-11q-22 0 -27.5 6.5t-0.5 26.5l2 14q3 19 11.5 26t29.5 7h10zM1180 1454 q17 0 14 -16l-6 -23q-3 -16 -19 -16h-796l-113 -633h711q17 0 12 -16l-4 -25q-3 -16 -18 -16h-711l-115 -654h828q9 0 11.5 -3.5t2.5 -12.5l-4 -23q-5 -16 -21 -16h-870q-17 0 -14 16l251 1422q3 16 19 16h842z" />
<glyph unicode="&#x410;" horiz-adv-x="1280" d="M1151 16q0 -16 -16 -16h-21q-24 0 -27 14l-112 494h-705l-284 -494q-11 -14 -33 -14h-25q-20 0 -10 16l832 1432q11 16 26 16h25q19 0 22 -14zM967 559l-183 789q-4 46 -4 55h-2q-13 -39 -20 -55l-459 -789h668z" />
<glyph unicode="&#x411;" horiz-adv-x="1277" d="M1225 1454q16 0 16 -16l-6 -23q-3 -16 -18 -16h-844l-107 -598h555q191 0 283 -109t57 -299q-33 -190 -157 -291.5t-316 -101.5h-606q-17 0 -14 16l251 1422q3 16 19 16h887zM1102 399q29 165 -47 254.5t-244 89.5h-553l-121 -688h555q165 0 273 89.5t137 254.5z" />
<glyph unicode="&#x412;" horiz-adv-x="1306" d="M920 1454q179 0 262.5 -95t52.5 -269q-47 -273 -283 -340v-2q126 -29 181.5 -127.5t27.5 -243.5q-35 -184 -156 -280.5t-309 -96.5h-614q-17 0 -14 16l251 1422q3 16 19 16h582zM1174 1085q28 155 -41 234.5t-226 79.5h-534l-113 -629h535q156 0 253.5 80.5t125.5 234.5z M1102 387q26 157 -47 242.5t-234 85.5h-567l-117 -660h570q160 0 263 85.5t132 246.5z" />
<glyph unicode="&#x413;" horiz-adv-x="1050" d="M1133 1454q9 0 11.5 -3.5t2.5 -12.5l-6 -23q-3 -16 -19 -16h-749l-244 -1383q-5 -16 -20 -16h-27q-17 0 -14 16l251 1422q3 16 19 16h795z" />
<glyph unicode="&#x414;" horiz-adv-x="1421" d="M1339 1454q18 0 15 -16l-244 -1383h147q16 0 13 -16l-60 -336q-3 -16 -18 -16h-27q-17 0 -14 16l53 297h-1224l-54 -297q-3 -16 -18 -16h-27q-17 0 -14 16l59 336q3 16 21 16h94q42 27 72 53t77 95t84.5 165t83 265.5t84.5 392.5l74 412q3 16 19 16h804zM1286 1399h-719 l-67 -373q-37 -208 -79 -371t-78.5 -261t-79.5 -171t-73.5 -106t-68.5 -62h930z" />
<glyph unicode="&#x415;" horiz-adv-x="1161" d="M1180 1454q17 0 14 -16l-6 -23q-3 -16 -19 -16h-796l-113 -633h711q17 0 12 -16l-4 -25q-3 -16 -18 -16h-711l-115 -654h828q9 0 11.5 -3.5t2.5 -12.5l-4 -23q-5 -16 -21 -16h-870q-17 0 -14 16l251 1422q3 16 19 16h842z" />
<glyph unicode="&#x416;" horiz-adv-x="1837" d="M1907 1454q10 0 12 -5t-6 -13l-590 -693q74 -24 120 -76t73 -137l170 -512q4 -18 -15 -18h-22q-26 0 -29 14l-160 490q-37 111 -101 158t-198 47h-198l-121 -693q-3 -16 -21 -16h-26q-18 0 -13 16l121 693h-198q-130 0 -212 -48t-155 -157l-334 -490q-11 -14 -35 -14h-24 q-20 0 -6 18l348 512q59 87 122 138t148 75l-348 693q-7 18 12 18h23q23 0 32 -14l338 -680q44 6 103 6h196l119 672q3 16 19 16h26q17 0 17 -16l-121 -672h198q53 0 93 -6l579 680q12 14 37 14h27z" />
<glyph unicode="&#x417;" horiz-adv-x="1241" d="M1176 1075q-22 -115 -88.5 -203.5t-176.5 -121.5q118 -44 165 -137.5t22 -227.5q-35 -199 -178.5 -306.5t-397.5 -107.5q-166 0 -271 44.5t-154 123t-62 201.5q-2 16 16 22l23 5q17 6 20 -11q19 -171 116.5 -250t317.5 -79q222 0 351 95.5t159 268.5q27 149 -41.5 238.5 t-222.5 89.5h-405q-18 0 -15 16l4 23q3 16 21 16h401q144 0 230 87.5t108 217.5q31 168 -57 258t-285 90q-213 0 -335 -76t-201 -245q-11 -16 -25 -10l-20 6q-17 6 -9 22q85 184 223 271.5t375 87.5q226 0 326 -108t66 -300z" />
<glyph unicode="&#x418;" horiz-adv-x="1415" d="M1368 1454q17 0 14 -16l-249 -1422q-5 -16 -21 -16h-27q-17 0 -14 16l172 973q28 151 76 375h-4q-88 -107 -291 -336l-893 -1016q-10 -12 -22 -12h-27q-17 0 -14 16l251 1422q3 16 19 16h27q19 0 14 -16l-168 -940q-37 -211 -78 -408h4q88 108 314 367l870 987 q5 10 20 10h27z" />
<glyph unicode="&#x419;" horiz-adv-x="1415" d="M870 1567q-125 0 -190.5 56.5t-77.5 176.5q0 14 10 17l25 6q14 0 14 -8q9 -104 64.5 -152.5t161.5 -48.5q105 0 174.5 48.5t115.5 152.5q8 13 19 10l22 -8q12 -6 4 -17q-54 -121 -136 -177t-206 -56zM1368 1454q17 0 14 -16l-249 -1422q-5 -16 -21 -16h-27q-17 0 -14 16 l172 973q28 151 76 375h-4q-88 -107 -291 -336l-893 -1016q-10 -12 -22 -12h-27q-17 0 -14 16l251 1422q3 16 19 16h27q19 0 14 -16l-168 -940q-37 -211 -78 -408h4q88 108 314 367l870 987q5 10 20 10h27z" />
<glyph unicode="&#x41a;" horiz-adv-x="1214" d="M1065 18q7 -18 -12 -18h-23q-23 0 -29 14l-159 490q-26 75 -57.5 117t-87.5 65t-144 23h-303l-121 -693q-5 -16 -20 -16h-27q-17 0 -14 16l251 1422q3 16 19 16h27q17 0 14 -16l-119 -672h291q39 0 57 -2l617 676q9 14 35 14h30q20 0 6 -18l-628 -686q94 -18 146 -71.5 t83 -148.5z" />
<glyph unicode="&#x41b;" horiz-adv-x="1312" d="M1268 1454q17 0 14 -16l-250 -1422q-5 -16 -20 -16h-29q-15 0 -12 16l243 1383h-714l-80 -445q-30 -173 -62.5 -308t-61.5 -229t-65 -164t-65.5 -111.5t-71 -74t-73 -49t-79.5 -38.5q-8 -3 -12 -5q-16 -10 -22 7l-8 22q-3 18 12 23q102 48 146 84q100 84 170 286 q68 195 132 557l86 484q3 16 19 16h803z" />
<glyph unicode="&#x41c;" horiz-adv-x="1626" d="M1579 1454q17 0 14 -16l-250 -1422q-5 -16 -20 -16h-27q-15 0 -12 16l178 1008q4 23 66 328h-2q-132 -186 -199 -275l-524 -710q-12 -15 -27 -15h-16q-18 0 -23 15l-280 720q-37 90 -95 267h-4q-15 -108 -53 -330l-176 -1008q-5 -16 -20 -16h-27q-17 0 -14 16l251 1422 q3 16 19 16h20q18 0 23 -16l397 -1012l746 1010q13 18 28 18h27z" />
<glyph unicode="&#x41d;" horiz-adv-x="1390" d="M1346 1454q17 0 14 -16l-252 -1422q-3 -16 -18 -16h-29q-17 0 -12 16l120 693h-919l-121 -693q-5 -16 -20 -16h-27q-17 0 -14 16l251 1422q3 16 19 16h27q17 0 14 -16l-119 -672h920l120 672q0 16 17 16h29z" />
<glyph unicode="&#x41e;" horiz-adv-x="1353" d="M197 989q42 236 204 365t426 129q262 0 381.5 -136.5t77.5 -371.5l-90 -512q-42 -234 -203 -363t-422 -129q-265 0 -386 136t-79 372zM1227 981q37 209 -67.5 327.5t-336.5 118.5q-238 0 -383 -116t-182 -330l-90 -508q-37 -210 67.5 -328t339.5 -118q233 0 379 118 t183 328z" />
<glyph unicode="&#x41f;" horiz-adv-x="1378" d="M1331 1454q18 0 15 -16l-250 -1422q-5 -16 -21 -16h-28q-16 0 -13 16l244 1383h-905l-244 -1383q-5 -16 -20 -16h-27q-17 0 -14 16l251 1422q3 16 19 16h993z" />
<glyph unicode="&#x420;" horiz-adv-x="1259" d="M891 1454q205 0 304.5 -122t61.5 -328q-38 -203 -175.5 -313.5t-344.5 -110.5h-510l-98 -564q-5 -16 -20 -16h-27q-17 0 -14 16l251 1422q3 16 19 16h553zM741 635q183 0 304.5 100t152.5 279q32 182 -53 283.5t-266 101.5h-506l-135 -764h503z" />
<glyph unicode="&#x421;" horiz-adv-x="1294" d="M193 985q42 236 202.5 367t425.5 131q233 0 342.5 -89t128.5 -272q2 -17 -14 -22l-21 -6q-17 -6 -20 10q-21 169 -116.5 246t-305.5 77q-237 0 -381 -116.5t-180 -323.5l-90 -512q-37 -211 67 -327.5t338 -116.5q214 0 338 80t205 251q6 18 23 11l24 -8q15 -6 6 -23 q-44 -93 -93.5 -158t-119.5 -115t-165 -74t-220 -24q-262 0 -383.5 134t-81.5 368z" />
<glyph unicode="&#x422;" horiz-adv-x="1069" d="M1174 1454q17 0 14 -16l-6 -23q0 -16 -17 -16h-465l-243 -1383q-3 -16 -21 -16h-26q-18 0 -13 16l244 1383h-465q-17 0 -14 16l4 23q3 16 18 16h990z" />
<glyph unicode="&#x423;" horiz-adv-x="1175" d="M1280 1454q20 0 8 -16l-981 -1424q-11 -14 -31 -14h-30q-19 0 -6 16l272 394l-367 1028q-3 6 0.5 11t10.5 5h26q22 0 29 -14l342 -971l670 971q6 9 10.5 11.5t17.5 2.5h29z" />
<glyph unicode="&#x424;" horiz-adv-x="1679" d="M1012 1505q9 0 11.5 -3.5t2.5 -12.5l-29 -158h148q267 0 385.5 -141t73.5 -387l-29 -158q-42 -245 -207.5 -378.5t-433.5 -133.5h-150l-26 -158q-3 -16 -19 -16h-26q-18 0 -15 16l27 158h-147q-267 0 -385.5 140t-73.5 386l28 158q43 245 209.5 379.5t434.5 134.5h147 l27 158q3 16 20 16h27zM928 1276h-148q-241 0 -388.5 -122t-184.5 -341l-29 -162q-39 -219 65.5 -341t344.5 -122h149zM1544 813q39 220 -63.5 341.5t-347.5 121.5h-148l-190 -1088h147q241 0 389 122t185 341z" />
<glyph unicode="&#x425;" horiz-adv-x="1228" d="M1321 1454q7 0 10 -5t-2 -11l-653 -703l416 -712q6 -9 2.5 -16t-13.5 -7h-32q-20 0 -27 14l-391 674l-625 -674q-12 -14 -33 -14h-36q-24 0 -5 23l668 716l-403 699q-3 6 0 11t12 5h31q14 0 19 -2.5t9 -11.5l377 -654l606 654q12 14 31 14h39z" />
<glyph unicode="&#x426;" horiz-adv-x="1406" d="M1243 55q15 0 12 -16l-59 -336q-3 -16 -20 -16h-25q-17 0 -14 16l53 297h-1108q-17 0 -14 16l251 1422q3 16 19 16h27q17 0 14 -16l-244 -1383h901l244 1383q0 16 16 16h29q17 0 14 -16l-243 -1383h147z" />
<glyph unicode="&#x427;" horiz-adv-x="1265" d="M1221 1454q17 0 14 -16l-250 -1422q-5 -16 -20 -16h-29q-15 0 -12 16l104 596q-210 -51 -446 -51q-272 0 -367.5 128.5t-50.5 379.5l65 369q5 16 19 16h28q15 0 15 -16l-68 -373q-26 -148 -3.5 -247t114 -149.5t258.5 -50.5q232 0 446 52l138 768q0 16 16 16h29z" />
<glyph unicode="&#x428;" horiz-adv-x="1845" d="M1800 1454q15 0 15 -16l-252 -1422q-3 -16 -19 -16h-1462q-17 0 -14 16l251 1422q3 16 19 16h27q17 0 14 -16l-244 -1383h658l243 1383q3 16 19 16h26q17 0 17 -16l-244 -1383h655l244 1383q3 16 19 16h28z" />
<glyph unicode="&#x429;" horiz-adv-x="1882" d="M1720 55q15 0 15 -16l-60 -336q-5 -16 -20 -16h-27q-17 0 -12 16l51 297h-1585q-17 0 -14 16l251 1422q3 16 19 16h27q17 0 14 -16l-244 -1383h658l243 1383q3 16 19 16h26q17 0 17 -16l-244 -1383h655l244 1383q3 16 19 16h28q15 0 15 -16l-244 -1383h149z" />
<glyph unicode="&#x42a;" horiz-adv-x="1445" d="M971 874q207 0 309.5 -119.5t65.5 -322.5q-35 -205 -173.5 -318.5t-345.5 -113.5h-557q-17 0 -12 16l244 1383h-342q-18 0 -15 16l5 23q3 16 18 16h385q16 0 16 -16l-102 -564h504zM829 55q182 0 303.5 101.5t153.5 283.5q31 179 -54.5 279t-266.5 100h-506l-133 -764 h503z" />
<glyph unicode="&#x42b;" horiz-adv-x="1699" d="M1157 434q-35 -205 -174.5 -319.5t-347.5 -114.5h-553q-17 0 -14 16l251 1422q3 16 19 16h27q17 0 14 -16l-100 -564h505q207 0 308.5 -118.5t64.5 -321.5zM1608 1438q3 16 18 16h27q17 0 14 -16l-250 -1422q-5 -16 -20 -16h-27q-17 0 -14 16zM1098 440q31 179 -55 279 t-267 100h-506l-133 -764h502q183 0 305 101.5t154 283.5z" />
<glyph unicode="&#x42c;" horiz-adv-x="1255" d="M1157 434q-35 -205 -174.5 -319.5t-347.5 -114.5h-553q-17 0 -14 16l251 1422q3 16 19 16h27q17 0 14 -16l-100 -564h505q207 0 308.5 -118.5t64.5 -321.5zM1098 440q31 179 -55 279t-267 100h-506l-133 -764h502q183 0 305 101.5t154 283.5z" />
<glyph unicode="&#x42d;" horiz-adv-x="1298" d="M182 1124q82 183 220.5 271t371.5 88q265 0 382.5 -134t76.5 -370l-92 -516q-40 -234 -201.5 -363t-421.5 -129q-123 0 -211.5 24t-144.5 72.5t-85.5 115t-39.5 157.5q-2 16 16 22l23 9q17 6 20 -11q13 -114 56 -185t134 -109.5t236 -38.5q233 0 378 117t181 323l43 240 h-708q-18 0 -13 16l5 25q0 16 18 16h709l39 223q36 208 -66.5 324t-339.5 116q-210 0 -331.5 -76t-200.5 -245q-10 -16 -27 -10l-21 6q-16 7 -6 22z" />
<glyph unicode="&#x42e;" horiz-adv-x="1863" d="M715 987q42 235 203 365.5t423 130.5q259 0 376 -136t75 -370l-90 -518q-40 -234 -199.5 -361t-421.5 -127t-379 132t-77 366l41 240h-416l-121 -693q-5 -16 -20 -16h-27q-17 0 -14 16l251 1422q3 16 19 16h27q17 0 14 -16l-119 -672h418zM1733 985q37 208 -66 325 t-334 117q-233 0 -377.5 -117t-181.5 -325l-90 -516q-37 -208 66.5 -325t336.5 -117q232 0 374.5 114t180.5 328z" />
<glyph unicode="&#x42f;" horiz-adv-x="1312" d="M195 1063q33 190 158.5 290.5t318.5 100.5h592q17 0 14 -16l-250 -1422q-5 -16 -20 -16h-27q-17 0 -14 16l112 639h-383q-131 0 -213.5 -47t-154.5 -157l-283 -437q-12 -14 -35 -14h-24q-10 0 -12 5t6 13l299 459q90 140 213 187q-169 12 -248.5 117t-48.5 282z M1210 1399h-542q-168 0 -275.5 -88.5t-136.5 -253.5q-29 -163 48.5 -253.5t242.5 -90.5h543z" />
<glyph unicode="&#x430;" horiz-adv-x="1081" d="M129 696q34 199 151 289t336 90q191 0 316 -57q47 -21 59.5 -42t3.5 -71l-147 -837q-2 -17 -29 -27q-198 -70 -430 -70q-131 0 -210.5 55t-103 147.5t-1.5 217.5zM891 971q-112 53 -281 53q-192 0 -294 -77.5t-134 -254.5l-53 -303q-31 -170 35 -268t235 -98 q120 0 226 21.5t170 45.5l141 803q6 37 -1 49t-44 29z" />
<glyph unicode="&#x431;" horiz-adv-x="1126" d="M924 1501q116 0 176 31q15 7 20 -8l6 -23q0 -12 -14 -20q-71 -33 -197 -33h-79q-146 0 -245 -28t-169 -96t-111 -170.5t-69 -262.5l-11 -53q25 31 59.5 60.5t86.5 62t124 52t152 19.5q211 0 305.5 -103.5t61.5 -287.5l-49 -287q-34 -184 -161.5 -283.5t-342.5 -99.5 q-214 0 -310 103t-63 286l92 525q41 233 114 364t202.5 191.5t343.5 60.5h78zM965 645q28 160 -53.5 248t-268.5 88q-72 0 -139 -18.5t-112 -44.5t-83.5 -59.5t-57.5 -56.5t-30 -42l-69 -402q-30 -158 52.5 -246.5t268.5 -88.5t299 88t143 247z" />
<glyph unicode="&#x432;" horiz-adv-x="1067" d="M297 1024q132 51 321 51q200 0 287 -80.5t62 -224.5q-14 -80 -66 -138t-139 -85q92 -33 133 -101.5t23 -166.5q-26 -152 -152 -230t-330 -78q-196 0 -319 56q-46 20 -59 47t-5 76l131 741q9 50 35 81.5t78 51.5zM911 772q22 123 -53 188.5t-246 65.5q-189 0 -295 -49 q-36 -15 -53.5 -37t-25.5 -59l-56 -314h461q100 0 174.5 53t93.5 152zM862 285q19 106 -40.5 170.5t-176.5 64.5h-469l-65 -356q-6 -37 1.5 -55t41.5 -35q127 -54 284 -54q179 0 290 67t134 198z" />
<glyph unicode="&#x433;" horiz-adv-x="1003" d="M147 834q70 113 177.5 177t273.5 64q196 0 276.5 -79.5t55.5 -213.5q-9 -51 -29 -91.5t-43 -67.5t-61.5 -48t-68 -32t-82 -20t-85 -12.5t-92.5 -8.5q-68 -6 -111.5 -13t-97 -23.5t-86 -40.5t-59.5 -66t-37 -99q-21 -117 54 -178.5t251 -61.5q148 0 254 53.5t172 176.5 q8 14 20 8l21 -8q16 -6 6 -23q-77 -138 -194 -197t-285 -59q-202 0 -289 76t-63 215q10 57 31.5 101t55.5 73.5t70 49.5t87 32.5t94.5 19t103.5 11.5q42 4 66 6.5t62 7.5t60.5 10.5t53 15.5t49.5 21.5t41 28.5t35.5 38t25 48.5t17.5 60.5q20 115 -46.5 177.5t-240.5 62.5 q-149 0 -237 -55.5t-160 -163.5q-9 -12 -23 -6l-20 10q-12 5 -3 23z" />
<glyph unicode="&#x434;" horiz-adv-x="1120" d="M391 1501q0 15 19 15q190 0 307 -30t198 -102q93 -82 117 -225.5t-12 -337.5l-84 -469q-31 -182 -158.5 -281.5t-339.5 -99.5q-215 0 -309 102t-63 285l53 297q33 182 158 280.5t335 98.5q150 0 242 -59t113 -162q35 194 13.5 323t-103.5 205q-71 65 -186 94t-292 29 q-15 0 -12 17zM936 651q27 158 -55.5 245t-266.5 87q-188 0 -300.5 -85.5t-141.5 -246.5l-51 -299q-28 -157 54 -243t269 -86q184 0 296.5 86t140.5 243z" />
<glyph unicode="&#x435;" horiz-adv-x="1056" d="M117 657q35 198 169 308t339 110q207 0 305 -92t57 -256q-32 -136 -151.5 -205t-311.5 -69q-205 0 -383 41l-22 -129q-28 -163 48 -254t257 -91q148 0 245.5 53t170.5 154q12 15 24 6l17 -10q11 -7 2 -22q-78 -109 -188.5 -169.5t-278.5 -60.5q-209 0 -297.5 106.5 t-55.5 293.5zM934 735q36 141 -49 216t-269 75q-179 0 -297 -98.5t-149 -272.5l-20 -112q168 -43 382 -43q341 0 402 235z" />
<glyph unicode="&#x436;" horiz-adv-x="1507" d="M844 1047q18 0 12 -17l-80 -465h207q35 0 47 -2l420 471q13 13 35 13h24q25 0 9 -19l-433 -481q103 -27 146 -152l121 -379q3 -16 -13 -16h-24q-19 0 -21 12l-116 359q-25 76 -71.5 109.5t-133.5 33.5h-207l-88 -498q-3 -16 -19 -16h-24q-15 0 -12 16l86 498h-207 q-87 0 -145 -34t-109 -109l-238 -359q-10 -12 -28 -12h-29q-17 0 -4 16l256 379q43 66 91 105t110 53l-265 475q-9 19 15 19h18q14 0 19.5 -2t9.5 -11l256 -471q18 2 53 2h207l82 465q3 17 18 17h25z" />
<glyph unicode="&#x437;" horiz-adv-x="1019" d="M125 831q23 47 38 68q110 150 338 172q37 4 77 4q180 0 279.5 -81.5t76.5 -215.5q-29 -176 -209 -237v-2q91 -30 124.5 -96t16.5 -173q-23 -135 -138.5 -217t-321.5 -82q-71 0 -130 14t-97.5 34t-69 51t-46.5 55t-28 56t-14.5 44t-5.5 30q-1 4 -1 5q-6 17 15 23l22 6 q16 5 19 -10v-3q14 -126 113 -194q86 -59 227 -59q176 0 276.5 70t120.5 186q22 120 -32.5 177.5t-194.5 57.5h-244q-8 0 -10.5 3t-1.5 13l4 17q3 16 18 16h242q123 0 196.5 56t92.5 159q21 109 -66 177.5t-240 68.5q-86 0 -157 -19.5t-111.5 -44.5t-71 -58.5t-40.5 -51 t-16 -32.5l-1 -3q-6 -20 -22 -14l-21 8q-14 6 -6 22z" />
<glyph unicode="&#x438;" d="M1032 1047q15 0 12 -15l-155 -882q-9 -48 -28 -70.5t-68 -42.5q-170 -66 -375 -66q-198 0 -276.5 102.5t-45.5 291.5l117 667q6 15 18 15h27q15 0 12 -15l-118 -665q-30 -171 36.5 -257.5t241.5 -86.5q189 0 344 59q32 14 44.5 31.5t17.5 46.5l153 872q3 15 19 15h24z " />
<glyph unicode="&#x439;" d="M1006 1423q-54 -121 -137 -177t-205 -56q-126 0 -193.5 56.5t-79.5 176.5q-3 17 10 17l23 6q11 4 18 -8q7 -104 62.5 -152.5t161.5 -48.5t177.5 49.5t117.5 153.5q5 13 16 8l24 -8q11 -3 5 -17zM1032 1047q15 0 12 -15l-155 -882q-9 -48 -28 -70.5t-68 -42.5 q-170 -66 -375 -66q-198 0 -276.5 102.5t-45.5 291.5l117 667q6 15 18 15h27q15 0 12 -15l-118 -665q-30 -171 36.5 -257.5t241.5 -86.5q189 0 344 59q32 14 44.5 31.5t17.5 46.5l153 872q3 15 19 15h24z" />
<glyph unicode="&#x43a;" horiz-adv-x="1042" d="M891 16q6 -16 -12 -16h-27q-19 0 -21 12l-116 359q-25 76 -71.5 109.5t-133.5 33.5h-324l-86 -498q-5 -16 -20 -16h-25q-15 0 -12 16l178 1014q6 17 21 17h24q16 0 13 -17l-82 -465h319h21l452 469q13 13 35 13h23q27 0 6 -21l-459 -473q126 -20 170 -160z" />
<glyph unicode="&#x43b;" horiz-adv-x="1089" d="M1001 1047q16 0 13 -15l-178 -1018q-6 -14 -19 -14h-26q-16 0 -13 14l172 979h-542l-93 -405q-18 -75 -35.5 -139t-36 -115t-34.5 -91.5t-36.5 -73t-35.5 -56t-38 -43.5t-37 -31.5t-40 -25t-40 -19t-43 -17.5l-15 -6q-13 -5 -16 6l-8 27q-5 10 8 16q12 6 37 16.5t38.5 18 t37 22t39.5 33t38 47t40 68t39.5 91.5t42 122.5t40.5 155.5l102 438q6 15 19 15h620z" />
<glyph unicode="&#x43c;" horiz-adv-x="1296" d="M1208 1047q20 0 15 -19l-181 -1012q-2 -9 -6 -12.5t-14 -3.5h-16q-12 0 -15.5 3.5t-1.5 12.5l127 713q9 56 45 221h-2q-99 -139 -131 -182l-416 -563q-12 -15 -28 -15h-13q-11 0 -15 3t-5 12l-219 551q-35 92 -72 196h-2q-19 -128 -39 -241l-121 -695q-5 -14 -11 -15 q-2 -1 -7 -1h-23q-17 0 -12 16l176 1012q5 19 23 19h16q18 0 23 -17l305 -778l573 778q11 17 23 17h24z" />
<glyph unicode="&#x43d;" horiz-adv-x="1136" d="M1049 1047q18 0 12 -15l-178 -1018q-3 -14 -19 -14h-24q-19 0 -13 14l86 500h-727l-86 -500q-6 -14 -18 -14h-27q-15 0 -12 14l178 1018q6 15 19 15h26q16 0 13 -15l-82 -467h727l82 467q3 15 18 15h25z" />
<glyph unicode="&#x43e;" horiz-adv-x="1097" d="M135 727q29 162 162.5 255t329.5 93q198 0 300 -94t74 -256l-71 -408q-29 -161 -161 -253.5t-329 -92.5t-301 95t-76 256zM946 729q25 134 -64.5 214.5t-260.5 80.5q-168 0 -285.5 -80.5t-142.5 -214.5l-72 -412q-25 -134 64.5 -214t258.5 -80q171 0 288 79.5t142 214.5z " />
<glyph unicode="&#x43f;" horiz-adv-x="1112" d="M289 1010q172 65 375 65q199 0 276.5 -101.5t44.5 -291.5l-117 -668q-3 -14 -18 -14h-25q-18 0 -12 14l117 666q30 170 -37.5 257t-241.5 87q-194 0 -344 -61q-31 -13 -43.5 -29.5t-17.5 -44.5l-152 -875q-6 -14 -18 -14h-27q-15 0 -12 14l156 885q9 46 28 68.5t68 42.5z " />
<glyph unicode="&#x440;" horiz-adv-x="1087" d="M295 1018q151 57 340 57q419 0 350 -407l-55 -306q-68 -391 -459 -391q-202 0 -367 99l-90 -506q-3 -15 -18 -15h-25q-18 0 -12 15l236 1341q9 50 28 71t72 42zM928 668q31 178 -44 267t-263 89q-171 0 -304 -53q-42 -17 -52.5 -29t-16.5 -49l-135 -766q33 -21 74 -41 t123 -41.5t165 -21.5q336 0 397 342z" />
<glyph unicode="&#x441;" horiz-adv-x="1044" d="M125 690q33 185 158 285t335 100q181 0 266 -73t105 -211q3 -20 -12 -23l-21 -4q-17 -5 -20 8q-18 129 -92 190.5t-234 61.5q-181 0 -291.5 -89.5t-138.5 -248.5l-57 -324q-28 -158 52 -248.5t259 -90.5q157 0 258.5 65t163.5 201q8 15 23 10l24 -6q12 -6 4 -21 q-70 -152 -185.5 -226.5t-293.5 -74.5q-207 0 -300 106.5t-60 293.5z" />
<glyph unicode="&#x442;" horiz-adv-x="1654" d="M846 973q1 0 15.5 7.5t27 13.5t36.5 16.5t47 18.5t56 17t64.5 15t70.5 10t78 4q181 0 251.5 -94t37.5 -281l-121 -686q-6 -14 -20 -14h-25q-15 0 -12 14l121 684q29 168 -29.5 247t-214.5 79q-83 0 -166 -20.5t-124 -39.5t-69 -36q39 -83 15 -226l-121 -688 q-6 -14 -19 -14h-26q-16 0 -10 14l120 684q29 168 -33.5 247t-220.5 79q-147 0 -266 -55q-33 -16 -45.5 -34.5t-17.5 -47.5l-152 -873q-6 -14 -18 -14h-27q-15 0 -12 14l156 885q9 45 29.5 70t66.5 47q137 59 299 59q190 0 258 -102z" />
<glyph unicode="&#x443;" horiz-adv-x="1120" d="M1032 1047q15 0 12 -15l-196 -1116q-78 -442 -500 -442q-277 0 -350 239q-9 19 10 25l19 8q15 8 22 -6q32 -102 103.5 -157.5t205.5 -55.5q365 0 435 387l24 141q-137 -48 -222 -63t-175 -15q-199 0 -277 103t-45 293l115 659q6 15 18 15h27q15 0 12 -15l-116 -659 q-30 -172 35 -258t243 -86q183 0 393 80l164 923q3 15 19 15h24z" />
<glyph unicode="&#x444;" horiz-adv-x="1505" d="M858 1063q98 9 186 12q38 0 72.5 -3.5t72 -12t68 -23t60.5 -36.5t48 -52.5t32.5 -71.5t13.5 -93t-10 -117l-51 -297q-18 -100 -58 -174t-88 -116t-112.5 -67t-120.5 -33t-121 -8q-74 2 -180 13l-74 -420q-6 -15 -21 -15h-24q-15 0 -12 15l73 420q-108 -11 -188 -13 q-34 0 -65 2.5t-64.5 9.5t-62 18t-56 28t-48.5 39.5t-37.5 54t-24.5 69t-8 86.5t10 105l47 279q18 100 58.5 175.5t90.5 119.5t114 71.5t121 37t119 9.5q67 0 185 -12l78 436q0 17 18 17h25q15 0 12 -17zM123 379q-8 -47 -9 -88.5t5.5 -73t18 -58t29 -45.5t36 -33.5t43 -24 t46.5 -16t48.5 -10t48 -4.5t45.5 -1q84 0 189 10l172 977q-102 10 -185 10q-50 0 -98.5 -8.5t-105.5 -33t-102 -63.5t-82 -107t-52 -157zM1348 670q8 47 9 88t-6 72.5t-18 57.5t-29 45t-37 33.5t-43 24t-46.5 16t-49 10t-47.5 4.5t-45 1q-76 0 -186 -10l-172 -977 q102 -10 182 -10q50 0 95.5 6t103 28t102 58.5t82 103t53.5 156.5z" />
<glyph unicode="&#x445;" horiz-adv-x="954" d="M967 1047q21 0 6 -15l-477 -495l319 -523q6 -14 -12 -14h-29q-7 0 -10.5 1.5t-4.5 3l-5 7.5l-295 486l-463 -486q-12 -12 -29 -12h-30q-21 0 -7 14l500 525l-303 493q-7 15 14 15h23q18 0 24 -13l281 -456l436 456q13 13 29 13h33z" />
<glyph unicode="&#x446;" horiz-adv-x="1155" d="M258 1047q15 0 12 -15l-118 -667q-28 -171 38.5 -256.5t241.5 -85.5q84 0 152.5 11t137.5 29.5t101 24.5l166 944q3 15 19 15h24q15 0 12 -15l-165 -938q73 10 114 -26.5t27 -120.5l-37 -217q-6 -15 -16 -15h-23q-20 0 -14 15l37 213q9 50 -14 80t-85 22 q-45 -5 -118 -24.5t-155.5 -34.5t-174.5 -15q-198 0 -277.5 102.5t-46.5 291.5l117 667q6 15 18 15h27z" />
<glyph unicode="&#x447;" horiz-adv-x="1019" d="M145 1032q6 15 19 15h26q16 0 13 -15l-51 -278q-29 -160 42.5 -228.5t260.5 -68.5q44 0 92.5 5t90 13t73 15t59 14t29.5 8l90 520q6 15 18 15h27q16 0 10 -15l-176 -1018q-6 -14 -20 -14h-25q-15 0 -12 14l77 445q-175 -56 -346 -56q-211 0 -293.5 87t-50.5 272z" />
<glyph unicode="&#x448;" horiz-adv-x="1642" d="M1561 1047q18 0 12 -15l-154 -882q-9 -48 -28 -73t-66 -46q-139 -60 -303 -60q-182 0 -256 99q-193 -99 -387 -99q-352 0 -285 381l119 680q6 15 18 15h27q15 0 12 -15l-120 -684q-29 -168 29 -246.5t214 -78.5q179 0 348 90q-41 81 -16 231l123 688q3 15 18 15h25 q15 0 12 -15l-123 -690q-29 -164 34 -241.5t220 -77.5q150 0 266 55q33 16 46 36t18 52l154 866q3 15 18 15h25z" />
<glyph unicode="&#x449;" horiz-adv-x="1681" d="M213 1032q6 15 18 15h27q15 0 12 -15l-120 -684q-29 -168 29 -246.5t214 -78.5q179 0 348 90q-41 81 -16 231l123 688q3 15 18 15h25q15 0 12 -15l-123 -690q-29 -164 34 -241.5t220 -77.5q66 0 114.5 9.5t106.5 28t95 27.5l168 944q3 15 18 15h25q18 0 12 -15l-166 -936 q75 10 115.5 -27t27.5 -122l-37 -217q-6 -15 -16 -15h-22q-21 0 -15 15l37 213q9 50 -13.5 80t-84.5 22q-35 -4 -160.5 -39t-216.5 -35q-182 0 -256 99q-193 -99 -387 -99q-352 0 -285 381z" />
<glyph unicode="&#x44a;" horiz-adv-x="1222" d="M391 635q208 76 393 76q186 0 272 -98t54 -271q-34 -192 -151 -281.5t-330 -89.5q-191 0 -318 58q-47 21 -59.5 41.5t-3.5 70.5l151 854h-305q-15 0 -12 15l2 22q6 15 20 15h345q15 0 12 -15zM348 76q116 -53 285 -53q187 0 289 78.5t133 246.5q26 149 -47.5 231.5 t-233.5 82.5q-190 0 -393 -80l-76 -428q-6 -37 1 -50t42 -28z" />
<glyph unicode="&#x44b;" horiz-adv-x="1386" d="M203 635q208 76 391 76q186 0 273 -98t55 -271q-34 -192 -151 -281.5t-331 -89.5q-190 0 -317 58q-47 21 -60 41.5t-4 70.5l158 891q3 15 19 15h22q17 0 14 -15zM1298 1047q16 0 13 -15l-178 -1018q-6 -14 -19 -14h-27q-15 0 -12 14l178 1018q6 15 19 15h26zM160 76 q116 -53 284 -53q187 0 289 78.5t133 246.5q26 149 -48 231.5t-234 82.5q-188 0 -391 -80l-76 -428q-6 -37 1 -50t42 -28z" />
<glyph unicode="&#x44c;" horiz-adv-x="1036" d="M203 635q208 76 391 76q186 0 273 -98t55 -271q-34 -192 -151 -281.5t-331 -89.5q-190 0 -317 58q-47 21 -60 41.5t-4 70.5l158 891q3 15 19 15h22q17 0 14 -15zM160 76q116 -53 284 -53q187 0 289 78.5t133 246.5q26 149 -48 231.5t-234 82.5q-188 0 -391 -80l-76 -428 q-6 -37 1 -50t42 -28z" />
<glyph unicode="&#x44d;" horiz-adv-x="1040" d="M391 -29q-178 0 -269 75t-106 226q-5 14 13 21l24 8q16 3 21 -12q14 -137 91 -201.5t234 -64.5q179 0 290.5 90.5t139.5 248.5l27 148h-508q-15 0 -10 16l2 21q3 16 18 16h506l23 123q28 160 -50.5 249t-261.5 89q-161 0 -254.5 -59.5t-156.5 -192.5q-10 -13 -23 -8 l-20 8q-14 5 -6 23q66 141 174.5 210.5t292.5 69.5q210 0 300.5 -106t57.5 -293l-57 -320q-33 -185 -159 -285t-333 -100z" />
<glyph unicode="&#x44e;" horiz-adv-x="1505" d="M563 733q27 160 157.5 251t323.5 91q194 0 293.5 -95.5t71.5 -256.5l-76 -418q-27 -159 -155.5 -246.5t-325.5 -87.5q-193 0 -292.5 92t-72.5 252l33 189h-336l-84 -490q-6 -14 -18 -14h-27q-15 0 -12 14l178 1018q6 15 19 15h26q16 0 13 -15l-84 -475h335zM1354 733 q23 134 -64 212.5t-254 78.5q-165 0 -281 -80t-139 -213l-75 -422q-23 -133 64.5 -209.5t254.5 -76.5t281 78t139 212z" />
<glyph unicode="&#x44f;" horiz-adv-x="1042" d="M952 1047q18 0 15 -17l-179 -1016q-6 -14 -18 -14h-27q-15 0 -12 14l70 396h-412l-344 -396q-12 -14 -33 -14h-22q-26 0 -8 18l346 398q-117 12 -175 98t-34 219q26 150 127 232t254 82h452zM905 995h-411q-126 0 -211.5 -71.5t-108.5 -198.5q-23 -124 35.5 -195 t181.5 -71h418z" />
<glyph unicode="&#x451;" horiz-adv-x="1056" d="M492 1372q21 0 25.5 -6.5t2.5 -26.5l-2 -14q-5 -21 -12.5 -27t-28.5 -6h-12q-19 0 -25 6.5t-2 26.5l2 14q3 19 11.5 26t27.5 7h13zM879 1372q19 0 25.5 -7t4.5 -26l-4 -14q-3 -19 -12 -26t-29 -7h-10q-22 0 -27.5 6.5t-1.5 26.5l2 14q3 19 11.5 26t29.5 7h11zM117 657 q35 198 169 308t339 110q207 0 305 -92t57 -256q-32 -136 -151.5 -205t-311.5 -69q-205 0 -383 41l-22 -129q-28 -163 48 -254t257 -91q148 0 245.5 53t170.5 154q12 15 24 6l17 -10q11 -7 2 -22q-78 -109 -188.5 -169.5t-278.5 -60.5q-209 0 -297.5 106.5t-55.5 293.5z M934 735q36 141 -49 216t-269 75q-179 0 -297 -98.5t-149 -272.5l-20 -112q168 -43 382 -43q341 0 402 235z" />
<glyph unicode="&#x2000;" horiz-adv-x="949" />
<glyph unicode="&#x2001;" horiz-adv-x="1898" />
<glyph unicode="&#x2002;" horiz-adv-x="949" />
<glyph unicode="&#x2003;" horiz-adv-x="1898" />
<glyph unicode="&#x2004;" horiz-adv-x="632" />
<glyph unicode="&#x2005;" horiz-adv-x="474" />
<glyph unicode="&#x2006;" horiz-adv-x="316" />
<glyph unicode="&#x2007;" horiz-adv-x="316" />
<glyph unicode="&#x2008;" horiz-adv-x="237" />
<glyph unicode="&#x2009;" horiz-adv-x="379" />
<glyph unicode="&#x200a;" horiz-adv-x="105" />
<glyph unicode="&#x2010;" horiz-adv-x="878" d="M721 571q17 0 12 -16l-2 -23q-3 -16 -18 -16h-578q-17 0 -14 16l2 23q5 16 20 16h578z" />
<glyph unicode="&#x2011;" horiz-adv-x="878" d="M721 571q17 0 12 -16l-2 -23q-3 -16 -18 -16h-578q-17 0 -14 16l2 23q5 16 20 16h578z" />
<glyph unicode="&#x2012;" horiz-adv-x="878" d="M721 571q17 0 12 -16l-2 -23q-3 -16 -18 -16h-578q-17 0 -14 16l2 23q5 16 20 16h578z" />
<glyph unicode="&#x2013;" horiz-adv-x="1189" d="M1034 575q16 0 13 -16l-3 -22q-6 -17 -20 -17h-893q-18 0 -12 17l2 22q3 16 20 16h893z" />
<glyph unicode="&#x2014;" horiz-adv-x="1599" d="M1444 575q15 0 12 -16l-4 -22q-3 -17 -18 -17h-1303q-17 0 -14 17l4 22q3 16 20 16h1303z" />
<glyph unicode="&#x2018;" horiz-adv-x="364" d="M367 1440q3 8 6.5 11t11.5 3h12q9 0 11.5 -2.5t1.5 -9.5l-131 -309q-4 -13 -10 -17t-19 -4h-23q-28 0 -16 21z" />
<glyph unicode="&#x2019;" horiz-adv-x="358" d="M252 1126q-6 -14 -19 -14h-12q-9 0 -11 2t-1 10l131 310q4 13 10 16.5t19 3.5h22q28 0 17 -20z" />
<glyph unicode="&#x201a;" horiz-adv-x="282" d="M29 -209q-2 -14 -19 -14h-16q-16 0 -14 14l79 420q3 14 17 14h28q18 0 15 -14z" />
<glyph unicode="&#x201c;" horiz-adv-x="559" d="M367 1440q3 8 6.5 11t11.5 3h12q9 0 11.5 -2.5t1.5 -9.5l-131 -309q-4 -13 -10 -17t-19 -4h-23q-28 0 -16 21zM559 1440q6 14 19 14h12q9 0 11.5 -2t0.5 -10l-131 -309q-4 -13 -10 -17t-19 -4h-22q-29 0 -17 21z" />
<glyph unicode="&#x201d;" horiz-adv-x="552" d="M252 1126q-6 -14 -19 -14h-12q-9 0 -11 2t-1 10l131 310q4 13 10 16.5t19 3.5h22q28 0 17 -20zM446 1126q-3 -8 -6.5 -11t-11.5 -3h-12q-9 0 -11.5 2.5t-1.5 9.5l132 310q4 13 9.5 16.5t18.5 3.5h23q27 0 16 -20z" />
<glyph unicode="&#x201e;" horiz-adv-x="493" d="M-49 -233q-6 -15 -19 -15h-12q-9 0 -11.5 2t-0.5 10l131 310q4 13 10 16.5t19 3.5h22q27 0 16 -20zM145 -233q-6 -15 -18 -15h-12q-9 0 -11.5 2.5t-1.5 9.5l131 310q4 13 10 16.5t19 3.5h23q27 0 16 -20z" />
<glyph unicode="&#x2020;" horiz-adv-x="1105" d="M1071 938q9 0 11.5 -3.5t2.5 -12.5l-4 -25q-5 -16 -20 -16h-434l-189 -1069q0 -17 -18 -17h-27q-15 0 -12 17l188 1069h-436q-17 0 -12 16l4 25q0 16 18 16h437l88 500q3 16 18 16h27q9 0 11.5 -3.5t2.5 -12.5l-88 -500h432z" />
<glyph unicode="&#x2021;" horiz-adv-x="1212" d="M766 1454q16 0 16 -16l-88 -500h432q16 0 13 -16l-4 -25q-3 -16 -19 -16h-434l-90 -516h432q17 0 14 -17l-4 -24q-3 -17 -18 -17h-434l-88 -495q0 -17 -19 -17h-26q-16 0 -13 17l88 495h-436q-17 0 -14 17l4 24q3 17 18 17h436l93 516h-437q-17 0 -14 16l4 25q3 16 21 16 h436l88 500q3 16 18 16h25z" />
<glyph unicode="&#x2022;" horiz-adv-x="520" d="M233 465q-32 0 -49 20.5t-12 53.5q6 32 31 52.5t57 20.5t48.5 -20.5t10.5 -52.5t-30 -53t-56 -21z" />
<glyph unicode="&#x2026;" horiz-adv-x="1073" d="M78 82q23 0 29.5 -8.5t3.5 -32.5l-2 -10q-4 -23 -15 -31t-35 -8h-10q-24 0 -30.5 7.5t-0.5 31.5l2 10q4 23 15.5 32t34.5 9h8zM463 82q23 0 29.5 -8.5t3.5 -32.5l-2 -10q-4 -23 -15 -31t-35 -8h-10q-24 0 -30.5 7.5t-0.5 31.5l3 10q4 23 15 32t34 9h8zM846 82 q23 0 29.5 -8.5t3.5 -32.5l-2 -10q-4 -23 -15 -31t-35 -8h-10q-24 0 -30.5 7.5t-0.5 31.5l2 10q4 23 15.5 32t34.5 9h8z" />
<glyph unicode="&#x202f;" horiz-adv-x="379" />
<glyph unicode="&#x2030;" horiz-adv-x="2400" d="M180 1186q25 140 120 219.5t245 79.5t216.5 -79.5t41.5 -219.5l-27 -154q-25 -140 -119.5 -218.5t-244.5 -78.5t-216.5 78.5t-41.5 218.5zM1520 1454q19 0 4 -18l-1297 -1422q-9 -10 -15 -12t-22 -2h-20q-10 0 -12 5t6 13l1296 1422q12 14 33 14h27zM752 1184 q22 119 -34 185.5t-183 66.5q-125 0 -203.5 -66t-100.5 -186l-26 -150q-22 -118 34.5 -184t182.5 -66q125 0 204 66t101 184zM909 420q25 140 120 219.5t245 79.5t216.5 -79.5t41.5 -219.5l-27 -154q-25 -140 -119.5 -218.5t-244.5 -78.5t-216.5 78.5t-41.5 218.5zM1671 420 q25 140 120 219.5t245 79.5t216.5 -79.5t41.5 -219.5l-27 -154q-25 -140 -119.5 -218.5t-244.5 -78.5t-216.5 78.5t-41.5 218.5zM1481 418q22 118 -34.5 185t-182.5 67q-124 0 -202.5 -66.5t-100.5 -185.5l-27 -150q-20 -118 35.5 -184t181.5 -66q125 0 205 66t100 184z M2243 418q22 118 -35 185t-183 67q-124 0 -202.5 -66.5t-100.5 -185.5l-26 -150q-20 -118 35.5 -184t181.5 -66q125 0 205 66t100 184z" />
<glyph unicode="&#x2039;" horiz-adv-x="661" d="M141 535l328 -398q9 -12 -4 -20l-16 -15q-14 -12 -23 0l-352 426q-10 10 4 19l502 430q14 9 20 0l14 -19q10 -13 -4 -24z" />
<glyph unicode="&#x203a;" horiz-adv-x="665" d="M168 944q-9 11 6 23l16 12q14 9 23 0l352 -432q9 -9 -2 -19l-502 -426q-12 -10 -22 0l-16 23q-6 12 4 20l471 400z" />
<glyph unicode="&#x2044;" horiz-adv-x="266" d="M643 1438q11 16 31 16h24q23 0 11 -18l-1045 -1420q-8 -11 -14 -13.5t-23 -2.5h-20q-20 0 -8 18z" />
<glyph unicode="&#x205f;" horiz-adv-x="474" />
<glyph unicode="&#x20ac;" horiz-adv-x="1476" d="M377 993q43 234 205.5 363t427.5 129q196 0 300 -64t144 -192q6 -22 -10 -27l-21 -6q-20 -3 -24 10q-34 111 -128.5 167.5t-273.5 56.5q-234 0 -377.5 -116t-179.5 -321l-18 -98h731q16 0 10 -14l-12 -21q-6 -14 -23 -14h-714l-47 -258h641q19 0 10 -15l-10 -20 q-8 -14 -25 -14h-625l-12 -78q-36 -204 69 -320t337 -116q187 0 303.5 62.5t187.5 182.5q14 17 29 9l18 -11q17 -8 4 -26q-83 -136 -214.5 -204.5t-338.5 -68.5q-260 0 -378 130t-78 364l12 76h-227q-19 0 -11 14l11 20q9 15 22 15h215l45 258h-155q-19 0 -13 14l13 21 q6 14 20 14h143z" />
<glyph unicode="&#x20bd;" horiz-adv-x="1294" d="M266 621l-41 -248h783q10 0 12 -3.5t2 -15.5l-4 -14q-3 -16 -21 -16h-782l-53 -308q-5 -16 -21 -16h-26q-18 0 -13 16l54 308h-115q-17 0 -14 16l4 14q0 19 20 19h113l188 1065q3 16 19 16h553q204 0 304 -114t66 -312q-35 -195 -173 -301t-345 -106h-510zM403 1399 l-127 -723h506q180 0 300 94.5t149 263.5q31 172 -55 268.5t-267 96.5h-506z" />
<glyph unicode="&#x2122;" horiz-adv-x="1269" d="M659 1423q9 0 11 -2.5t2 -11.5l-2 -12q-6 -15 -19 -15h-192l-80 -460q-3 -15 -21 -15h-10q-9 0 -11.5 3t-0.5 12l82 460h-197q-13 0 -10 15l4 12q0 9 2.5 11.5t11.5 2.5h430zM1241 1423q7 0 9.5 -2.5t2.5 -9.5l-88 -489q-2 -9 -4.5 -12t-11.5 -3h-12q-9 0 -11.5 3 t-1.5 12l54 313q7 39 22 108q-9 -10 -30.5 -37.5t-34.5 -41.5l-189 -226q-8 -10 -18 -10h-6q-13 0 -17 8l-106 224l-39 81q-3 -19 -10.5 -55t-10.5 -51l-53 -313q-4 -13 -9 -14q-2 -1 -7 -1h-15q-9 0 -11.5 3t-0.5 12l86 487q2 14 19 14h8q10 0 14 -10l162 -336l278 334 q6 12 19 12h12z" />
<glyph unicode="&#x25fc;" horiz-adv-x="1044" d="M0 1044h1044v-1044h-1044v1044z" />
</font>
</defs>
</svg>
